<svg xmlns="http://www.w3.org/2000/svg" width="55" height="55" viewBox="0 0 32 32"><defs><linearGradient id="a" x1=".52" x2=".52" y1="1" gradientUnits="objectBoundingBox"><stop offset="0" stop-color="#4c0584"/><stop offset="1" stop-color="#8e1aab"/></linearGradient></defs><g transform="translate(-952 -461)"><circle cx="15" cy="15" r="15" fill="#fff" transform="translate(953 462)"/><path fill="url(#a)" d="M18 2a16 16 0 1016 16A16.01 16.01 0 0018 2zm0 1.4A14.6 14.6 0 113.4 18 14.6 14.6 0 0118 3.4zM8.68 9.64a1.11 1.11 0 00-1.11 1.11v4.04a1.11 1.11 0 001.1 1.11h2.72v-1.39H9.37a.42.42 0 01-.41-.41v-2.65a.42.42 0 01.41-.42h2.65a.42.42 0 01.41.42v5.43a.42.42 0 01-.41.41H7.57v1.4h5.14a1.11 1.11 0 001.12-1.11v-6.82a1.11 1.11 0 00-1.12-1.12H8.68zm7.3 0a1.11 1.11 0 00-1.11 1.11v4.04a1.11 1.11 0 001.1 1.11h4.04a1.11 1.11 0 001.12-1.11v-4.04a1.11 1.11 0 00-1.11-1.1h-4.04zm7.3 0a1.11 1.11 0 00-1.11 1.11v4.04a1.11 1.11 0 001.1 1.11H26v-1.39h-2.02a.42.42 0 01-.41-.41v-2.65a.42.42 0 01.41-.42h2.65a.42.42 0 01.41.42v5.43a.42.42 0 01-.41.41h-4.46v1.4h5.15a1.11 1.11 0 001.11-1.11v-6.82a1.11 1.11 0 00-1.1-1.12h-4.04zm-6.61 1.4h2.64a.42.42 0 01.42.41v2.64a.42.42 0 01-.42.42h-2.63a.42.42 0 01-.42-.42v-2.64a.42.42 0 01.42-.42zm-8 9.04a1.11 1.11 0 00-1.1 1.11v4.04a1.11 1.11 0 001.1 1.1h4.1v-1.38h-3.4a.42.42 0 01-.41-.42V21.9a.42.42 0 01.41-.42h3.41v-1.4zm6.26 0a1.11 1.11 0 00-1.1 1.11v4.04a1.11 1.11 0 001.1 1.1h4.04a1.11 1.11 0 001.12-1.1V21.2a1.11 1.11 0 00-1.12-1.11h-4.03zm7.3 0a1.11 1.11 0 00-1.1 1.11v5.15h1.4V21.9a.42.42 0 01.4-.42h1.16v4.87h1.39V21.9a.42.42 0 01.41-.42h1.15v4.87h1.4V20.1zm-6.6 1.39h2.63a.42.42 0 01.42.41v2.65a.42.42 0 01-.42.41h-2.63a.42.42 0 01-.41-.41V21.9a.42.42 0 01.41-.42z" transform="translate(950 459)"/></g></svg>