<svg xmlns="http://www.w3.org/2000/svg" width="55" height="55" viewBox="0 0 26 36.16"><path fill="#f15a23" d="M12.96.25a.57.57 0 01-.15.5 9.1 9.1 0 00-1.41 3.53c-.04.21-.07.24-.03.38a.93.93 0 00.1.04 13.55 13.55 0 014.15.2 12.81 12.81 0 016.58 3.67 13.61 13.61 0 013.53 6.77 13.96 13.96 0 01-.87 8.27 27.6 27.6 0 01-11.27 12.5.39.39 0 01-.5-.09.47.47 0 01.06-.57 9 9 0 001.37-3.19 2.59 2.59 0 00.1-.72c-.09-.1-.22-.07-.33-.07a12.62 12.62 0 01-6.97-1.28 13.21 13.21 0 01-5.54-5.3A13.68 13.68 0 010 17.92a13.88 13.88 0 011.63-6.4A27.46 27.46 0 0112.42.04a.38.38 0 01.54.2zm-.64 12.64a5.1 5.1 0 00-3.52 2.29 5.42 5.42 0 00.53 6.55 5.02 5.02 0 003.05 1.6 4.94 4.94 0 003.4-.78 5.25 5.25 0 002.13-2.9 5.38 5.38 0 00-1.82-5.75 4.96 4.96 0 00-3.77-1z"/></svg>
