<?xml version="1.0" encoding="UTF-8"?>
<svg id="Layer_1" data-name="Layer 1" xmlns="http://www.w3.org/2000/svg" viewBox="0 0 213.22 149.39">
  <path d="m99.19,117.43c.92,2.78,1.79,5.39,2.66,7.99.75,2.26,1.52,4.52,2.21,6.8.24.8.61,1.04,1.44,1.04,4.79-.04,9.58-.05,14.37,0,3.52.03,6.46,2.1,7.61,5.25,1.94,5.31-1.79,10.64-7.6,10.87-.24,0-.49,0-.73,0-29.67,0-59.34,0-89.02,0-2.77,0-5.25-.74-7.01-2.99-1.98-2.53-2.43-5.41-1.11-8.35,1.36-3.04,3.83-4.72,7.18-4.77,4.79-.09,9.58-.06,14.37,0,1.02.01,1.47-.3,1.78-1.29,1.38-4.36,2.85-8.7,4.28-13.05.14-.42.24-.84.41-1.43-.62-.03-1.13-.07-1.63-.07-8.77,0-17.54,0-26.3,0-4.65,0-9.02-1.09-12.85-3.83C3.15,109.24.03,103.27.02,95.77-.01,75.71,0,55.66,0,35.61c0-4.67-.01-9.34,0-14C.06,9.52,9.33.07,21.43.04c35.48-.06,70.95-.05,106.43,0,10.85.02,19.65,7.74,21.23,18.41.19,1.28.25,2.59.25,3.88.01,24.27.02,48.55,0,72.82,0,8.41-3.51,14.96-10.73,19.36-3.47,2.12-7.36,2.92-11.41,2.92-8.81,0-17.62,0-26.42,0h-1.59Zm-24.55-101.26c-17.57,0-35.14.04-52.72-.03-3.47-.01-5.82,2.56-5.81,5.72.08,24.59.04,49.18.05,73.78,0,.6.02,1.23.19,1.8.75,2.59,2.73,3.88,5.89,3.88,34.86,0,69.72,0,104.58,0,4.35,0,6.41-2.06,6.41-6.42,0-24.15,0-48.29,0-72.44,0-4.26-2.01-6.29-6.24-6.29-17.45,0-34.9,0-52.35,0Zm-12.75,116.99h25.42c-.75-4.41-2.9-8.88-4.29-13.14-.74-2.24-.76-2.56-3.09-2.59-2.25-.02-4.51,0-6.76,0-3.63,0-5.69-.8-6.98,2.82-1.52,4.27-2.86,8.61-4.29,12.91Z"/>
  <path d="m213.21,74.77c0,19.44,0,38.88,0,58.32,0,7.86-5.1,14.24-12.75,15.93-1.18.26-2.41.35-3.62.35-6.86.03-13.72.03-20.58.01-9.42-.02-16.46-7.07-16.46-16.49,0-38.8,0-77.59,0-116.39,0-7.96,5.12-14.42,12.74-16.1,1.14-.25,2.33-.36,3.49-.36,6.98-.03,13.96-.03,20.94-.01,8.36.03,15.08,5.95,16.17,14.24.11.84.06,1.7.06,2.55,0,19.32,0,38.63,0,57.95Zm-16.2,58.41v-63.61h-21v63.61h21Zm-21.02-106.61h21v-10.3h-21v10.3Zm21.03,26.71v-10.37h-20.97v10.37h20.97Z"/>
  <path d="m186.51,93.29c7.03-.03,10.64,8.73,5.71,13.69-4.94,4.96-13.73,1.46-13.73-5.62,0-4.46,3.58-8.06,8.02-8.07Z"/>
</svg>