<svg xmlns="http://www.w3.org/2000/svg" width="55" height="55" viewBox="0 0 32 32"><g transform="translate(-942 -197)"><circle cx="16" cy="16" r="16" fill="#006cff" transform="translate(942 197)"/><path fill="#fff" d="M957.51 202.7c-6.51 0-9.32 5.8-9.32 5.8l.82.6a10.45 10.45 0 00-1 4.52 10.14 10.14 0 0020.27.01 10.56 10.56 0 00-10.77-10.92zm.06 1.78a8.97 8.97 0 019.03 8.86 8.28 8.28 0 01-8.23 8.57 6.05 6.05 0 01-6.2-5.88 4.7 4.7 0 012.22-4.07l.17.19a5.14 5.14 0 00-1.23 3.16 4.52 4.52 0 004.74 4.53c3.37 0 5.62-2.88 5.62-6.21a7.46 7.46 0 00-7.56-7.18 8.96 8.96 0 00-5.33 1.85l-.17-.16a8.13 8.13 0 016.94-3.66zm-1.52 3.71a6.05 6.05 0 015.84 4.21l-.23.1a6.74 6.74 0 00-5.27-2.79 6.09 6.09 0 00-5.94 6.84l-.24.09a5.9 5.9 0 01-.45-2.19 6.3 6.3 0 016.29-6.26zm1.74 4.3a2.23 2.23 0 012.24 2.22 2.28 2.28 0 01-.64 1.58l.76.52a2.8 2.8 0 01-2.28 1.18 2.75 2.75 0 01-.08-5.5z"/></g></svg>