<svg width="10" height="11" viewBox="0 0 10 11" xmlns="http://www.w3.org/2000/svg">
<path d="M9.70469 2.70469C10.0953 2.31406 10.0953 1.67969 9.70469 1.28906C9.31406 0.898438 8.67969 0.898438 8.28906 1.28906L4.99844 4.58281L1.70469 1.29219C1.31406 0.901562 0.679688 0.901562 0.289062 1.29219C-0.101562 1.68281 -0.101562 2.31719 0.289062 2.70781L3.58281 5.99844L0.292187 9.29219C-0.0984375 9.68281 -0.0984375 10.3172 0.292187 10.7078C0.682812 11.0984 1.31719 11.0984 1.70781 10.7078L4.99844 7.41406L8.29219 10.7047C8.68281 11.0953 9.31719 11.0953 9.70781 10.7047C10.0984 10.3141 10.0984 9.67969 9.70781 9.28906L6.41406 5.99844L9.70469 2.70469Z"/>
</svg>