<?xml version="1.0" encoding="utf-8"?>
<!-- Generator: Adobe Illustrator 25.3.1, SVG Export Plug-In . SVG Version: 6.00 Build 0)  -->
<svg width="29" height="26" viewBox="0 0 29 26" fill="none" xmlns="http://www.w3.org/2000/svg">
<path d="M0 1.21875C0 0.543359 0.536651 0 1.2037 0H3.48572C4.58912 0 5.56713 0.65 6.02353 1.625H26.637C27.956 1.625 28.919 2.89453 28.5729 4.18438L26.5166 11.9184C26.0903 13.5129 24.6609 14.625 23.0309 14.625H8.56134L8.83218 16.0723C8.94251 16.6461 9.43904 17.0625 10.0158 17.0625H24.4753C25.1424 17.0625 25.679 17.6059 25.679 18.2812C25.679 18.9566 25.1424 19.5 24.4753 19.5H10.0158C8.28048 19.5 6.79089 18.2508 6.46991 16.5293L3.88194 2.76758C3.84684 2.57461 3.68133 2.4375 3.48572 2.4375H1.2037C0.536651 2.4375 0 1.89414 0 1.21875ZM6.41975 23.5625C6.41975 23.2424 6.48202 22.9254 6.603 22.6297C6.72399 22.334 6.90132 22.0653 7.12487 21.8389C7.34841 21.6126 7.6138 21.433 7.90588 21.3105C8.19796 21.188 8.51101 21.125 8.82716 21.125C9.1433 21.125 9.45635 21.188 9.74843 21.3105C10.0405 21.433 10.3059 21.6126 10.5295 21.8389C10.753 22.0653 10.9303 22.334 11.0513 22.6297C11.1723 22.9254 11.2346 23.2424 11.2346 23.5625C11.2346 23.8826 11.1723 24.1996 11.0513 24.4953C10.9303 24.791 10.753 25.0597 10.5295 25.2861C10.3059 25.5124 10.0405 25.692 9.74843 25.8145C9.45635 25.937 9.1433 26 8.82716 26C8.51101 26 8.19796 25.937 7.90588 25.8145C7.6138 25.692 7.34841 25.5124 7.12487 25.2861C6.90132 25.0597 6.72399 24.791 6.603 24.4953C6.48202 24.1996 6.41975 23.8826 6.41975 23.5625ZM23.2716 21.125C23.9101 21.125 24.5224 21.3818 24.9739 21.8389C25.4254 22.296 25.679 22.916 25.679 23.5625C25.679 24.209 25.4254 24.829 24.9739 25.2861C24.5224 25.7432 23.9101 26 23.2716 26C22.6331 26 22.0208 25.7432 21.5693 25.2861C21.1178 24.829 20.8642 24.209 20.8642 23.5625C20.8642 22.916 21.1178 22.296 21.5693 21.8389C22.0208 21.3818 22.6331 21.125 23.2716 21.125Z" />
</svg>

