

<svg width="20" height="20" viewBox="0 0 20 20" xmlns="http://www.w3.org/2000/svg">
<path d="M18.8242 3.82422C19.5566 3.0918 19.5566 1.90234 18.8242 1.16992C18.0918 0.4375 16.9023 0.4375 16.1699 1.16992L10 7.3457L3.82422 1.17578C3.0918 0.443359 1.90234 0.443359 1.16992 1.17578C0.4375 1.9082 0.4375 3.09766 1.16992 3.83008L7.3457 10L1.17578 16.1758C0.443359 16.9082 0.443359 18.0977 1.17578 18.8301C1.9082 19.5625 3.09766 19.5625 3.83008 18.8301L10 12.6543L16.1758 18.8242C16.9082 19.5566 18.0977 19.5566 18.8301 18.8242C19.5625 18.0918 19.5625 16.9023 18.8301 16.1699L12.6543 10L18.8242 3.82422Z"/>
</svg>
