<svg width="21" height="21" viewBox="0 0 21 21" xmlns="http://www.w3.org/2000/svg">
<path d="M19.7075 19.8875C19.3167 20.2804 18.6844 20.2804 18.2931 19.8875L10.0012 11.5504L1.70748 19.8875C1.31667 20.2804 0.684359 20.2804 0.293109 19.8875C-0.0977031 19.4947 -0.0977031 18.859 0.293109 18.4657L8.58873 10.1306L0.294359 1.7935C-0.0964531 1.40065 -0.0964531 0.765033 0.294359 0.37174C0.685172 -0.0211136 1.31748 -0.0211136 1.70873 0.37174L10.0012 8.71069L18.295 0.373625C18.6858 -0.0192289 19.3181 -0.0192289 19.7094 0.373625C20.1002 0.766478 20.1002 1.40209 19.7094 1.79539L11.4137 10.1306L19.7075 18.4676C20.1012 18.8572 20.1012 19.498 19.7075 19.8875Z"/>
</svg>
