<svg width="18" height="18" viewBox="0 0 18 18" xmlns="http://www.w3.org/2000/svg">
<path d="M6.75 2.125C6.75 1.08984 7.58984 0.25 8.625 0.25H9.875C10.9102 0.25 11.75 1.08984 11.75 2.125V15.875C11.75 16.9102 10.9102 17.75 9.875 17.75H8.625C7.58984 17.75 6.75 16.9102 6.75 15.875V2.125ZM0.5 9.625C0.5 8.58984 1.33984 7.75 2.375 7.75H3.625C4.66016 7.75 5.5 8.58984 5.5 9.625V15.875C5.5 16.9102 4.66016 17.75 3.625 17.75H2.375C1.33984 17.75 0.5 16.9102 0.5 15.875V9.625ZM14.875 2.75H16.125C17.1602 2.75 18 3.58984 18 4.625V15.875C18 16.9102 17.1602 17.75 16.125 17.75H14.875C13.8398 17.75 13 16.9102 13 15.875V4.625C13 3.58984 13.8398 2.75 14.875 2.75Z" />
</svg>
