<svg xmlns="http://www.w3.org/2000/svg" width="57" height="50" viewBox="0 0 57 50">
<path d="M9.39716 9.37695V12.3066L29.1312 26.8867C30.2178 27.6875 31.5392 28.127 32.8901 28.127C34.2409 28.127 35.5624 27.6973 36.6489 26.8867L56.383 12.3066V9.37695C56.383 9.06445 56.3634 8.76172 56.3145 8.46875L34.7793 24.3867C34.2311 24.7871 33.5655 25.0117 32.8901 25.0117C32.2147 25.0117 31.549 24.7969 31.0009 24.3867L9.46568 8.46875C9.42653 8.76172 9.39716 9.07422 9.39716 9.37695ZM4.69858 11.7207C4.69858 10.4219 3.65119 9.37695 2.34929 9.37695C1.04739 9.37695 0 10.4219 0 11.7207V33.5957C0 40.9297 5.96133 46.877 13.3126 46.877H44.6365C45.9384 46.877 46.9858 45.832 46.9858 44.5332C46.9858 43.2344 45.9384 42.1895 44.6365 42.1895H13.3126C8.55533 42.1895 4.69858 38.3418 4.69858 33.5957V11.7207Z"/>
<path opacity="0.4" d="M9.46696 8.4668L31.0021 24.3848C31.5503 24.7852 32.2159 25.0098 32.8913 25.0098C33.5668 25.0098 34.2324 24.7949 34.7806 24.3848L56.3157 8.4668C55.8752 5.43945 53.2714 3.125 50.1195 3.125H15.6632C12.5112 3.125 9.90745 5.43945 9.46696 8.4668ZM56.3843 12.3047L36.6502 26.8848C35.5637 27.6953 34.2422 28.125 32.8913 28.125C31.5405 28.125 30.219 27.6953 29.1325 26.8848L9.39844 12.3047V31.25C9.39844 34.6973 12.2078 37.5 15.6632 37.5H50.1195C53.5749 37.5 56.3843 34.6973 56.3843 31.25V12.3047Z"/>
</svg>
