<svg width="20" height="5" viewBox="0 0 20 5" xmlns="http://www.w3.org/2000/svg">
<path d="M0 2.5C0 1.83696 0.260884 1.20107 0.725259 0.732233C1.18964 0.263392 1.81946 0 2.47619 0C3.13292 0 3.76275 0.263392 4.22712 0.732233C4.6915 1.20107 4.95238 1.83696 4.95238 2.5C4.95238 3.16304 4.6915 3.79893 4.22712 4.26777C3.76275 4.73661 3.13292 5 2.47619 5C1.81946 5 1.18964 4.73661 0.725259 4.26777C0.260884 3.79893 0 3.16304 0 2.5ZM7.07483 2.5C7.07483 1.83696 7.33571 1.20107 7.80009 0.732233C8.26447 0.263392 8.89429 0 9.55102 0C10.2077 0 10.8376 0.263392 11.302 0.732233C11.7663 1.20107 12.0272 1.83696 12.0272 2.5C12.0272 3.16304 11.7663 3.79893 11.302 4.26777C10.8376 4.73661 10.2077 5 9.55102 5C8.89429 5 8.26447 4.73661 7.80009 4.26777C7.33571 3.79893 7.07483 3.16304 7.07483 2.5ZM16.6259 0C17.2826 0 17.9124 0.263392 18.3768 0.732233C18.8412 1.20107 19.102 1.83696 19.102 2.5C19.102 3.16304 18.8412 3.79893 18.3768 4.26777C17.9124 4.73661 17.2826 5 16.6259 5C15.9691 5 15.3393 4.73661 14.8749 4.26777C14.4105 3.79893 14.1497 3.16304 14.1497 2.5C14.1497 1.83696 14.4105 1.20107 14.8749 0.732233C15.3393 0.263392 15.9691 0 16.6259 0Z"/>
</svg>