<svg width="28" height="28" viewBox="0 0 28 28" xmlns="http://www.w3.org/2000/svg">
<path fill-rule="evenodd" clip-rule="evenodd" d="M14 0C21.732 0 28 6.26801 28 14C28 20.9877 22.8804 26.7796 16.1875 27.8299V18.0469H19.4496L20.0703 14H16.1875V11.375C16.1875 11.1326 16.2134 10.8917 16.2722 10.6631C16.4484 9.977 16.92 9.40235 17.8717 9.23604C18.053 9.20436 18.2517 9.1875 18.4691 9.1875H20.2344V5.74219C20.2344 5.74219 18.6318 5.46875 17.1005 5.46875C13.9026 5.46875 11.8125 7.40688 11.8125 10.9156V14H8.25781V18.0469H11.8125V27.8299C5.11957 26.7796 0 20.9877 0 14C0 6.26801 6.26801 0 14 0Z"/></svg>
