<svg width="20" height="21" viewBox="0 0 20 21" xmlns="http://www.w3.org/2000/svg">
<path d="M1.56239 3C0.945202 3 0.386608 3.36328 0.136608 3.92578C-0.113392 4.48828 -0.0118293 5.14844 0.402233 5.60547L4.37489 10.0234V14.875C4.37489 15.2695 4.55848 15.6406 4.87489 15.875L7.37489 17.75C7.7538 18.0352 8.26161 18.0781 8.68348 17.8672C9.10536 17.6563 9.37489 17.2227 9.37489 16.75V10.0234L13.3475 5.60938C13.7616 5.15234 13.8632 4.49219 13.6132 3.92969C13.3632 3.36719 12.8046 3 12.1874 3H1.56239ZM13.7499 15.5C13.0585 15.5 12.4999 16.0586 12.4999 16.75C12.4999 17.4414 13.0585 18 13.7499 18H18.7499C19.4413 18 19.9999 17.4414 19.9999 16.75C19.9999 16.0586 19.4413 15.5 18.7499 15.5H13.7499ZM12.4999 10.5C12.4999 11.1914 13.0585 11.75 13.7499 11.75H18.7499C19.4413 11.75 19.9999 11.1914 19.9999 10.5C19.9999 9.80859 19.4413 9.25 18.7499 9.25H13.7499C13.0585 9.25 12.4999 9.80859 12.4999 10.5ZM16.2499 3C15.5585 3 14.9999 3.55859 14.9999 4.25C14.9999 4.94141 15.5585 5.5 16.2499 5.5H18.7499C19.4413 5.5 19.9999 4.94141 19.9999 4.25C19.9999 3.55859 19.4413 3 18.7499 3H16.2499Z"/>
</svg>
