<svg width="16" height="15" viewBox="0 0 16 15" xmlns="http://www.w3.org/2000/svg">
    <path d="M9.81944 2.29978C10.0306 1.94145 10.4139 1.72201 10.8278 1.72201H10.8889C11.5028 1.72201 12 2.21923 12 2.83312C12 3.44701 11.5028 3.94423 10.8889 3.94423H8.88889H8.85278L9.81944 2.29978ZM6.18056 2.29978L7.14722 3.94423H7.11111H5.11111C4.49722 3.94423 4 3.44701 4 2.83312C4 2.21923 4.49722 1.72201 5.11111 1.72201H5.17222C5.58611 1.72201 5.97222 1.94145 6.18056 2.29978ZM8.66945 1.62478L8 2.76367L7.33056 1.62478C6.88056 0.858116 6.05833 0.388672 5.17222 0.388672H5.11111C3.76111 0.388672 2.66667 1.48312 2.66667 2.83312C2.66667 3.23312 2.76389 3.61089 2.93333 3.94423H1.77778C0.797222 3.94423 0 4.74145 0 5.72201V12.8331C0 13.8137 0.797222 14.6109 1.77778 14.6109H14.2222C15.2028 14.6109 16 13.8137 16 12.8331V5.72201C16 4.74145 15.2028 3.94423 14.2222 3.94423H13.0667C13.2361 3.61089 13.3333 3.23312 13.3333 2.83312C13.3333 1.48312 12.2389 0.388672 10.8889 0.388672H10.8278C9.94167 0.388672 9.11944 0.858116 8.66945 1.62201V1.62478ZM14.2222 11.0553V12.8331H1.77778V11.0553H14.2222ZM14.2222 9.27756H1.77778V5.72201H6.39167L5.26667 7.07201C5.03056 7.35534 5.06944 7.77478 5.35278 8.01089C5.63611 8.247 6.05556 8.20812 6.29167 7.92478L8 5.87478L9.71111 7.92756C9.94722 8.21089 10.3667 8.24978 10.65 8.01367C10.9333 7.77756 10.9722 7.35812 10.7361 7.07478L9.60833 5.72201H14.2222V9.27756Z" />
</svg>
