<svg width="18" height="18" viewBox="0 0 18 18" xmlns="http://www.w3.org/2000/svg">
<path d="M0 0.875C0 0.53125 0.28125 0.25 0.625 0.25H1.875C2.21875 0.25 2.5 0.53125 2.5 0.875V2.125C2.5 2.46875 2.21875 2.75 1.875 2.75H0.625C0.28125 2.75 0 2.46875 0 2.125V0.875ZM0 4.625C0 4.28125 0.28125 4 0.625 4H1.875C2.21875 4 2.5 4.28125 2.5 4.625V5.875C2.5 6.21875 2.21875 6.5 1.875 6.5H0.625C0.28125 6.5 0 6.21875 0 5.875V4.625ZM0.625 7.75H1.875C2.21875 7.75 2.5 8.03125 2.5 8.375V9.625C2.5 9.96875 2.21875 10.25 1.875 10.25H0.625C0.28125 10.25 0 9.96875 0 9.625V8.375C0 8.03125 0.28125 7.75 0.625 7.75ZM0 12.125C0 11.7812 0.28125 11.5 0.625 11.5H1.875C2.21875 11.5 2.5 11.7812 2.5 12.125V13.375C2.5 13.7188 2.21875 14 1.875 14H0.625C0.28125 14 0 13.7188 0 13.375V12.125ZM0.625 15.25H1.875C2.21875 15.25 2.5 15.5312 2.5 15.875V17.125C2.5 17.4688 2.21875 17.75 1.875 17.75H0.625C0.28125 17.75 0 17.4688 0 17.125V15.875C0 15.5312 0.28125 15.25 0.625 15.25ZM3.75 0.875C3.75 0.53125 4.03125 0.25 4.375 0.25H5.625C5.96875 0.25 6.25 0.53125 6.25 0.875V2.125C6.25 2.46875 5.96875 2.75 5.625 2.75H4.375C4.03125 2.75 3.75 2.46875 3.75 2.125V0.875ZM4.375 4H5.625C5.96875 4 6.25 4.28125 6.25 4.625V5.875C6.25 6.21875 5.96875 6.5 5.625 6.5H4.375C4.03125 6.5 3.75 6.21875 3.75 5.875V4.625C3.75 4.28125 4.03125 4 4.375 4ZM3.75 8.375C3.75 8.03125 4.03125 7.75 4.375 7.75H5.625C5.96875 7.75 6.25 8.03125 6.25 8.375V9.625C6.25 9.96875 5.96875 10.25 5.625 10.25H4.375C4.03125 10.25 3.75 9.96875 3.75 9.625V8.375ZM4.375 11.5H5.625C5.96875 11.5 6.25 11.7812 6.25 12.125V13.375C6.25 13.7188 5.96875 14 5.625 14H4.375C4.03125 14 3.75 13.7188 3.75 13.375V12.125C3.75 11.7812 4.03125 11.5 4.375 11.5ZM3.75 15.875C3.75 15.5312 4.03125 15.25 4.375 15.25H5.625C5.96875 15.25 6.25 15.5312 6.25 15.875V17.125C6.25 17.4688 5.96875 17.75 5.625 17.75H4.375C4.03125 17.75 3.75 17.4688 3.75 17.125V15.875ZM8.125 0.25H9.375C9.71875 0.25 10 0.53125 10 0.875V2.125C10 2.46875 9.71875 2.75 9.375 2.75H8.125C7.78125 2.75 7.5 2.46875 7.5 2.125V0.875C7.5 0.53125 7.78125 0.25 8.125 0.25ZM7.5 4.625C7.5 4.28125 7.78125 4 8.125 4H9.375C9.71875 4 10 4.28125 10 4.625V5.875C10 6.21875 9.71875 6.5 9.375 6.5H8.125C7.78125 6.5 7.5 6.21875 7.5 5.875V4.625ZM8.125 7.75H9.375C9.71875 7.75 10 8.03125 10 8.375V9.625C10 9.96875 9.71875 10.25 9.375 10.25H8.125C7.78125 10.25 7.5 9.96875 7.5 9.625V8.375C7.5 8.03125 7.78125 7.75 8.125 7.75ZM7.5 12.125C7.5 11.7812 7.78125 11.5 8.125 11.5H9.375C9.71875 11.5 10 11.7812 10 12.125V13.375C10 13.7188 9.71875 14 9.375 14H8.125C7.78125 14 7.5 13.7188 7.5 13.375V12.125ZM8.125 15.25H9.375C9.71875 15.25 10 15.5312 10 15.875V17.125C10 17.4688 9.71875 17.75 9.375 17.75H8.125C7.78125 17.75 7.5 17.4688 7.5 17.125V15.875C7.5 15.5312 7.78125 15.25 8.125 15.25ZM11.25 0.875C11.25 0.53125 11.5312 0.25 11.875 0.25H13.125C13.4688 0.25 13.75 0.53125 13.75 0.875V2.125C13.75 2.46875 13.4688 2.75 13.125 2.75H11.875C11.5312 2.75 11.25 2.46875 11.25 2.125V0.875ZM11.875 4H13.125C13.4688 4 13.75 4.28125 13.75 4.625V5.875C13.75 6.21875 13.4688 6.5 13.125 6.5H11.875C11.5312 6.5 11.25 6.21875 11.25 5.875V4.625C11.25 4.28125 11.5312 4 11.875 4ZM11.25 8.375C11.25 8.03125 11.5312 7.75 11.875 7.75H13.125C13.4688 7.75 13.75 8.03125 13.75 8.375V9.625C13.75 9.96875 13.4688 10.25 13.125 10.25H11.875C11.5312 10.25 11.25 9.96875 11.25 9.625V8.375ZM11.875 11.5H13.125C13.4688 11.5 13.75 11.7812 13.75 12.125V13.375C13.75 13.7188 13.4688 14 13.125 14H11.875C11.5312 14 11.25 13.7188 11.25 13.375V12.125C11.25 11.7812 11.5312 11.5 11.875 11.5ZM11.25 15.875C11.25 15.5312 11.5312 15.25 11.875 15.25H13.125C13.4688 15.25 13.75 15.5312 13.75 15.875V17.125C13.75 17.4688 13.4688 17.75 13.125 17.75H11.875C11.5312 17.75 11.25 17.4688 11.25 17.125V15.875ZM15.625 0.25H16.875C17.2188 0.25 17.5 0.53125 17.5 0.875V2.125C17.5 2.46875 17.2188 2.75 16.875 2.75H15.625C15.2812 2.75 15 2.46875 15 2.125V0.875C15 0.53125 15.2812 0.25 15.625 0.25ZM15 4.625C15 4.28125 15.2812 4 15.625 4H16.875C17.2188 4 17.5 4.28125 17.5 4.625V5.875C17.5 6.21875 17.2188 6.5 16.875 6.5H15.625C15.2812 6.5 15 6.21875 15 5.875V4.625ZM15.625 7.75H16.875C17.2188 7.75 17.5 8.03125 17.5 8.375V9.625C17.5 9.96875 17.2188 10.25 16.875 10.25H15.625C15.2812 10.25 15 9.96875 15 9.625V8.375C15 8.03125 15.2812 7.75 15.625 7.75ZM15 12.125C15 11.7812 15.2812 11.5 15.625 11.5H16.875C17.2188 11.5 17.5 11.7812 17.5 12.125V13.375C17.5 13.7188 17.2188 14 16.875 14H15.625C15.2812 14 15 13.7188 15 13.375V12.125ZM15.625 15.25H16.875C17.2188 15.25 17.5 15.5312 17.5 15.875V17.125C17.5 17.4688 17.2188 17.75 16.875 17.75H15.625C15.2812 17.75 15 17.4688 15 17.125V15.875C15 15.5312 15.2812 15.25 15.625 15.25Z"/>
</svg>
