<svg width="18" height="18" viewBox="0 0 18 18" xmlns="http://www.w3.org/2000/svg">
<path d="M0 1.8125C0 0.949219 0.699219 0.25 1.5625 0.25H3.4375C4.30078 0.25 5 0.949219 5 1.8125V3.6875C5 4.55078 4.30078 5.25 3.4375 5.25H1.5625C0.699219 5.25 0 4.55078 0 3.6875V1.8125ZM0 8.0625C0 7.19922 0.699219 6.5 1.5625 6.5H3.4375C4.30078 6.5 5 7.19922 5 8.0625V9.9375C5 10.8008 4.30078 11.5 3.4375 11.5H1.5625C0.699219 11.5 0 10.8008 0 9.9375V8.0625ZM5 14.3125V16.1875C5 17.0508 4.30078 17.75 3.4375 17.75H1.5625C0.699219 17.75 0 17.0508 0 16.1875V14.3125C0 13.4492 0.699219 12.75 1.5625 12.75H3.4375C4.30078 12.75 5 13.4492 5 14.3125ZM6.25 1.8125C6.25 0.949219 6.94922 0.25 7.8125 0.25H9.6875C10.5508 0.25 11.25 0.949219 11.25 1.8125V3.6875C11.25 4.55078 10.5508 5.25 9.6875 5.25H7.8125C6.94922 5.25 6.25 4.55078 6.25 3.6875V1.8125ZM11.25 8.0625V9.9375C11.25 10.8008 10.5508 11.5 9.6875 11.5H7.8125C6.94922 11.5 6.25 10.8008 6.25 9.9375V8.0625C6.25 7.19922 6.94922 6.5 7.8125 6.5H9.6875C10.5508 6.5 11.25 7.19922 11.25 8.0625ZM6.25 14.3125C6.25 13.4492 6.94922 12.75 7.8125 12.75H9.6875C10.5508 12.75 11.25 13.4492 11.25 14.3125V16.1875C11.25 17.0508 10.5508 17.75 9.6875 17.75H7.8125C6.94922 17.75 6.25 17.0508 6.25 16.1875V14.3125ZM17.5 1.8125V3.6875C17.5 4.55078 16.8008 5.25 15.9375 5.25H14.0625C13.1992 5.25 12.5 4.55078 12.5 3.6875V1.8125C12.5 0.949219 13.1992 0.25 14.0625 0.25H15.9375C16.8008 0.25 17.5 0.949219 17.5 1.8125ZM12.5 8.0625C12.5 7.19922 13.1992 6.5 14.0625 6.5H15.9375C16.8008 6.5 17.5 7.19922 17.5 8.0625V9.9375C17.5 10.8008 16.8008 11.5 15.9375 11.5H14.0625C13.1992 11.5 12.5 10.8008 12.5 9.9375V8.0625ZM17.5 14.3125V16.1875C17.5 17.0508 16.8008 17.75 15.9375 17.75H14.0625C13.1992 17.75 12.5 17.0508 12.5 16.1875V14.3125C12.5 13.4492 13.1992 12.75 14.0625 12.75H15.9375C16.8008 12.75 17.5 13.4492 17.5 14.3125Z"/>
</svg>
