<svg width="18" height="18" viewBox="0 0 18 18" xmlns="http://www.w3.org/2000/svg">
<path d="M7.5 2.125C7.5 1.08984 6.66016 0.25 5.625 0.25H1.875C0.839844 0.25 0 1.08984 0 2.125V5.875C0 6.91016 0.839844 7.75 1.875 7.75H5.625C6.66016 7.75 7.5 6.91016 7.5 5.875V2.125ZM7.5 12.125C7.5 11.0898 6.66016 10.25 5.625 10.25H1.875C0.839844 10.25 0 11.0898 0 12.125V15.875C0 16.9102 0.839844 17.75 1.875 17.75H5.625C6.66016 17.75 7.5 16.9102 7.5 15.875V12.125ZM10 2.125V5.875C10 6.91016 10.8398 7.75 11.875 7.75H15.625C16.6602 7.75 17.5 6.91016 17.5 5.875V2.125C17.5 1.08984 16.6602 0.25 15.625 0.25H11.875C10.8398 0.25 10 1.08984 10 2.125ZM17.5 12.125C17.5 11.0898 16.6602 10.25 15.625 10.25H11.875C10.8398 10.25 10 11.0898 10 12.125V15.875C10 16.9102 10.8398 17.75 11.875 17.75H15.625C16.6602 17.75 17.5 16.9102 17.5 15.875V12.125Z"/>
</svg>
