<svg width="18" height="18" viewBox="0 0 18 18" xmlns="http://www.w3.org/2000/svg">
<path d="M0 0.875V3.125C0 3.46875 0.28125 3.75 0.625 3.75H2.875C3.21875 3.75 3.5 3.46875 3.5 3.125V0.875C3.5 0.53125 3.21875 0.25 2.875 0.25H0.625C0.28125 0.25 0 0.53125 0 0.875ZM0 5.54297V7.79297C0 8.13672 0.28125 8.41797 0.625 8.41797H2.875C3.21875 8.41797 3.5 8.13672 3.5 7.79297V5.54297C3.5 5.19922 3.21875 4.91797 2.875 4.91797H0.625C0.28125 4.91797 0 5.19922 0 5.54297ZM0.625 9.58203C0.28125 9.58203 0 9.86328 0 10.207V12.457C0 12.8008 0.28125 13.082 0.625 13.082H2.875C3.21875 13.082 3.5 12.8008 3.5 12.457V10.207C3.5 9.86328 3.21875 9.58203 2.875 9.58203H0.625ZM0 14.875V17.125C0 17.4688 0.28125 17.75 0.625 17.75H2.875C3.21875 17.75 3.5 17.4688 3.5 17.125V14.875C3.5 14.5312 3.21875 14.25 2.875 14.25H0.625C0.28125 14.25 0 14.5312 0 14.875ZM4.66797 0.875V3.125C4.66797 3.46875 4.94922 3.75 5.29297 3.75H7.54297C7.88672 3.75 8.16797 3.46875 8.16797 3.125V0.875C8.16797 0.53125 7.88672 0.25 7.54297 0.25H5.29297C4.94922 0.25 4.66797 0.53125 4.66797 0.875ZM4.66797 5.54297V7.79297C4.66797 8.13672 4.94922 8.41797 5.29297 8.41797H7.54297C7.88672 8.41797 8.16797 8.13672 8.16797 7.79297V5.54297C8.16797 5.19922 7.88672 4.91797 7.54297 4.91797H5.29297C4.94922 4.91797 4.66797 5.19922 4.66797 5.54297ZM5.29297 9.58594C4.94922 9.58594 4.66797 9.86719 4.66797 10.2109V12.4609C4.66797 12.8047 4.94922 13.0859 5.29297 13.0859H7.54297C7.88672 13.0859 8.16797 12.8047 8.16797 12.4609V10.207C8.16797 9.86328 7.88672 9.58203 7.54297 9.58203H5.29297V9.58594ZM4.66797 14.8789V17.125C4.66797 17.4688 4.94922 17.75 5.29297 17.75H7.54297C7.88672 17.75 8.16797 17.4688 8.16797 17.125V14.875C8.16797 14.5312 7.88672 14.25 7.54297 14.25H5.29297C4.94922 14.25 4.66797 14.5312 4.66797 14.875V14.8789ZM9.95703 0.25C9.61328 0.25 9.33203 0.53125 9.33203 0.875V3.125C9.33203 3.46875 9.61328 3.75 9.95703 3.75H12.207C12.5508 3.75 12.832 3.46875 12.832 3.125V0.875C12.832 0.53125 12.5508 0.25 12.207 0.25H9.95703ZM9.95703 4.91797C9.61328 4.91797 9.33203 5.19922 9.33203 5.54297V7.79297C9.33203 8.13672 9.61328 8.41797 9.95703 8.41797H12.207C12.5508 8.41797 12.832 8.13672 12.832 7.79297V5.54297C12.832 5.19922 12.5508 4.91797 12.207 4.91797H9.95703ZM9.33203 10.2109V12.4609C9.33203 12.8047 9.61328 13.0859 9.95703 13.0859H12.207C12.5508 13.0859 12.832 12.8047 12.832 12.4609V10.207C12.832 9.86328 12.5508 9.58203 12.207 9.58203H9.95703C9.61328 9.58203 9.33203 9.86328 9.33203 10.207V10.2109ZM9.95703 14.2539C9.61328 14.2539 9.33203 14.5352 9.33203 14.8789V17.125C9.33203 17.4688 9.61328 17.75 9.95703 17.75H12.207C12.5508 17.75 12.832 17.4688 12.832 17.125V14.875C12.832 14.5312 12.5508 14.25 12.207 14.25H9.95703V14.2539ZM14 0.875V3.125C14 3.46875 14.2812 3.75 14.625 3.75H16.875C17.2188 3.75 17.5 3.46875 17.5 3.125V0.875C17.5 0.53125 17.2188 0.25 16.875 0.25H14.625C14.2812 0.25 14 0.53125 14 0.875ZM14 5.54297V7.79297C14 8.13672 14.2812 8.41797 14.625 8.41797H16.875C17.2188 8.41797 17.5 8.13672 17.5 7.79297V5.54297C17.5 5.19922 17.2188 4.91797 16.875 4.91797H14.625C14.2812 4.91797 14 5.19922 14 5.54297ZM14.625 9.58594C14.2812 9.58594 14 9.86719 14 10.2109V12.4609C14 12.8047 14.2812 13.0859 14.625 13.0859H16.875C17.2188 13.0859 17.5 12.8047 17.5 12.4609V10.207C17.5 9.86328 17.2188 9.58203 16.875 9.58203H14.625V9.58594ZM14 14.8789V17.125C14 17.4688 14.2812 17.75 14.625 17.75H16.875C17.2188 17.75 17.5 17.4688 17.5 17.125V14.875C17.5 14.5312 17.2188 14.25 16.875 14.25H14.625C14.2812 14.25 14 14.5312 14 14.875V14.8789Z"/>
</svg>
