<?xml version="1.0" encoding="UTF-8"?>
<svg width="23" height="18" viewBox="0 0 23 18" fill="none" xmlns="http://www.w3.org/2000/svg">
<path d="M1.725 0.14447C0.772656 0.14447 0 0.869237 0 1.76256V12.5498C0 13.4431 0.772656 14.1679 1.725 14.1679H2.3C2.3 15.9545 3.84531 17.404 5.75 17.404C7.65469 17.404 9.2 15.9545 9.2 14.1679H13.8C13.8 15.9545 15.3453 17.404 17.25 17.404C19.1547 17.404 20.7 15.9545 20.7 14.1679H21.85C22.4861 14.1679 23 13.6858 23 13.0891C23 12.4925 22.4861 12.0104 21.85 12.0104V9.85298V8.77426V8.14388C21.85 7.57081 21.6092 7.02133 21.178 6.61681L18.4 4.01102C17.9688 3.6065 17.383 3.38064 16.772 3.38064H14.95V1.76256C14.95 0.869237 14.1773 0.14447 13.225 0.14447H1.725ZM14.95 5.53809H16.772L19.55 8.14388V8.77426H14.95V5.53809ZM4.025 14.1679C4.025 13.7387 4.20674 13.3272 4.53024 13.0237C4.85374 12.7203 5.2925 12.5498 5.75 12.5498C6.2075 12.5498 6.64626 12.7203 6.96976 13.0237C7.29326 13.3272 7.475 13.7387 7.475 14.1679C7.475 14.597 7.29326 15.0086 6.96976 15.312C6.64626 15.6155 6.2075 15.786 5.75 15.786C5.2925 15.786 4.85374 15.6155 4.53024 15.312C4.20674 15.0086 4.025 14.597 4.025 14.1679ZM17.25 12.5498C17.7075 12.5498 18.1463 12.7203 18.4698 13.0237C18.7933 13.3272 18.975 13.7387 18.975 14.1679C18.975 14.597 18.7933 15.0086 18.4698 15.312C18.1463 15.6155 17.7075 15.786 17.25 15.786C16.7925 15.786 16.3537 15.6155 16.0302 15.312C15.7067 15.0086 15.525 14.597 15.525 14.1679C15.525 13.7387 15.7067 13.3272 16.0302 13.0237C16.3537 12.7203 16.7925 12.5498 17.25 12.5498Z" />
</svg>
