<svg width="28" height="28" viewBox="0 0 28 28" xmlns="http://www.w3.org/2000/svg">
<path d="M17.5 0C16.532 0 15.75 0.782031 15.75 1.75C15.75 2.71797 16.532 3.5 17.5 3.5H22.0227L11.0141 14.5141C10.3305 15.1977 10.3305 16.3078 11.0141 16.9914C11.6977 17.675 12.8078 17.675 13.4914 16.9914L24.5 5.97734V10.5C24.5 11.468 25.282 12.25 26.25 12.25C27.218 12.25 28 11.468 28 10.5V1.75C28 0.782031 27.218 0 26.25 0H17.5ZM4.375 1.75C1.95781 1.75 0 3.70781 0 6.125V23.625C0 26.0422 1.95781 28 4.375 28H21.875C24.2922 28 26.25 26.0422 26.25 23.625V17.5C26.25 16.532 25.468 15.75 24.5 15.75C23.532 15.75 22.75 16.532 22.75 17.5V23.625C22.75 24.1063 22.3563 24.5 21.875 24.5H4.375C3.89375 24.5 3.5 24.1063 3.5 23.625V6.125C3.5 5.64375 3.89375 5.25 4.375 5.25H10.5C11.468 5.25 12.25 4.46797 12.25 3.5C12.25 2.53203 11.468 1.75 10.5 1.75H4.375Z"/>
</svg>
