<svg xmlns="http://www.w3.org/2000/svg" width="63" height="50" viewBox="0 0 63 50">
<path d="M62.2969 48.7305C62.502 48.9458 62.5576 49.2651 62.4376 49.5463C62.3164 49.834 62.0527 50 61.75 50C58.21 50 55.1973 49.0254 52.8154 47.8535C50.1289 49.1309 47.043 50 43.752 50C34.9619 50 27.6094 44.4473 25.5781 36.9629C35.9688 34.8828 43.752 26.8164 43.752 17.1875C43.752 16.6614 43.7064 16.1455 43.6608 15.6289C43.6934 15.625 43.7227 15.625 43.752 15.625C54.1035 15.625 62.502 23.3203 62.502 32.8125C62.502 36.7803 61.0205 40.4248 58.5557 43.3301C60.1484 46.416 62.2676 48.7012 62.2969 48.7305Z"/>
<path opacity="0.4" d="M20.3127 0C9.09491 0 0.000181051 7.69531 0.000181051 17.1875C0.000181051 21.0518 1.52557 24.6055 4.06952 27.4805C2.46893 30.6797 0.238462 33.0781 0.203306 33.1133C-0.00177207 33.3286 -0.0574361 33.6479 0.0625834 33.9291C0.185728 34.209 0.449595 34.375 0.748228 34.375C4.49334 34.375 7.65838 33.2891 10.0978 32.0273C13.1056 33.5059 16.5822 34.375 20.3127 34.375C31.5334 34.375 40.6252 26.6797 40.6252 17.1875C40.6252 7.69531 31.5334 0 20.3127 0Z"/>
</svg>
