<svg width="51" height="35" viewBox="0 0 51 35" xmlns="http://www.w3.org/2000/svg">
<rect x="0.56897" y="0.5" width="49.6897" height="34" rx="3.5" fill="white" stroke="#F3F3F3"/>
<path fill-rule="evenodd" clip-rule="evenodd" d="M33.6195 17.5974H33.6408H33.6819H33.7231H33.7643H33.8054H33.8466H33.8877H33.9289H33.9701H34.0112H34.0524H34.0936H34.1347H34.1759H34.217H34.2582H34.2993H34.3405H34.3817H34.4228H34.464H34.5052H34.5463H34.5875H34.6286H34.6698H34.711H34.7521H34.7933H34.8345H34.8756H34.9168H34.9579H34.9991H35.0403H35.0814H35.1226H35.1638H35.2049H35.2461H35.2872H35.3284H35.3695H35.4107H35.4519H35.493H35.5342H35.5754H35.6165H35.6577H35.6988H35.74H35.7812H35.8223H35.8635H35.9047H35.9458H35.987H36.0281H36.0693H36.1035L36.1105 17.5976C36.1232 17.5979 36.137 17.5985 36.1516 17.5992C36.1648 17.5999 36.1786 17.6009 36.1928 17.6019C36.2063 17.6029 36.2201 17.604 36.234 17.6053C36.2478 17.6066 36.2616 17.6079 36.2751 17.6094C36.2893 17.611 36.3031 17.6126 36.3163 17.6144C36.331 17.6164 36.3449 17.6184 36.3574 17.6205C36.3665 17.6221 36.3748 17.6236 36.3823 17.6252L36.3986 17.6289C36.4124 17.6321 36.4261 17.6355 36.4397 17.6393C36.4536 17.6431 36.4673 17.6471 36.4809 17.6514C36.4947 17.6558 36.5085 17.6604 36.5221 17.6653C36.5359 17.6703 36.5496 17.6756 36.5632 17.6811C36.5771 17.6867 36.5908 17.6927 36.6044 17.6988C36.6183 17.7051 36.632 17.7117 36.6456 17.7185C36.6594 17.7255 36.6731 17.7328 36.6867 17.7404C36.7006 17.7482 36.7143 17.7563 36.7279 17.7647C36.7418 17.7733 36.7555 17.7821 36.769 17.7914C36.783 17.8009 36.7967 17.8106 36.8102 17.8207C36.8241 17.8312 36.8379 17.842 36.8514 17.8531C36.8654 17.8647 36.8791 17.8767 36.8925 17.889C36.9066 17.9018 36.9203 17.9149 36.9337 17.9285C36.9478 17.9427 36.9615 17.9575 36.9748 17.9726C36.989 17.9886 37.0027 18.005 37.016 18.022C37.0303 18.0402 37.044 18.0588 37.0572 18.078C37.0716 18.099 37.0853 18.1206 37.0983 18.1427C37.113 18.1676 37.1267 18.1933 37.1395 18.2197C37.1546 18.2509 37.1684 18.2831 37.1807 18.3162C37.1971 18.3607 37.2109 18.4068 37.2218 18.4544C37.2406 18.537 37.2508 18.6239 37.2508 18.7146C37.2508 18.8058 37.2407 18.8931 37.2218 18.9759C37.2109 19.0236 37.1971 19.0699 37.1807 19.1144C37.1684 19.1476 37.1546 19.1799 37.1395 19.2112C37.1267 19.2376 37.113 19.2633 37.0983 19.2883C37.0853 19.3104 37.0716 19.332 37.0572 19.353C37.044 19.3722 37.0303 19.3909 37.016 19.4091C37.0027 19.426 36.989 19.4424 36.9748 19.4584C36.9615 19.4735 36.9478 19.4882 36.9337 19.5025C36.9203 19.516 36.9065 19.5292 36.8925 19.542C36.8791 19.5542 36.8654 19.5661 36.8514 19.5776C36.8379 19.5887 36.8242 19.5995 36.8102 19.61C36.7967 19.62 36.783 19.6298 36.769 19.6392C36.7555 19.6484 36.7418 19.6572 36.7279 19.6658C36.7143 19.6741 36.7006 19.6822 36.6867 19.6899C36.6732 19.6975 36.6594 19.7047 36.6456 19.7117C36.632 19.7185 36.6183 19.725 36.6044 19.7313C36.5908 19.7374 36.5771 19.7432 36.5632 19.7488C36.5496 19.7543 36.5359 19.7595 36.5221 19.7645C36.5085 19.7693 36.4947 19.7739 36.4809 19.7782C36.4673 19.7825 36.4536 19.7864 36.4397 19.7901C36.4261 19.7938 36.4124 19.7972 36.3986 19.8004L36.3823 19.804C36.3748 19.8057 36.3665 19.8074 36.3574 19.809C36.3449 19.8112 36.331 19.8133 36.3163 19.8153C36.3031 19.817 36.2893 19.8187 36.2751 19.8203C36.2616 19.8218 36.2478 19.8231 36.234 19.8243C36.2201 19.8256 36.2063 19.8267 36.1928 19.8277C36.1786 19.8287 36.1648 19.8296 36.1516 19.8302C36.137 19.831 36.1232 19.8315 36.1105 19.8318L36.0884 19.8321H36.0693H36.0281H35.987H35.9458H35.9047H35.8635H35.8223H35.7812H35.74H35.6988H35.6577H35.6165H35.5754H35.5342H35.493H35.4519H35.4107H35.3695H35.3284H35.2872H35.2461H35.2049H35.1638H35.1226H35.0814H35.0403H34.9991H34.9579H34.9168H34.8756H34.8345H34.7933H34.7521H34.711H34.6698H34.6286H34.5875H34.5463H34.5052H34.464H34.4228H34.3817H34.3405H34.2993H34.2582H34.217H34.1759H34.1347H34.0936H34.0524H34.0112H33.9701H33.9289H33.8877H33.8466H33.8054H33.7643H33.7231H33.6819H33.6408H33.6195V17.5974ZM36.9338 15.0682C36.9504 15.1432 36.9593 15.2227 36.9593 15.3063C36.9593 15.3898 36.9504 15.4692 36.9338 15.5442C36.9232 15.5923 36.9094 15.6386 36.8927 15.683C36.8804 15.7154 36.8667 15.7468 36.8515 15.777C36.8388 15.8024 36.825 15.827 36.8104 15.8509C36.7974 15.8719 36.7836 15.8924 36.7692 15.9123C36.756 15.9304 36.7423 15.9479 36.728 15.965C36.7147 15.9808 36.7011 15.9962 36.6869 16.0111C36.6735 16.0252 36.6598 16.0388 36.6457 16.0519C36.6323 16.0645 36.6186 16.0766 36.6045 16.0884C36.5911 16.0997 36.5774 16.1105 36.5634 16.1211C36.5499 16.1312 36.5362 16.141 36.5222 16.1505C36.5087 16.1597 36.495 16.1685 36.4811 16.177C36.4675 16.1852 36.4538 16.1932 36.4399 16.2008C36.4264 16.2083 36.4126 16.2155 36.3988 16.2223C36.3852 16.229 36.3714 16.2354 36.3576 16.2416C36.344 16.2476 36.3303 16.2533 36.3164 16.2587C36.3028 16.264 36.2891 16.269 36.2753 16.2738C36.2617 16.2785 36.2479 16.283 36.2341 16.2871C36.2205 16.2912 36.2068 16.2951 36.1929 16.2986C36.1793 16.3022 36.1656 16.3054 36.1518 16.3084C36.1382 16.3114 36.1244 16.314 36.1106 16.3165L36.1006 16.3182C36.0926 16.3196 36.082 16.3212 36.0695 16.3228C36.0573 16.3243 36.0434 16.3259 36.0283 16.3274C36.0153 16.3287 36.0014 16.33 35.9872 16.3312C35.9737 16.3323 35.9598 16.3333 35.946 16.3341C35.9322 16.335 35.9183 16.3358 35.9048 16.3363C35.8906 16.3369 35.8767 16.3373 35.8637 16.3373L35.8572 16.3374H35.8225H35.7813H35.7402H35.699H35.6579H35.6167H35.5756H35.5344H35.4932H35.4521H35.4109H35.3697H35.3286H35.2874H35.2463H35.2051H35.164H35.1228H35.0816H35.0405H34.9993H34.9581H34.917H34.8758H34.8347H34.7935H34.7524H34.7112H34.67H34.6289H34.5877H34.5465H34.5054H34.4643H34.4231H34.3819H34.3408H34.2996H34.2584H34.2173H34.1761H34.135H34.0938H34.0527H34.0115H33.9703H33.9292H33.888H33.8468H33.8057H33.7645H33.7234H33.6822H33.6411H33.6195V14.2752H33.6411H33.6822H33.7234H33.7645H33.8057H33.8468H33.888H33.9292H33.9703H34.0115H34.0527H34.0938H34.135H34.1761H34.2173H34.2584H34.2996H34.3408H34.3819H34.4231H34.4643H34.5054H34.5465H34.5877H34.6289H34.67H34.7112H34.7524H34.7935H34.8347H34.8758H34.917H34.9581H34.9993H35.0405H35.0816H35.1228H35.164H35.2051H35.2463H35.2874H35.3286H35.3697H35.4109H35.4521H35.4932H35.5344H35.5756H35.6167H35.6579H35.699H35.7402H35.7813H35.8225H35.8637H35.881L35.9048 14.276C35.9183 14.2765 35.9322 14.2773 35.946 14.2782C35.9598 14.2791 35.9737 14.2801 35.9872 14.2812C36.0014 14.2823 36.0153 14.2836 36.0283 14.2849C36.0434 14.2863 36.0573 14.2878 36.0695 14.2892C36.082 14.2906 36.0926 14.292 36.1006 14.2931L36.1106 14.2949C36.1244 14.2973 36.1382 14.3001 36.1518 14.3031C36.1656 14.3061 36.1793 14.3094 36.1929 14.313C36.2068 14.3166 36.2205 14.3204 36.2341 14.3246C36.2479 14.3288 36.2617 14.3332 36.2753 14.3379C36.2891 14.3427 36.3028 14.3478 36.3164 14.3532C36.3303 14.3586 36.344 14.3644 36.3576 14.3704C36.3714 14.3766 36.3852 14.383 36.3988 14.3897C36.4126 14.3966 36.4264 14.4037 36.4399 14.4112C36.4538 14.4188 36.4675 14.4268 36.4811 14.4351C36.495 14.4436 36.5087 14.4524 36.5222 14.4616C36.5362 14.471 36.5499 14.4809 36.5634 14.4911C36.5774 14.5016 36.5911 14.5125 36.6045 14.5238C36.6186 14.5356 36.6323 14.5477 36.6457 14.5603C36.6598 14.5734 36.6735 14.587 36.6869 14.6011C36.7011 14.616 36.7147 14.6314 36.728 14.6472C36.7423 14.6643 36.756 14.6819 36.7692 14.7C36.7836 14.7198 36.7974 14.7403 36.8104 14.7614C36.825 14.7852 36.8388 14.8098 36.8515 14.8352C36.8667 14.8655 36.8804 14.8969 36.8927 14.9293C36.9094 14.9737 36.9232 15.02 36.9338 15.0682ZM42.0384 4.375H42.0553L42.0552 25.5542C42.0552 25.6807 42.0493 25.8059 42.0384 25.9296C42.0288 26.0385 42.015 26.1462 41.9972 26.2526C41.9853 26.324 41.9715 26.3948 41.956 26.465C41.9435 26.5221 41.9297 26.5789 41.9149 26.6351C41.902 26.6836 41.8882 26.7318 41.8737 26.7796C41.8606 26.8228 41.847 26.8658 41.8325 26.9085C41.8194 26.9472 41.8056 26.9855 41.7914 27.0237C41.7781 27.0593 41.7644 27.0946 41.7502 27.1297C41.7369 27.1627 41.7232 27.1954 41.709 27.2279C41.6957 27.2588 41.6819 27.2895 41.6679 27.3199C41.6545 27.3489 41.6407 27.3778 41.6267 27.4064C41.6132 27.4339 41.5996 27.4612 41.5855 27.4883C41.5721 27.5143 41.5583 27.5402 41.5444 27.5659C41.5309 27.5906 41.5171 27.615 41.5032 27.6394C41.4897 27.663 41.476 27.6865 41.462 27.7098C41.4485 27.7325 41.4348 27.755 41.4209 27.7775C41.4073 27.7993 41.3936 27.8211 41.3797 27.8427C41.3662 27.8635 41.3523 27.8842 41.3385 27.9049C41.325 27.9249 41.3112 27.9448 41.2973 27.9647C41.2838 27.9841 41.27 28.0036 41.2562 28.0228C41.2426 28.0416 41.2289 28.0603 41.215 28.0789C41.2015 28.0969 41.1876 28.1148 41.1738 28.1327C41.1602 28.1502 41.1465 28.1678 41.1327 28.1852C41.1191 28.2022 41.1054 28.2191 41.0915 28.2359C41.0779 28.2523 41.0641 28.2686 41.0503 28.2849C41.0367 28.3009 41.0231 28.3171 41.0092 28.3329C40.9956 28.3484 40.9818 28.3637 40.968 28.379C40.9544 28.3941 40.9406 28.4091 40.9268 28.424C40.9132 28.4387 40.8995 28.4534 40.8857 28.4679C40.8721 28.4821 40.8583 28.4961 40.8445 28.5102C40.8308 28.5241 40.8172 28.5382 40.8033 28.5519C40.7897 28.5654 40.7759 28.5786 40.7622 28.5918C40.7485 28.605 40.7348 28.6182 40.721 28.6313C40.7074 28.644 40.6936 28.6567 40.6798 28.6693C40.6662 28.6818 40.6524 28.6942 40.6386 28.7065C40.625 28.7187 40.6113 28.7308 40.5975 28.7428C40.5838 28.7546 40.5701 28.7664 40.5563 28.778C40.5426 28.7896 40.529 28.8012 40.5152 28.8126C40.5015 28.8239 40.4878 28.8349 40.474 28.846C40.4603 28.857 40.4466 28.8681 40.4328 28.8789C40.4192 28.8896 40.4054 28.9001 40.3916 28.9106C40.378 28.9211 40.3643 28.9316 40.3505 28.942C40.3369 28.9521 40.3231 28.9621 40.3093 28.9721C40.2956 28.9821 40.2819 28.9921 40.2681 29.002C40.2545 29.0117 40.2407 29.0211 40.227 29.0306C40.2133 29.0401 40.1996 29.0496 40.1858 29.059C40.1721 29.0682 40.1584 29.0772 40.1446 29.0862C40.131 29.0953 40.1173 29.1043 40.1035 29.1132C40.0898 29.122 40.0761 29.1306 40.0623 29.1392C40.0486 29.1477 40.0349 29.1563 40.0211 29.1647C40.0075 29.1731 39.9938 29.1813 39.98 29.1895L39.9388 29.2137C39.9251 29.2216 39.9114 29.2295 39.8976 29.2373C39.884 29.2451 39.8702 29.2526 39.8565 29.2602C39.8427 29.2678 39.8291 29.2754 39.8153 29.2828C39.8017 29.2901 39.7879 29.2972 39.7741 29.3044C39.7604 29.3115 39.7468 29.3189 39.7329 29.3259C39.7193 29.3329 39.7055 29.3395 39.6918 29.3463C39.6781 29.3531 39.6644 29.36 39.6506 29.3666C39.637 29.3732 39.6232 29.3796 39.6095 29.3861L39.5683 29.4052L39.5271 29.4237C39.5134 29.4298 39.4997 29.4357 39.4859 29.4416C39.4722 29.4475 39.4586 29.4536 39.4448 29.4593C39.4311 29.465 39.4174 29.4704 39.4036 29.476C39.3899 29.4816 39.3762 29.4873 39.3625 29.4927C39.3488 29.4981 39.335 29.5032 39.3213 29.5085C39.3076 29.5137 39.2939 29.5189 39.2801 29.524L39.2389 29.5391C39.2253 29.544 39.2115 29.5487 39.1978 29.5535C39.184 29.5583 39.1704 29.5632 39.1566 29.5679C39.143 29.5724 39.1291 29.5767 39.1154 29.5811L39.0743 29.5944C39.0606 29.5987 39.0468 29.6028 39.0331 29.607L38.9919 29.6192C38.9782 29.6232 38.9645 29.6273 38.9508 29.6311C38.9371 29.635 38.9233 29.6385 38.9096 29.6422C38.8959 29.6459 38.8822 29.6497 38.8684 29.6532L38.8273 29.6636L38.7861 29.6735L38.7449 29.6833C38.7313 29.6864 38.7175 29.6892 38.7038 29.6922C38.69 29.6952 38.6764 29.6982 38.6626 29.7011L38.6214 29.7093L38.5802 29.7171C38.5665 29.7196 38.5528 29.7224 38.5391 29.7248C38.5254 29.7272 38.5116 29.7293 38.4979 29.7316L38.4568 29.7383L38.4156 29.7445L38.3744 29.7502C38.3607 29.7521 38.347 29.7542 38.3332 29.7559C38.3196 29.7577 38.3058 29.759 38.2921 29.7606C38.2784 29.7622 38.2647 29.7638 38.2509 29.7653C38.2372 29.7667 38.2235 29.7682 38.2098 29.7695C38.1961 29.7709 38.1823 29.772 38.1686 29.7732C38.1548 29.7744 38.1411 29.7757 38.1274 29.7768C38.1137 29.7778 38.1 29.7787 38.0862 29.7796L38.0451 29.7822C38.0313 29.783 38.0177 29.784 38.0039 29.7847C37.9902 29.7854 37.9764 29.7857 37.9627 29.7863L37.9216 29.7878L37.8804 29.7889C37.8667 29.7892 37.853 29.7892 37.8392 29.7894L37.7981 29.7899L37.7896 29.79H37.7569H37.7157H37.6746H37.6334H37.5922H37.5511H37.5099H37.4687H37.4275H37.3864H37.3452H37.3041H37.2629H37.2217H37.1805H37.1394H37.0982H37.057H37.0159H36.9747H36.9335H36.8924H36.8512H36.81H36.7689H36.7277H36.6866H36.6454H36.6042H36.563H36.5219H36.4807H36.4395H36.3984H36.3572H36.316H36.2749H36.2337H36.1925H36.1514H36.1102H36.069H36.0279H35.9867H35.9455H35.9043H35.8632H35.822H35.7809H35.7397H35.6985H35.6573H35.6162H35.575H35.5338H35.4927H35.4515H35.4103H35.3692H35.328H35.2868H35.2457H35.2045H35.1633H35.1222H35.081H35.0398H34.9986H34.9575H34.9163H34.8752H34.834H34.7928H34.7516H34.7105H34.6693H34.6282H34.587H34.5458H34.5046H34.4635H34.4223H34.3811H34.34H34.2988H34.2576H34.2165H34.1753H34.1341H34.093H34.0518H34.0106H33.9695H33.9283H33.8871H33.8459H33.8048H33.7636H33.7225H33.6813H33.6401H33.5989H33.5578H33.5166H33.4755H33.4343H33.3931H33.3519H33.3108H33.2696H33.2284H33.1873H33.1461H33.1049H33.0638H33.0226H32.9814H32.9403H32.8991H32.8579H32.8168H32.7756H32.7344H32.6932H32.6521H32.6109H32.5698H32.5286H32.4874H32.4462H32.4051H32.3639H32.3227H32.2816H32.2404H32.1992H32.1581H32.1169H32.0757H32.0346H31.9934H31.9522H31.9111H31.8699H31.8287H31.7875H31.7464H31.7052H31.6641H31.6229H31.5341V21.1545H31.6229H31.6641H31.7052H31.7464H31.7875H31.8287H31.8699H31.9111H31.9522H31.9934H32.0346H32.0757H32.1169H32.1581H32.1992H32.2404H32.2816H32.3227H32.3639H32.4051H32.4462H32.4874H32.5286H32.5698H32.6109H32.6521H32.6932H32.7344H32.7756H32.8168H32.8579H32.8991H32.9403H32.9814H33.0226H33.0638H33.1049H33.1461H33.1873H33.2284H33.2696H33.3108H33.3519H33.3931H33.4343H33.4755H33.5166H33.5578H33.5989H33.6401H33.6813H33.7225H33.7636H33.8048H33.8459H33.8871H33.9283H33.9695H34.0106H34.0518H34.093H34.1341H34.1753H34.2165H34.2576H34.2988H34.34H34.3811H34.4223H34.4635H34.5046H34.5458H34.587H34.6282H34.6693H34.7105H34.7516H34.7928H34.834H34.8752H34.9163H34.9575H34.9986H35.0398H35.081H35.1222H35.1633H35.2045H35.2457H35.2868H35.328H35.3692H35.4103H35.4515H35.4927H35.5338H35.575H35.6162H35.6573H35.6985H35.7397H35.7809H35.822H35.8632H35.9043H35.9455H35.9867H36.0279H36.069H36.1102H36.1514H36.1925H36.2337H36.2749H36.316H36.3572H36.3984H36.4395H36.4807H36.5219H36.563H36.6042H36.6454H36.6866H36.7277H36.7689H36.81H36.8512H36.8924H36.9335H36.9747H37.0159H37.057H37.0982H37.1394H37.1805H37.2217H37.2629H37.3041H37.3452H37.3864H37.4275H37.4687H37.5099H37.5511H37.5922H37.6334H37.6746H37.7157H37.7569H37.7981H37.8392H37.8804H37.9216H37.9627H38.0039H38.0451H38.0862H38.1274H38.1492L38.1686 21.1543L38.2098 21.154L38.2509 21.1532C38.2647 21.1528 38.2784 21.1526 38.2921 21.1521C38.3059 21.1517 38.3195 21.151 38.3332 21.1504L38.3744 21.1485L38.4156 21.146L38.4568 21.1432L38.4979 21.14L38.5391 21.1363C38.5528 21.135 38.5666 21.1337 38.5802 21.1323C38.594 21.1309 38.6077 21.1293 38.6214 21.1277L38.6626 21.1227C38.6764 21.1209 38.6901 21.1192 38.7038 21.1173C38.7175 21.1154 38.7312 21.1133 38.7449 21.1113C38.7587 21.1092 38.7724 21.1072 38.7861 21.105L38.8273 21.0981L38.8684 21.0908C38.8822 21.0882 38.896 21.0858 38.9096 21.0831C38.9234 21.0804 38.9371 21.0775 38.9508 21.0746L38.9919 21.0658C39.0057 21.0627 39.0194 21.0597 39.0331 21.0565C39.0469 21.0533 39.0606 21.0498 39.0743 21.0465C39.088 21.0431 39.1018 21.0396 39.1154 21.0361C39.1292 21.0325 39.143 21.0288 39.1566 21.0251C39.1704 21.0213 39.1841 21.0174 39.1978 21.0134C39.2115 21.0095 39.2253 21.0054 39.2389 21.0013L39.2801 20.9885C39.2939 20.9841 39.3076 20.9796 39.3213 20.975C39.3351 20.9704 39.3488 20.9658 39.3625 20.961C39.3762 20.9562 39.39 20.9514 39.4036 20.9464C39.4175 20.9413 39.4311 20.9361 39.4448 20.9308C39.4586 20.9256 39.4723 20.9202 39.4859 20.9147C39.4997 20.9092 39.5135 20.9037 39.5271 20.898C39.5409 20.8923 39.5546 20.8864 39.5683 20.8804C39.5821 20.8744 39.5958 20.8682 39.6095 20.862C39.6232 20.8557 39.637 20.8493 39.6506 20.8429C39.6644 20.8363 39.6782 20.8297 39.6918 20.823C39.7056 20.8161 39.7193 20.8091 39.7329 20.802C39.7468 20.7949 39.7605 20.7875 39.7741 20.7801C39.788 20.7727 39.8017 20.7651 39.8153 20.7574C39.8291 20.7496 39.8429 20.7417 39.8565 20.7337C39.8703 20.7256 39.8841 20.7174 39.8976 20.709C39.9115 20.7004 39.9252 20.6917 39.9388 20.683C39.9527 20.674 39.9664 20.6649 39.98 20.6558C39.9938 20.6464 40.0075 20.6369 40.0211 20.6274C40.035 20.6176 40.0487 20.6077 40.0623 20.5976C40.0762 20.5874 40.0899 20.577 40.1035 20.5665C40.1173 20.5558 40.1311 20.5449 40.1446 20.5339C40.1585 20.5226 40.1722 20.5112 40.1858 20.4996C40.1997 20.4878 40.2134 20.4757 40.227 20.4636C40.2409 20.451 40.2546 20.4383 40.2681 20.4255C40.2821 20.4123 40.2958 20.3989 40.3093 20.3854C40.3233 20.3714 40.337 20.3572 40.3505 20.3428C40.3645 20.328 40.3782 20.3129 40.3916 20.2977C40.4056 20.2819 40.4194 20.2658 40.4328 20.2496C40.4469 20.2327 40.4606 20.2156 40.474 20.1983C40.488 20.1801 40.5018 20.1618 40.5152 20.1432C40.5293 20.1235 40.5429 20.1034 40.5563 20.0831C40.5705 20.0616 40.5842 20.0399 40.5975 20.0179C40.6118 19.9942 40.6255 19.9701 40.6386 19.9458C40.653 19.9193 40.6668 19.8926 40.6798 19.8654C40.6944 19.835 40.7081 19.8041 40.721 19.7728C40.7358 19.7368 40.7496 19.7004 40.7622 19.6634C40.7777 19.6177 40.7913 19.5711 40.8033 19.5237C40.8209 19.4544 40.8347 19.3833 40.8445 19.3104C40.8564 19.222 40.8627 19.1312 40.8627 19.0378C40.8627 18.9469 40.8565 18.8586 40.8445 18.7728C40.8346 18.7024 40.8208 18.6337 40.8033 18.5668C40.7913 18.5213 40.7776 18.4766 40.7622 18.4327C40.7495 18.3968 40.7358 18.3613 40.721 18.3266C40.7081 18.2964 40.6944 18.2667 40.6798 18.2375C40.6668 18.2112 40.653 18.1853 40.6386 18.1598C40.6254 18.1362 40.6118 18.113 40.5975 18.0901C40.5843 18.0689 40.5705 18.0479 40.5563 18.0273C40.543 18.0078 40.5293 17.9884 40.5152 17.9694C40.5018 17.9514 40.488 17.9337 40.474 17.9163C40.4606 17.8995 40.4469 17.883 40.4328 17.8667C40.4194 17.851 40.4057 17.8355 40.3916 17.8202C40.3782 17.8055 40.3645 17.791 40.3505 17.7767C40.337 17.7628 40.3233 17.7492 40.3093 17.7357C40.2958 17.7226 40.282 17.7097 40.2681 17.697C40.2546 17.6846 40.2409 17.6724 40.227 17.6604C40.2134 17.6486 40.1997 17.637 40.1858 17.6255C40.1722 17.6143 40.1585 17.6033 40.1446 17.5924C40.1311 17.5817 40.1173 17.5712 40.1035 17.5608C40.0899 17.5507 40.0762 17.5407 40.0623 17.5307C40.0487 17.5211 40.035 17.5115 40.0211 17.502C40.0075 17.4928 39.9938 17.4836 39.98 17.4745C39.9664 17.4657 39.9526 17.4569 39.9388 17.4482C39.9252 17.4398 39.9115 17.4314 39.8976 17.4231C39.8841 17.415 39.8703 17.407 39.8565 17.3991C39.8428 17.3913 39.8291 17.3837 39.8153 17.3761C39.8017 17.3687 39.788 17.3614 39.7741 17.3541C39.7605 17.347 39.7468 17.3399 39.7329 17.333C39.7193 17.3261 39.7056 17.3193 39.6918 17.3126C39.6781 17.3061 39.6645 17.2995 39.6506 17.2931C39.637 17.2868 39.6232 17.2807 39.6095 17.2746C39.5958 17.2685 39.5821 17.2626 39.5683 17.2567C39.5546 17.251 39.5409 17.2453 39.5271 17.2396C39.5134 17.2341 39.4998 17.2285 39.4859 17.2231C39.4723 17.2178 39.4586 17.2126 39.4448 17.2074C39.4311 17.2023 39.4174 17.1974 39.4036 17.1925C39.39 17.1876 39.3762 17.1828 39.3625 17.1781C39.3488 17.1734 39.3351 17.1688 39.3213 17.1642C39.3076 17.1598 39.2939 17.1554 39.2801 17.1511C39.2665 17.1468 39.2527 17.1427 39.2389 17.1386L39.1978 17.1266C39.1841 17.1227 39.1704 17.1188 39.1566 17.1151C39.143 17.1114 39.1292 17.1078 39.1154 17.1043C39.1018 17.1008 39.0881 17.0974 39.0743 17.094C39.0606 17.0906 39.0469 17.0873 39.0331 17.0841C39.0194 17.0809 39.0057 17.0779 38.9919 17.0748C38.9783 17.0718 38.9645 17.069 38.9508 17.0661C38.9371 17.0633 38.9234 17.0604 38.9096 17.0577L38.8684 17.0499L38.8273 17.0426C38.8136 17.0403 38.7999 17.0379 38.7861 17.0357L38.7449 17.0292C38.7313 17.0272 38.7175 17.0252 38.7038 17.0233L38.6626 17.0178L38.6214 17.0126L38.5802 17.008L38.5391 17.0037L38.4979 16.9999L38.4568 16.9965L38.4188 16.9936L38.4187 16.9446L38.4568 16.9387L38.4979 16.932C38.5117 16.9296 38.5254 16.9273 38.5391 16.9248L38.5802 16.9169C38.5941 16.9142 38.6078 16.9114 38.6214 16.9085L38.6626 16.8996C38.6764 16.8965 38.6902 16.8934 38.7038 16.8902C38.7176 16.8869 38.7313 16.8834 38.7449 16.8799C38.7588 16.8764 38.7724 16.8728 38.7861 16.8691C38.7999 16.8654 38.8136 16.8616 38.8273 16.8577C38.8411 16.8538 38.8548 16.8498 38.8684 16.8457C38.8822 16.8416 38.896 16.8373 38.9096 16.833C38.9234 16.8286 38.9371 16.824 38.9508 16.8195C38.9646 16.8148 38.9783 16.81 38.9919 16.8052C39.0058 16.8003 39.0195 16.7954 39.0331 16.7903C39.0469 16.7852 39.0607 16.7799 39.0743 16.7746C39.0881 16.7692 39.1018 16.7637 39.1154 16.7581C39.1293 16.7524 39.143 16.7467 39.1566 16.7408C39.1705 16.7348 39.1841 16.7287 39.1978 16.7225C39.2116 16.7162 39.2253 16.7098 39.2389 16.7033C39.2528 16.6967 39.2665 16.6899 39.2801 16.6831C39.2939 16.6761 39.3077 16.6691 39.3213 16.662C39.3351 16.6547 39.3489 16.6472 39.3625 16.6398C39.3763 16.6321 39.39 16.6243 39.4036 16.6165C39.4175 16.6084 39.4312 16.6003 39.4448 16.592C39.4587 16.5836 39.4724 16.575 39.4859 16.5664C39.4998 16.5575 39.5135 16.5485 39.5271 16.5394C39.541 16.53 39.5547 16.5206 39.5683 16.511C39.5822 16.5012 39.5959 16.4912 39.6095 16.4812C39.6234 16.4708 39.6371 16.4604 39.6506 16.4498C39.6645 16.4389 39.6783 16.4279 39.6918 16.4167C39.7057 16.4052 39.7194 16.3935 39.7329 16.3817C39.7469 16.3695 39.7606 16.3571 39.7741 16.3446C39.7881 16.3317 39.8018 16.3186 39.8153 16.3054C39.8293 16.2917 39.843 16.2779 39.8565 16.2639C39.8705 16.2493 39.8842 16.2345 39.8976 16.2195C39.9117 16.2039 39.9254 16.1881 39.9388 16.1721C39.9529 16.1554 39.9666 16.1385 39.98 16.1214C39.9941 16.1033 40.0078 16.085 40.0211 16.0665C40.0353 16.0469 40.049 16.027 40.0623 16.007C40.0765 15.9856 40.0903 15.9639 40.1035 15.942C40.1178 15.9183 40.1315 15.8942 40.1446 15.8699C40.1591 15.8432 40.1728 15.8162 40.1858 15.7888C40.2004 15.758 40.2141 15.7268 40.227 15.6953C40.2419 15.6586 40.2556 15.6214 40.2681 15.5836C40.2838 15.5362 40.2976 15.488 40.3093 15.4393C40.3283 15.3601 40.342 15.2793 40.3505 15.1971C40.3572 15.1322 40.3607 15.0665 40.3607 15.0001C40.3607 14.93 40.3571 14.8616 40.3505 14.795C40.342 14.7098 40.3282 14.6275 40.3093 14.5481C40.2975 14.4985 40.2838 14.45 40.2681 14.4027C40.2556 14.3648 40.2419 14.3277 40.227 14.2913C40.2141 14.26 40.2004 14.2292 40.1858 14.199C40.1728 14.172 40.159 14.1455 40.1446 14.1194C40.1315 14.0955 40.1177 14.072 40.1035 14.0488C40.0902 14.0273 40.0765 14.0061 40.0623 13.9852C40.049 13.9656 40.0353 13.9464 40.0211 13.9274C40.0078 13.9095 39.9941 13.8917 39.98 13.8743C39.9665 13.8576 39.9529 13.8411 39.9388 13.8249C39.9254 13.8095 39.9116 13.7943 39.8976 13.7793C39.8842 13.7649 39.8705 13.7506 39.8565 13.7366C39.843 13.723 39.8293 13.7097 39.8153 13.6965C39.8018 13.6837 39.7881 13.6711 39.7741 13.6587C39.7606 13.6466 39.7469 13.6347 39.7329 13.623C39.7194 13.6116 39.7057 13.6004 39.6918 13.5893C39.6783 13.5785 39.6645 13.5678 39.6506 13.5574C39.6371 13.5471 39.6234 13.5371 39.6095 13.5272C39.5959 13.5174 39.5822 13.5079 39.5683 13.4984C39.5547 13.4892 39.541 13.4801 39.5271 13.4711C39.5135 13.4623 39.4998 13.4537 39.4859 13.4451C39.4724 13.4367 39.4586 13.4285 39.4448 13.4204C39.4312 13.4124 39.4175 13.4045 39.4036 13.3968C39.39 13.3891 39.3763 13.3816 39.3625 13.3742C39.3488 13.3669 39.3351 13.3598 39.3213 13.3527C39.3077 13.3458 39.2939 13.339 39.2801 13.3322C39.2665 13.3256 39.2528 13.319 39.2389 13.3126C39.2253 13.3062 39.2116 13.2999 39.1978 13.2938C39.1841 13.2878 39.1704 13.282 39.1566 13.2761C39.143 13.2704 39.1292 13.2647 39.1154 13.2591C39.1018 13.2536 39.0881 13.2482 39.0743 13.2429C39.0606 13.2376 39.0469 13.2324 39.0331 13.2273C39.0194 13.2223 39.0058 13.2174 38.9919 13.2126C38.9783 13.2078 38.9646 13.2031 38.9508 13.1985C38.9371 13.194 38.9234 13.1895 38.9096 13.1852C38.896 13.1808 38.8822 13.1766 38.8684 13.1724C38.8547 13.1683 38.8411 13.1641 38.8273 13.1602C38.8136 13.1563 38.7999 13.1525 38.7861 13.1488C38.7724 13.1451 38.7587 13.1415 38.7449 13.1379L38.7038 13.1275C38.6901 13.1241 38.6764 13.1209 38.6626 13.1177C38.6489 13.1145 38.6352 13.1115 38.6214 13.1085L38.5802 13.0998C38.5666 13.097 38.5529 13.0941 38.5391 13.0915C38.5254 13.0888 38.5117 13.0864 38.4979 13.0839L38.4568 13.0767C38.4431 13.0744 38.4294 13.0721 38.4156 13.0699L38.3744 13.0637L38.3332 13.0579L38.2921 13.0525L38.2509 13.0477L38.2098 13.0433L38.1686 13.0392L38.1274 13.0356L38.0862 13.0324L38.0451 13.0295L38.0039 13.0272L37.9876 13.0263L37.9627 13.0247L37.9216 13.0223L37.8804 13.0201L37.8392 13.0179L37.7981 13.016L37.7569 13.0142L37.7157 13.0127L37.6746 13.0114L37.6334 13.0105L37.5922 13.01L37.5695 13.0099H37.5511H37.5099H37.4687H37.4275H37.3864H37.3452H37.3041H37.2629H37.2217H37.1805H37.1394H37.0982H37.057H37.0159H36.9747H36.9335H36.8924H36.8512H36.81H36.7689H36.7277H36.6866H36.6454H36.6042H36.563H36.5219H36.4807H36.4395H36.3984H36.3572H36.316H36.2749H36.2337H36.1925H36.1514H36.1102H36.069H36.0279H35.9867H35.9455H35.9043H35.8632H35.822H35.7809H35.7397H35.6985H35.6573H35.6162H35.575H35.5338H35.4927H35.4515H35.4103H35.3692H35.328H35.2868H35.2457H35.2045H35.1633H35.1222H35.081H35.0398H34.9986H34.9575H34.9163H34.8752H34.834H34.7928H34.7516H34.7105H34.6693H34.6282H34.587H34.5458H34.5046H34.4635H34.4223H34.3811H34.34H34.2988H34.2576H34.2165H34.1753H34.1341H34.093H34.0518H34.0106H33.9695H33.9283H33.8871H33.8459H33.8048H33.7636H33.7225H33.6813H33.6401H33.5989H33.5578H33.5166H33.4755H33.4343H33.3931H33.3519H33.3108H33.2696H33.2284H33.1873H33.1461H33.1049H33.0638H33.0226H32.9814H32.9403H32.8991H32.8579H32.8168H32.7756H32.7344H32.6932H32.6521H32.6109H32.5698H32.5286H32.4874H32.4462H32.4051H32.3639H32.3227H32.2816H32.2404H32.1992H32.1581H32.1169H32.0757H32.0346H31.9934H31.9522H31.9111H31.8699H31.8287H31.7875H31.7464H31.7052H31.6641H31.6229H31.5341V8.61119C31.5341 8.31526 31.5647 8.02649 31.6229 7.74768C31.6354 7.68797 31.6491 7.62877 31.6641 7.57005C31.6769 7.5198 31.6906 7.46992 31.7052 7.42041C31.7182 7.37619 31.732 7.33227 31.7464 7.28866C31.7596 7.24881 31.7732 7.20917 31.7875 7.16986C31.8008 7.1334 31.8145 7.09714 31.8287 7.06115C31.8421 7.02754 31.8557 6.99409 31.8699 6.96092C31.8833 6.92961 31.897 6.89843 31.9111 6.8675C31.9244 6.83812 31.9382 6.80894 31.9522 6.77994C31.9656 6.75225 31.9794 6.72477 31.9934 6.69742C32.0068 6.67113 32.0206 6.64504 32.0346 6.61905C32.048 6.594 32.0618 6.56913 32.0757 6.5444C32.0892 6.5204 32.103 6.49662 32.1169 6.47293C32.1305 6.44996 32.1441 6.42708 32.1581 6.40441C32.1716 6.38242 32.1853 6.3606 32.1992 6.33888C32.2127 6.31784 32.2265 6.297 32.2404 6.27622C32.254 6.25589 32.2677 6.23563 32.2816 6.21554C32.2952 6.19585 32.3088 6.17616 32.3227 6.15671C32.3363 6.13787 32.3501 6.11927 32.3639 6.10066C32.3775 6.08236 32.3912 6.0642 32.4051 6.04614C32.4187 6.02835 32.4323 6.01049 32.4462 5.99294C32.4598 5.97586 32.4736 5.95905 32.4874 5.94218C32.501 5.92554 32.5147 5.90904 32.5286 5.89264C32.5422 5.87644 32.5559 5.86024 32.5698 5.84425C32.5833 5.82866 32.5971 5.81335 32.6109 5.79796C32.6246 5.78271 32.6382 5.76743 32.6521 5.75239C32.6657 5.73765 32.6795 5.72304 32.6932 5.70847C32.7069 5.6941 32.7206 5.67984 32.7344 5.66564C32.7481 5.65164 32.7617 5.63765 32.7756 5.62382C32.7892 5.61024 32.803 5.59685 32.8168 5.58347C32.8304 5.57015 32.844 5.5567 32.8579 5.54358C32.8715 5.53074 32.8853 5.5182 32.8991 5.50553C32.9128 5.49292 32.9264 5.48028 32.9403 5.46785C32.9539 5.45561 32.9677 5.44362 32.9814 5.43159C32.9951 5.41963 33.0088 5.40767 33.0226 5.39587C33.0363 5.38425 33.05 5.3728 33.0638 5.36134C33.0774 5.34999 33.0911 5.33868 33.1049 5.32749C33.1186 5.31641 33.1323 5.30547 33.1461 5.29459L33.1873 5.26243L33.2284 5.23112C33.2421 5.22085 33.2558 5.21065 33.2696 5.20056C33.2833 5.19056 33.297 5.1806 33.3108 5.17074L33.3519 5.1417C33.3656 5.13218 33.3793 5.12272 33.3931 5.11337L33.4343 5.08568L33.4755 5.05875C33.4891 5.0499 33.5028 5.04109 33.5166 5.03242L33.5578 5.00687C33.5715 4.99843 33.5852 4.98999 33.5989 4.98172C33.6126 4.97352 33.6264 4.96556 33.6401 4.95753C33.6538 4.9495 33.6675 4.9414 33.6813 4.93354C33.6949 4.92578 33.7087 4.91829 33.7225 4.91066C33.7362 4.90304 33.7498 4.89528 33.7636 4.88783C33.7773 4.88047 33.7911 4.87336 33.8048 4.86614C33.8185 4.85892 33.8322 4.85167 33.8459 4.84459C33.8596 4.83757 33.8734 4.83076 33.8871 4.82392C33.9008 4.81711 33.9145 4.81026 33.9283 4.80359L33.9695 4.78383C33.9831 4.77736 33.9969 4.77106 34.0106 4.76472C34.0244 4.75842 34.038 4.75201 34.0518 4.74584C34.0654 4.73975 34.0793 4.73392 34.093 4.72795C34.1067 4.72199 34.1203 4.71592 34.1341 4.7101C34.1478 4.70434 34.1616 4.69885 34.1753 4.69322C34.189 4.68763 34.2027 4.68197 34.2165 4.67651L34.2576 4.66042L34.2988 4.64487C34.3125 4.63972 34.3262 4.6345 34.34 4.62952C34.3536 4.62457 34.3674 4.61993 34.3811 4.61511C34.3949 4.6103 34.4085 4.60539 34.4223 4.60071C34.436 4.59607 34.4497 4.5917 34.4635 4.58719L34.5046 4.57394C34.5184 4.56961 34.532 4.56523 34.5458 4.56103C34.5595 4.55686 34.5733 4.55293 34.587 4.5489C34.6007 4.54484 34.6144 4.54063 34.6282 4.53674C34.6418 4.53287 34.6556 4.52928 34.6693 4.52555C34.683 4.52183 34.6967 4.51807 34.7105 4.51447L34.7516 4.5039C34.7653 4.50048 34.7791 4.49723 34.7928 4.49394C34.8065 4.49065 34.8202 4.48713 34.834 4.48398C34.8476 4.48086 34.8614 4.47801 34.8752 4.475L34.9163 4.46608L34.9575 4.45765C34.9711 4.45494 34.9849 4.45239 34.9986 4.44982C35.0124 4.44721 35.026 4.44443 35.0398 4.44196C35.0535 4.43948 35.0673 4.43738 35.081 4.43508L35.1222 4.4283C35.1359 4.42613 35.1496 4.4239 35.1633 4.42186C35.177 4.41983 35.1908 4.41803 35.2045 4.41614C35.2182 4.41424 35.2319 4.41217 35.2457 4.41041C35.2594 4.40865 35.2731 4.40709 35.2868 4.40546L35.328 4.40079C35.3417 4.3993 35.3554 4.39764 35.3692 4.39628C35.3828 4.39492 35.3966 4.39387 35.4103 4.39265L35.4515 4.38903L35.4927 4.38595C35.5064 4.38496 35.5201 4.38418 35.5338 4.38334C35.5475 4.38252 35.5612 4.38147 35.575 4.38076C35.5887 4.38005 35.6025 4.37964 35.6162 4.37907L35.6573 4.37754C35.6711 4.3771 35.6848 4.37652 35.6985 4.37622C35.7122 4.37591 35.726 4.37588 35.7397 4.37568C35.7534 4.37547 35.7671 4.37524 35.7809 4.37517L35.7912 4.37503H35.822H35.8632H35.9043H35.9455H35.9867H36.0279H36.069H36.1102H36.1514H36.1925H36.2337H36.2749H36.316H36.3572H36.3984H36.4395H36.4807H36.5219H36.563H36.6042H36.6454H36.6866H36.7277H36.7689H36.81H36.8512H36.8924H36.9335H36.9747H37.0159H37.057H37.0982H37.1394H37.1805H37.2217H37.2629H37.3041H37.3452H37.3864H37.4275H37.4687H37.5099H37.5511H37.5922H37.6334H37.6746H37.7157H37.7569H37.7981H37.8392H37.8804H37.9216H37.9627H38.0039H38.0451H38.0862H38.1274H38.1686H38.2098H38.2509H38.2921H38.3332H38.3744H38.4156H38.4568H38.4979H38.5391H38.5802H38.6214H38.6626H38.7038H38.7449H38.7861H38.8273H38.8684H38.9096H38.9508H38.9919H39.0331H39.0743H39.1154H39.1566H39.1978H39.2389H39.2801H39.3213H39.3625H39.4036H39.4448H39.4859H39.5271H39.5683H39.6095H39.6506H39.6918H39.7329H39.7741H39.8153H39.8565H39.8976H39.9388H39.98H40.0211H40.0623H40.1035H40.1446H40.1858H40.227H40.2681H40.3093H40.3505H40.3916H40.4328H40.474H40.5152H40.5563H40.5975H40.6386H40.6798H40.721H40.7622H40.8033H40.8445H40.8857H40.9268H40.968H41.0092H41.0503H41.0915H41.1327H41.1738H41.215H41.2562H41.2973H41.3385H41.3797H41.4209H41.462H41.5032H41.5444H41.5855H41.6267H41.6679H41.709H41.7502H41.7914H41.8325H41.8737H41.9149H41.956H41.9972H42.0384V4.375Z" fill="#54B230"/>
<path fill-rule="evenodd" clip-rule="evenodd" d="M7.93457 19.0723V8.61115C7.93457 8.31608 7.96501 8.02805 8.02284 7.74998C8.03526 7.69027 8.04905 7.63111 8.06396 7.57235C8.07672 7.52203 8.09047 7.47212 8.10504 7.42254C8.11804 7.37836 8.13175 7.33451 8.14612 7.29093C8.15929 7.25105 8.1729 7.21133 8.18723 7.17196C8.20051 7.13553 8.21409 7.09931 8.22832 7.06336C8.24159 7.02974 8.2553 6.99623 8.26943 6.96302C8.28277 6.93171 8.29645 6.9006 8.31051 6.8697C8.32389 6.84032 8.3376 6.81118 8.35159 6.78217C8.36497 6.75445 8.37875 6.72694 8.39271 6.69956C8.40612 6.67326 8.41983 6.64717 8.43379 6.62121C8.44723 6.59617 8.46095 6.5713 8.47487 6.54656C8.48835 6.52261 8.50203 6.49879 8.51599 6.47513C8.5295 6.45216 8.54311 6.42925 8.55707 6.40655C8.57058 6.38459 8.5843 6.3628 8.59818 6.34112C8.61163 6.32011 8.62545 6.29923 8.63926 6.27846C8.65281 6.25813 8.66646 6.23787 8.68035 6.21777C8.69399 6.19805 8.70751 6.17836 8.72146 6.15888C8.73494 6.14007 8.74876 6.1215 8.76254 6.1029C8.77612 6.0846 8.7898 6.06644 8.80366 6.04838C8.81727 6.03062 8.83085 6.01273 8.84474 5.99518C8.85825 5.97813 8.87207 5.96136 8.88582 5.94452C8.8994 5.92788 8.91308 5.91131 8.92694 5.89487C8.94055 5.87871 8.95416 5.86258 8.96802 5.84662C8.98156 5.831 8.99535 5.81565 9.00913 5.80023C9.02275 5.78495 9.03636 5.7697 9.05021 5.75466C9.06376 5.73992 9.07754 5.72538 9.09129 5.71084C9.10491 5.69644 9.11859 5.68217 9.13241 5.66798C9.14602 5.65398 9.15967 5.63999 9.17349 5.62616C9.18707 5.61257 9.20086 5.59919 9.21461 5.5858C9.22829 5.57249 9.24184 5.55907 9.25569 5.54595C9.26923 5.53311 9.28305 5.52057 9.29677 5.5079C9.31045 5.49526 9.32403 5.48259 9.33788 5.47015C9.35146 5.45795 9.36525 5.44599 9.37897 5.43396C9.39265 5.422 9.40626 5.41 9.42008 5.39821C9.4337 5.38659 9.44741 5.37517 9.46116 5.36372C9.47478 5.35236 9.48846 5.34101 9.50224 5.32983C9.51586 5.31878 9.52961 5.30784 9.54336 5.29693C9.55701 5.28612 9.57066 5.27541 9.58444 5.26477C9.59805 5.25423 9.61181 5.24383 9.62556 5.23346C9.6392 5.22319 9.65289 5.21296 9.66664 5.20286L9.70772 5.17311C9.72137 5.16332 9.73505 5.15359 9.74883 5.14397C9.76245 5.13445 9.77616 5.12503 9.78992 5.11567C9.80356 5.10635 9.81725 5.0971 9.831 5.08795C9.84464 5.07891 9.85836 5.07 9.87211 5.06108C9.88576 5.05224 9.89941 5.04333 9.91319 5.03462C9.92681 5.02601 9.94056 5.01761 9.95431 5.00914C9.96799 5.0007 9.98161 4.99216 9.99539 4.98389C10.009 4.97573 10.0228 4.9678 10.0365 4.95977C10.0502 4.95173 10.0638 4.94357 10.0776 4.93567C10.0912 4.92791 10.105 4.92049 10.1187 4.91287C10.1324 4.90524 10.146 4.89752 10.1598 4.89003C10.1734 4.88264 10.1871 4.87553 10.2009 4.86831C10.2145 4.86109 10.2282 4.85384 10.2419 4.84676C10.2556 4.83974 10.2693 4.83286 10.2831 4.82598L10.3241 4.80572C10.3378 4.79905 10.3515 4.79237 10.3653 4.78586C10.3789 4.77939 10.3926 4.77312 10.4063 4.76679C10.4201 4.76045 10.4336 4.75398 10.4474 4.74781C10.461 4.74168 10.4748 4.73592 10.4885 4.72995C10.5022 4.72399 10.5159 4.71792 10.5296 4.71209C10.5433 4.70633 10.557 4.70078 10.5707 4.69515L10.6118 4.67848L10.6529 4.66228L10.694 4.64676C10.7077 4.64161 10.7213 4.63629 10.7351 4.63128C10.7487 4.62633 10.7625 4.62172 10.7762 4.61691C10.7899 4.6121 10.8035 4.60722 10.8173 4.60254L10.8584 4.58889L10.8995 4.57564C10.9132 4.5713 10.9268 4.56686 10.9406 4.56266C10.9542 4.55849 10.968 4.55453 10.9816 4.55049C10.9954 4.54643 11.009 4.54229 11.0228 4.53836C11.0364 4.53447 11.0501 4.53084 11.0638 4.52708L11.105 4.516C11.1186 4.51241 11.1323 4.50875 11.146 4.50529C11.1597 4.50183 11.1734 4.49868 11.1871 4.49536C11.2008 4.49204 11.2145 4.48858 11.2282 4.4854C11.2419 4.48225 11.2556 4.4793 11.2693 4.47628L11.3104 4.46741C11.3241 4.46449 11.3378 4.46154 11.3515 4.4588C11.3652 4.45609 11.3789 4.45358 11.3926 4.45097C11.4063 4.44836 11.42 4.44565 11.4337 4.44318C11.4474 4.4407 11.4611 4.43847 11.4748 4.43613L11.5159 4.42935C11.5296 4.42718 11.5432 4.42485 11.557 4.42278C11.5706 4.42071 11.5844 4.41898 11.5981 4.41705C11.6118 4.41515 11.6254 4.41312 11.6392 4.41133L11.6803 4.40621L11.7214 4.40157C11.7351 4.40004 11.7487 4.39828 11.7625 4.39689C11.7761 4.3955 11.7899 4.39448 11.8035 4.39323L11.8447 4.38964C11.8583 4.38849 11.872 4.38737 11.8857 4.38639C11.8994 4.3854 11.9131 4.38462 11.9269 4.38378C11.9406 4.38293 11.9542 4.38195 11.9679 4.3812C11.9816 4.38046 11.9953 4.37995 12.009 4.37934L12.0501 4.37778C12.0638 4.3773 12.0775 4.37659 12.0912 4.37625C12.1049 4.37591 12.1186 4.37595 12.1323 4.37575C12.146 4.37554 12.1597 4.3753 12.1734 4.37524L12.2145 4.375H12.2556H12.2967H12.3378H12.3789H12.42H12.4611H12.5022H12.5432H12.5844H12.6254H12.6666H12.7076H12.7487H12.7898H12.8309H12.872H12.9131H12.9542H12.9953H13.0364H13.0775H13.1186H13.1597H13.2008H13.2419H13.283H13.3241H13.3651H13.4063H13.4473H13.4885H13.5295H13.5706H13.6117H13.6528H13.6939H13.735H13.7761H13.8172H13.8583H13.8994H13.9405H13.9816H14.0227H14.0638H14.1048H14.146H14.187H14.2282H14.2692H14.3103H14.3514H14.3925H14.4336H14.4747H14.5158H14.5569H14.598H14.6391H14.6802H14.7213H14.7624H14.8035H14.8446H14.8857H14.9267H14.9679H15.0089H15.05H15.0911H15.1322H15.1733H15.2144H15.2555H15.2966H15.3377H15.3788H15.4199H15.461H15.5021H15.5432H15.5843H15.6254H15.6664H15.7076H15.7486H15.7897H15.8308H15.8719H15.913H15.9541H15.9952H16.0363H16.0774H16.1185H16.1596H16.2007H16.2418H16.2829H16.324H16.3651H16.4062H16.4473H16.4883H16.5295H16.5705H16.6117H16.6527H16.6938H16.7349H16.776H16.8171H16.8582H16.8993H16.9404H16.9815H17.0226H17.0637H17.1048H17.1459H17.187H17.228H17.2692H17.3102H17.3514H17.3924H17.4335H17.4746H17.5157H17.5568H17.5979H17.639H17.6801H17.7212H17.7623H17.8034H17.8445H17.8856H17.9267H17.9678H18.0089H18.0499H18.0911H18.1321H18.1732H18.2143H18.2554H18.2965H18.3376H18.3787H18.4198H18.4547V25.5542C18.4547 25.7384 18.4428 25.9199 18.4198 26.098C18.4088 26.1837 18.3948 26.2685 18.3787 26.3525C18.3664 26.4165 18.3528 26.4799 18.3376 26.5427C18.3249 26.5957 18.3112 26.6483 18.2965 26.7005C18.2836 26.7463 18.2698 26.7917 18.2554 26.8368C18.2424 26.8777 18.2286 26.9182 18.2143 26.9586C18.2011 26.9959 18.1875 27.033 18.1732 27.0698C18.16 27.1042 18.1463 27.1384 18.1321 27.1723C18.1188 27.2043 18.1051 27.2361 18.0911 27.2676C18.0777 27.2976 18.064 27.3273 18.0499 27.357C18.0366 27.3852 18.0229 27.4132 18.0089 27.4411C17.9954 27.4679 17.9817 27.4945 17.9678 27.5209C17.9543 27.5463 17.9406 27.5717 17.9267 27.5968C17.9132 27.6211 17.8996 27.6454 17.8856 27.6694C17.8721 27.6926 17.8584 27.7156 17.8445 27.7385C17.831 27.7607 17.8172 27.7826 17.8034 27.8045C17.7899 27.8259 17.7762 27.8471 17.7623 27.8682C17.7487 27.8889 17.7351 27.9095 17.7212 27.9298C17.7077 27.9496 17.6939 27.9692 17.6801 27.9887C17.6666 28.0078 17.6529 28.0267 17.639 28.0456C17.6254 28.0641 17.6118 28.0826 17.5979 28.1009C17.5844 28.1188 17.5707 28.1365 17.5568 28.1542C17.5433 28.1714 17.5295 28.1885 17.5157 28.2056C17.5021 28.2224 17.4885 28.2392 17.4746 28.2558C17.4611 28.2721 17.4473 28.2881 17.4335 28.3041C17.4199 28.3199 17.4063 28.3356 17.3924 28.3512C17.3788 28.3665 17.3652 28.382 17.3514 28.3972C17.3378 28.412 17.324 28.4266 17.3102 28.4413C17.2966 28.4558 17.283 28.4704 17.2692 28.4847C17.2556 28.4988 17.2418 28.5126 17.228 28.5265C17.2144 28.5402 17.2008 28.5539 17.187 28.5674C17.1734 28.5808 17.1597 28.5941 17.1459 28.6073C17.1323 28.6203 17.1185 28.6331 17.1048 28.6459C17.0911 28.6586 17.0775 28.6713 17.0637 28.6839C17.0501 28.6962 17.0363 28.7082 17.0226 28.7204C17.0089 28.7325 16.9953 28.7447 16.9815 28.7566C16.9679 28.7682 16.9541 28.7796 16.9404 28.7911C16.9267 28.8026 16.9131 28.8142 16.8993 28.8255C16.8857 28.8366 16.8719 28.8475 16.8582 28.8584C16.8445 28.8693 16.8309 28.8803 16.8171 28.8911C16.8035 28.9016 16.7897 28.9119 16.776 28.9223C16.7623 28.9327 16.7488 28.9431 16.7349 28.9533C16.7214 28.9634 16.7075 28.9732 16.6938 28.9831C16.6801 28.993 16.6666 29.003 16.6527 29.0127C16.6392 29.0222 16.6254 29.0316 16.6117 29.041C16.5979 29.0504 16.5844 29.0599 16.5705 29.0692C16.557 29.0782 16.5432 29.0871 16.5295 29.096C16.5157 29.105 16.5022 29.1141 16.4883 29.1229C16.4748 29.1315 16.4609 29.1398 16.4473 29.1484C16.4336 29.1569 16.42 29.1655 16.4062 29.1738C16.3925 29.1821 16.3788 29.1901 16.3651 29.1981C16.3514 29.2062 16.3378 29.2143 16.324 29.2223C16.3103 29.2301 16.2966 29.2377 16.2829 29.2454C16.2692 29.2531 16.2555 29.2608 16.2418 29.2682C16.2281 29.2757 16.2145 29.2831 16.2007 29.2904L16.1596 29.3119C16.1459 29.319 16.1323 29.3261 16.1185 29.333C16.1049 29.3399 16.0911 29.3466 16.0774 29.3533C16.0637 29.36 16.0501 29.3669 16.0363 29.3735C16.0227 29.38 16.0089 29.3862 15.9952 29.3926C15.9815 29.399 15.9679 29.4054 15.9541 29.4117C15.9405 29.4178 15.9267 29.4237 15.913 29.4298L15.8719 29.4476L15.8308 29.4649C15.8172 29.4706 15.8034 29.4761 15.7897 29.4816C15.776 29.4871 15.7624 29.4928 15.7486 29.4982C15.735 29.5035 15.7213 29.5085 15.7076 29.5136C15.6938 29.5188 15.6802 29.5241 15.6664 29.5292C15.6528 29.5342 15.6391 29.539 15.6254 29.5438L15.5843 29.5582L15.5432 29.5722C15.5295 29.5767 15.5158 29.5811 15.5021 29.5854C15.4884 29.5898 15.4748 29.5944 15.461 29.5987C15.4474 29.6029 15.4336 29.6068 15.4199 29.6109L15.3788 29.6231L15.3377 29.6347C15.324 29.6385 15.3103 29.6421 15.2966 29.6457C15.2829 29.6494 15.2692 29.6532 15.2555 29.6567C15.2419 29.6602 15.2281 29.6633 15.2144 29.6667C15.2007 29.6701 15.1871 29.6734 15.1733 29.6767L15.1322 29.6861L15.0911 29.695C15.0774 29.6979 15.0638 29.7011 15.05 29.7039C15.0364 29.7067 15.0226 29.709 15.0089 29.7117C14.9953 29.7143 14.9816 29.717 14.9679 29.7195L14.9267 29.7269C14.9131 29.7292 14.8994 29.7314 14.8857 29.7336C14.8719 29.7358 14.8583 29.7383 14.8446 29.7404C14.8309 29.7425 14.8172 29.7442 14.8035 29.7462L14.7624 29.7519C14.7487 29.7538 14.735 29.7556 14.7213 29.7573C14.7076 29.759 14.6939 29.7604 14.6802 29.762C14.6665 29.7635 14.6528 29.7652 14.6391 29.7667C14.6254 29.7681 14.6117 29.7693 14.598 29.7706L14.5569 29.7742C14.5432 29.7754 14.5295 29.7768 14.5158 29.7778C14.5021 29.7788 14.4884 29.7795 14.4747 29.7804L14.4336 29.783L14.3925 29.7851C14.3789 29.7858 14.3651 29.7862 14.3514 29.7867C14.3377 29.7872 14.324 29.7878 14.3103 29.7882C14.2967 29.7886 14.2829 29.7888 14.2692 29.789L14.2282 29.7895C14.2155 29.7896 14.2028 29.79 14.19 29.79H14.146H14.1048H14.0638H14.0227H13.9816H13.9405H13.8994H13.8583H13.8172H13.7761H13.735H13.6939H13.6528H13.6117H13.5706H13.5295H13.4885H13.4473H13.4063H13.3651H13.3241H13.283H13.2419H13.2008H13.1597H13.1186H13.0775H13.0364H12.9953H12.9542H12.9131H12.872H12.8309H12.7898H12.7487H12.7076H12.6666H12.6254H12.5844H12.5432H12.5022H12.4611H12.42H12.3789H12.3378H12.2967H12.2556H12.2145H12.1734H12.1323H12.0912H12.0501H12.009H11.9679H11.9269H11.8857H11.8447H11.8035H11.7625H11.7214H11.6803H11.6392H11.5981H11.557H11.5159H11.4748H11.4337H11.3926H11.3515H11.3104H11.2693H11.2282H11.1871H11.146H11.105H11.0638H11.0228H10.9816H10.9406H10.8995H10.8584H10.8173H10.7762H10.7351H10.694H10.6529H10.6118H10.5707H10.5296H10.4885H10.4474H10.4063H10.3653H10.3241H10.2831H10.2419H10.2009H10.1598H10.1187H10.0776H10.0365H9.99539H9.95431H9.91319H9.87211H9.831H9.78992H9.74883H9.70772H9.66664H9.62556H9.58444H9.54336H9.50224H9.46116H9.42008H9.37897H9.33788H9.29677H9.25569H9.21461H9.17349H9.13241H9.09129H9.05021H9.00913H8.96802H8.92694H8.88582H8.84474H8.80366H8.76254H8.72146H8.68035H8.63926H8.59818H8.55707H8.51599H8.47487H8.43379H8.39271H8.35159H8.31051H8.26943H8.22832H8.18723H8.14612H8.10504H8.06396H8.02284H7.93457V20.8632C7.93457 20.8632 7.96494 20.8715 8.02284 20.886L8.06396 20.8962L8.10504 20.9062L8.14612 20.916L8.18723 20.9256L8.22832 20.9351L8.26943 20.9445L8.31051 20.9537L8.35159 20.9628L8.39271 20.9717L8.43379 20.9805L8.47487 20.9893L8.51599 20.9979L8.55707 21.0064L8.59818 21.0147L8.63926 21.023L8.68035 21.0311L8.72146 21.0392L8.76254 21.0471L8.80366 21.055L8.84474 21.0628L8.88582 21.0704L8.92694 21.078L8.96802 21.0854L9.00913 21.0928L9.05021 21.1001L9.09129 21.1072L9.13241 21.1143L9.17349 21.1212L9.21461 21.1281L9.25569 21.1349L9.29677 21.1416L9.33788 21.1482L9.37897 21.1547L9.42008 21.1612L9.46116 21.1675L9.50224 21.1738L9.54336 21.1799L9.58444 21.186L9.62556 21.1919L9.66664 21.1978L9.70772 21.2036L9.74883 21.2093L9.78992 21.2149L9.831 21.2205L9.87211 21.2259L9.91319 21.2313L9.95431 21.2366L9.99539 21.2417L10.0365 21.2468L10.0776 21.2518L10.1187 21.2567L10.1598 21.2615L10.2009 21.2663L10.2419 21.2709L10.2831 21.2755L10.3241 21.28L10.3653 21.2844L10.4063 21.2887L10.4474 21.2929L10.4885 21.297L10.5296 21.301L10.5707 21.305L10.6118 21.3089L10.6529 21.3126L10.694 21.3164L10.7351 21.3199L10.7762 21.3234L10.8173 21.3269L10.8584 21.3302L10.8995 21.3335L10.9406 21.3365L10.9816 21.3397L11.0228 21.3426L11.0638 21.3455L11.105 21.3483L11.146 21.351L11.1871 21.3536L11.2282 21.3562L11.2693 21.3586L11.3104 21.361L11.3515 21.3632L11.3926 21.3654L11.4337 21.3675L11.4748 21.3694L11.5159 21.3713L11.557 21.3731L11.5981 21.3748L11.6392 21.3765L11.6803 21.3779L11.7214 21.3793L11.7625 21.3807L11.8035 21.3819L11.8447 21.3831L11.8857 21.3841L11.9269 21.385L11.9679 21.386L12.009 21.3867L12.0501 21.3873L12.0912 21.388L12.1323 21.3884L12.1734 21.3888L12.2145 21.3891L12.2556 21.3892L12.2967 21.3893L12.3378 21.3893L12.3789 21.389L12.42 21.3888L12.4611 21.3885L12.5022 21.3883L12.5432 21.3875L12.5844 21.3868L12.6254 21.3861L12.6666 21.3853L12.7076 21.3843L12.7487 21.383L12.7898 21.3818L12.8309 21.3805L12.872 21.3791L12.9131 21.3773L12.9542 21.3756L12.9953 21.3737L13.0364 21.3719L13.0775 21.3697L13.1186 21.3673L13.1597 21.3649L13.2008 21.3626L13.2419 21.3599L13.283 21.3569L13.3241 21.354L13.3651 21.3511L13.4063 21.3478L13.4473 21.3443L13.4885 21.3408L13.5295 21.3372L13.5706 21.3334L13.6117 21.3292L13.6528 21.3251L13.6939 21.3209L13.735 21.3164L13.7761 21.3116L13.8172 21.3068L13.8583 21.302L13.8994 21.2967L13.9405 21.2912L13.9816 21.2858L14.0227 21.2802C14.0365 21.2782 14.05 21.2761 14.0638 21.2741L14.1048 21.2679L14.146 21.2618L14.187 21.2553C14.2009 21.2531 14.2144 21.2507 14.2282 21.2484L14.2692 21.2416C14.2829 21.2393 14.2968 21.2371 14.3103 21.2347C14.3242 21.2322 14.3377 21.2296 14.3514 21.2271L14.3925 21.2195L14.4336 21.2119L14.4747 21.2039C14.4885 21.2012 14.5021 21.1983 14.5158 21.1955L14.5569 21.1871L14.598 21.1785C14.6119 21.1756 14.6253 21.1724 14.6391 21.1694L14.6802 21.1601C14.6938 21.157 14.7078 21.1541 14.7213 21.151C14.7352 21.1477 14.7486 21.1443 14.7624 21.141L14.8035 21.1309C14.8171 21.1276 14.831 21.1243 14.8446 21.1209C14.8584 21.1174 14.872 21.1138 14.8857 21.1102L14.9267 21.0993C14.9404 21.0956 14.9543 21.0921 14.9679 21.0883C14.9817 21.0846 14.9953 21.0806 15.0089 21.0768L15.05 21.065C15.0637 21.061 15.0776 21.0571 15.0911 21.0531L15.1322 21.0406L15.1733 21.0278C15.187 21.0235 15.2009 21.0193 15.2144 21.015L15.2555 21.0014L15.2966 20.9876C15.3103 20.9829 15.3242 20.9784 15.3377 20.9737C15.3516 20.9689 15.3651 20.9638 15.3788 20.9589L15.4199 20.9441C15.4336 20.939 15.4474 20.9341 15.461 20.9289C15.4749 20.9237 15.4884 20.9183 15.5021 20.913C15.5158 20.9077 15.5296 20.9024 15.5432 20.897L15.5843 20.8804L15.6254 20.8632C15.639 20.8575 15.653 20.8519 15.6664 20.8461C15.6804 20.8401 15.6938 20.8339 15.7076 20.8278L15.7486 20.8094L15.7897 20.7904C15.8035 20.784 15.8172 20.7774 15.8308 20.7708C15.8445 20.7642 15.8584 20.7577 15.8719 20.751C15.8858 20.7441 15.8993 20.737 15.913 20.73C15.9268 20.723 15.9406 20.7161 15.9541 20.7091C15.968 20.7018 15.9816 20.6944 15.9952 20.687C16.009 20.6796 16.0227 20.6721 16.0363 20.6646C16.0501 20.6569 16.0638 20.6492 16.0774 20.6415C16.0913 20.6336 16.1049 20.6255 16.1185 20.6175C16.1323 20.6094 16.146 20.6013 16.1596 20.5931C16.1735 20.5847 16.1871 20.5761 16.2007 20.5676C16.2145 20.559 16.2283 20.5504 16.2418 20.5417C16.2557 20.5328 16.2692 20.5236 16.2829 20.5145C16.2966 20.5053 16.3105 20.4963 16.324 20.487C16.3379 20.4774 16.3514 20.4677 16.3651 20.458C16.3788 20.4482 16.3927 20.4384 16.4062 20.4285C16.4201 20.4184 16.4337 20.408 16.4473 20.3977C16.4611 20.3872 16.4748 20.3767 16.4883 20.3661C16.5022 20.3552 16.5159 20.3442 16.5295 20.3331C16.5433 20.3218 16.557 20.3104 16.5705 20.299C16.5844 20.2873 16.5982 20.2757 16.6117 20.2639C16.6256 20.2517 16.6391 20.2393 16.6527 20.2269C16.6665 20.2144 16.6804 20.2019 16.6938 20.1892C16.7078 20.176 16.7214 20.1627 16.7349 20.1493C16.7488 20.1356 16.7625 20.1218 16.776 20.108C16.7898 20.0938 16.8037 20.0797 16.8171 20.0653C16.8311 20.0503 16.8446 20.0351 16.8582 20.0199C16.8722 20.0043 16.8858 19.9885 16.8993 19.9727C16.9132 19.9564 16.927 19.9401 16.9404 19.9236C16.9543 19.9064 16.9681 19.8892 16.9815 19.8718C16.9955 19.8536 17.0091 19.8352 17.0226 19.8168C17.0366 19.7976 17.0502 19.7783 17.0637 19.7589C17.0777 19.7386 17.0914 19.7182 17.1048 19.6976C17.1188 19.676 17.1325 19.6543 17.1459 19.6324C17.1599 19.6093 17.1737 19.5861 17.187 19.5627C17.2011 19.5378 17.2148 19.5128 17.228 19.4876C17.2422 19.4606 17.2559 19.4335 17.2692 19.4061C17.2834 19.3767 17.2971 19.3471 17.3102 19.3172C17.3245 19.2847 17.3383 19.2521 17.3514 19.2191C17.3658 19.1827 17.3795 19.1461 17.3924 19.1091C17.4071 19.0672 17.4207 19.0248 17.4335 18.982C17.4485 18.9321 17.4622 18.8816 17.4746 18.8307C17.4901 18.7675 17.5039 18.7036 17.5157 18.639C17.5333 18.5428 17.5469 18.445 17.5568 18.346C17.5706 18.208 17.5773 18.0674 17.5773 17.9246V13.01H17.5157H17.4746H17.4335H17.3924H17.3514H17.3102H17.2692H17.228H17.187H17.1459H17.1048H17.0637H17.0226H16.9815H16.9404H16.8993H16.8582H16.8171H16.776H16.7349H16.6938H16.6527H16.6117H16.5705H16.5295H16.4883H16.4473H16.4062H16.3651H16.324H16.2829H16.2418H16.2007H16.1596H16.1185H16.0774H16.0363H15.9952H15.9541H15.913H15.8719H15.8308H15.7897H15.7486H15.7076H15.6664H15.6254H15.5843H15.5432H15.5021H15.461H15.4199H15.3788H15.3377H15.2966H15.2555H15.2144H15.1733H15.1322H15.0911H15.05H15.0089H14.9679H14.9267H14.8857H14.8446H14.8035H14.7624H14.7213H14.6802H14.6391H14.598H14.5569H14.5158H14.4747H14.4336H14.3925H14.3514H14.3103H14.2692H14.2282H14.187H14.146H14.1048H14.0638H14.0227H13.9816H13.9405L13.9093 17.9246C13.9093 18.0016 13.906 18.0773 13.8994 18.1515C13.891 18.2461 13.8772 18.3383 13.8583 18.4279C13.8466 18.4833 13.8329 18.5377 13.8172 18.591C13.8047 18.6335 13.7911 18.6753 13.7761 18.7164C13.7633 18.7514 13.7496 18.7858 13.735 18.8198C13.722 18.8501 13.7083 18.8799 13.6939 18.9093C13.6808 18.9361 13.6671 18.9626 13.6528 18.9885C13.6396 19.0125 13.6259 19.0359 13.6117 19.0592C13.5985 19.081 13.5848 19.1026 13.5706 19.1238C13.5573 19.1438 13.5436 19.1634 13.5295 19.1828C13.5162 19.2013 13.5026 19.2196 13.4885 19.2376C13.4751 19.2547 13.4613 19.2714 13.4473 19.288C13.4339 19.3039 13.4203 19.3196 13.4063 19.3351C13.3928 19.35 13.3791 19.3647 13.3651 19.3792C13.3517 19.3931 13.338 19.407 13.3241 19.4206C13.3106 19.4337 13.2969 19.4467 13.283 19.4594C13.2695 19.4718 13.2558 19.4839 13.2419 19.4958C13.2284 19.5075 13.2147 19.519 13.2008 19.5302C13.1873 19.5412 13.1735 19.552 13.1597 19.5627C13.1462 19.5731 13.1324 19.5833 13.1186 19.5934C13.105 19.6032 13.0914 19.6129 13.0775 19.6224C13.064 19.6318 13.0503 19.6409 13.0364 19.65C13.0228 19.6588 13.0092 19.6674 12.9953 19.676C12.9818 19.6843 12.9681 19.6925 12.9542 19.7006C12.9407 19.7085 12.9269 19.7162 12.9131 19.7239C12.8996 19.7313 12.8859 19.7386 12.872 19.7459C12.8585 19.753 12.8448 19.7599 12.8309 19.7668C12.8173 19.7735 12.8037 19.7801 12.7898 19.7866C12.7762 19.793 12.7626 19.7993 12.7487 19.8055C12.7351 19.8115 12.7215 19.8175 12.7076 19.8232C12.6941 19.8289 12.6803 19.8344 12.6666 19.8399C12.653 19.8453 12.6392 19.8505 12.6254 19.8557C12.6118 19.8608 12.5982 19.8657 12.5844 19.8706C12.5707 19.8754 12.5571 19.8802 12.5432 19.8848C12.5297 19.8893 12.516 19.8937 12.5022 19.898C12.4886 19.9022 12.4748 19.9063 12.4611 19.9103C12.4475 19.9143 12.4338 19.9183 12.42 19.922C12.4063 19.9258 12.3927 19.9295 12.3789 19.933C12.3653 19.9365 12.3516 19.9399 12.3378 19.9432C12.3242 19.9464 12.3105 19.9495 12.2967 19.9526C12.2831 19.9556 12.2694 19.9586 12.2556 19.9614C12.242 19.9642 12.2283 19.967 12.2145 19.9696C12.2009 19.9722 12.1872 19.9746 12.1734 19.977C12.1598 19.9794 12.1461 19.9817 12.1323 19.9839L12.0912 19.9902C12.0776 19.9921 12.0639 19.9939 12.0501 19.9957C12.0365 19.9975 12.0228 19.9993 12.009 20.0009L11.9679 20.0054C11.9543 20.0068 11.9406 20.008 11.9269 20.0093C11.9132 20.0105 11.8995 20.0118 11.8857 20.0128C11.8721 20.0139 11.8584 20.0148 11.8447 20.0157C11.831 20.0165 11.8173 20.0173 11.8035 20.018C11.7899 20.0187 11.7762 20.0194 11.7625 20.02C11.7489 20.0205 11.7351 20.0208 11.7214 20.0212L11.6803 20.0222C11.6667 20.0224 11.6529 20.0225 11.6392 20.0226L11.5981 20.0226L11.557 20.0223L11.5159 20.0218L11.4748 20.0209L11.4337 20.0198L11.3926 20.0185L11.3515 20.0168L11.3104 20.0149L11.2693 20.0129L11.2282 20.0104L11.1871 20.0078L11.146 20.0049L11.105 20.0017L11.0638 19.9983L11.0228 19.9946L10.9816 19.9907L10.9406 19.9865L10.8995 19.9821L10.8584 19.9775L10.8173 19.9725L10.7762 19.9674L10.7351 19.962L10.694 19.9563L10.6529 19.9504L10.6118 19.9443L10.5707 19.9379L10.5296 19.9313L10.4885 19.9244L10.4474 19.9173L10.4063 19.91L10.3653 19.9024L10.3241 19.8946L10.2831 19.8866L10.2419 19.8783L10.2009 19.8698L10.1598 19.8611L10.1187 19.8521L10.0776 19.8429L10.0365 19.8335L9.99539 19.8238L9.95431 19.8139L9.91319 19.8038L9.87211 19.7936L9.831 19.7829L9.78992 19.7721L9.74883 19.7612L9.70772 19.75L9.66664 19.7386L9.62556 19.7269L9.58444 19.7151L9.54336 19.703L9.50224 19.6907L9.46116 19.6782L9.42008 19.6654L9.37897 19.6525L9.33788 19.6394L9.29677 19.6261L9.25569 19.6125L9.21461 19.5987L9.17349 19.5847L9.13241 19.5706L9.09129 19.5562L9.05021 19.5416L9.00913 19.5269L8.96802 19.5118L8.92694 19.4967L8.88582 19.4813L8.84474 19.4657L8.80366 19.4499L8.76254 19.434L8.72146 19.4178L8.68035 19.4014L8.63926 19.3849L8.59818 19.3682L8.55707 19.3513L8.51599 19.3341L8.47487 19.3168L8.43379 19.2993L8.39271 19.2817L8.35159 19.2637L8.31051 19.2457L8.26943 19.2275L8.22832 19.2091L8.18723 19.1905L8.14612 19.1717L8.10504 19.1528L8.06396 19.1336L8.02284 19.1144C7.99339 19.1004 7.96398 19.0864 7.93457 19.0723Z" fill="#006CB9"/>
<path fill-rule="evenodd" clip-rule="evenodd" d="M19.8229 14.0838C19.7929 14.1079 19.7634 14.1321 19.7346 14.1567V8.61115C19.7346 8.31624 19.7651 8.02839 19.8229 7.75042C19.8353 7.69075 19.849 7.63162 19.8639 7.57289C19.8767 7.52251 19.8905 7.47253 19.9051 7.42288C19.9181 7.37866 19.9318 7.33475 19.9462 7.29113C19.9593 7.25129 19.973 7.21164 19.9872 7.17233C20.0005 7.1359 20.0141 7.09965 20.0284 7.06369C20.0417 7.03008 20.0553 6.99663 20.0694 6.96343C20.0828 6.93212 20.0965 6.90101 20.1105 6.87007C20.1239 6.84069 20.1377 6.81152 20.1516 6.78251C20.165 6.75479 20.1788 6.72734 20.1927 6.69997C20.2061 6.67367 20.2199 6.64758 20.2338 6.62159C20.2473 6.59655 20.261 6.57167 20.2749 6.54694C20.2884 6.52298 20.3021 6.49912 20.316 6.47547C20.3295 6.4525 20.3432 6.42963 20.3571 6.40692C20.3706 6.385 20.3843 6.36321 20.3982 6.34156C20.4117 6.32048 20.4255 6.29964 20.4393 6.27883C20.4529 6.25847 20.4665 6.23824 20.4804 6.21814C20.494 6.19842 20.5076 6.1787 20.5215 6.15925C20.535 6.14041 20.5488 6.12188 20.5626 6.10331C20.5762 6.08501 20.5899 6.06681 20.6037 6.04875C20.6173 6.03096 20.6309 6.01314 20.6448 5.99558C20.6583 5.97854 20.6722 5.96173 20.6859 5.94489C20.6995 5.92825 20.7132 5.91168 20.727 5.89528C20.7406 5.87908 20.7542 5.86295 20.7681 5.84699C20.7816 5.83141 20.7954 5.81602 20.8092 5.80064C20.8228 5.78539 20.8364 5.77007 20.8503 5.75499C20.8638 5.74025 20.8776 5.72568 20.8913 5.71115C20.9049 5.69678 20.9186 5.68251 20.9324 5.66832C20.9461 5.65432 20.9597 5.64033 20.9735 5.6265C20.9871 5.61295 21.0009 5.59956 21.0146 5.58618C21.0283 5.57286 21.0419 5.55944 21.0557 5.54629C21.0693 5.53345 21.0831 5.52091 21.0968 5.50824C21.1105 5.4956 21.1241 5.48293 21.1379 5.47049C21.1515 5.45829 21.1653 5.4463 21.179 5.43427C21.1927 5.42227 21.2063 5.41031 21.2201 5.39852C21.2337 5.38689 21.2475 5.37548 21.2612 5.36402C21.2749 5.35267 21.2885 5.34132 21.3023 5.3301C21.3159 5.31906 21.3297 5.30811 21.3434 5.29723C21.3571 5.28642 21.3707 5.27568 21.3845 5.26504C21.3981 5.25454 21.4119 5.24413 21.4256 5.23377C21.4393 5.2235 21.4529 5.21326 21.4667 5.20317C21.4803 5.19314 21.4941 5.18324 21.5078 5.17338C21.5214 5.16362 21.5351 5.15386 21.5489 5.14424C21.5625 5.13472 21.5762 5.12533 21.59 5.11594C21.6036 5.10663 21.6173 5.09734 21.6311 5.08819C21.6447 5.07914 21.6584 5.07023 21.6722 5.06132C21.6858 5.05244 21.6995 5.04356 21.7133 5.03486C21.7269 5.02625 21.7406 5.01785 21.7544 5.00937C21.7681 5.00094 21.7817 4.9924 21.7955 4.98413C21.8091 4.97593 21.8229 4.968 21.8366 4.95997C21.8503 4.95194 21.8639 4.94374 21.8777 4.93588C21.8912 4.92812 21.9051 4.92066 21.9188 4.91304C21.9325 4.90541 21.9461 4.89772 21.9599 4.89027C21.9735 4.88288 21.9872 4.87576 22.0009 4.86851C22.0146 4.86129 22.0283 4.85404 22.0421 4.84696L22.0831 4.82619L22.1243 4.80589C22.1379 4.79925 22.1516 4.79254 22.1653 4.78603C22.179 4.77956 22.1927 4.77329 22.2065 4.76696C22.2202 4.76065 22.2338 4.75415 22.2475 4.74798C22.2612 4.74185 22.2749 4.73609 22.2887 4.73012C22.3023 4.72416 22.316 4.71809 22.3297 4.71226C22.3434 4.7065 22.3571 4.70091 22.3708 4.69529L22.4119 4.67862C22.4256 4.67316 22.4393 4.6677 22.453 4.66238C22.4667 4.6571 22.4804 4.65202 22.4941 4.64686C22.5078 4.64171 22.5214 4.63639 22.5352 4.63138C22.5488 4.62643 22.5626 4.62182 22.5763 4.61701C22.59 4.6122 22.6037 4.60732 22.6174 4.60264C22.6311 4.59797 22.6448 4.59349 22.6585 4.58899L22.6996 4.57574C22.7133 4.5714 22.727 4.56696 22.7407 4.56273C22.7543 4.55856 22.7681 4.55463 22.7818 4.5506C22.7955 4.54653 22.8092 4.54236 22.8229 4.53843C22.8366 4.53453 22.8503 4.53091 22.864 4.52715L22.9051 4.51607C22.9188 4.51247 22.9324 4.50881 22.9462 4.50536C22.9598 4.50194 22.9736 4.49872 22.9873 4.4954C23.001 4.49208 23.0146 4.48862 23.0284 4.48543C23.042 4.48228 23.0558 4.47933 23.0695 4.47632L23.1106 4.46744C23.1243 4.46456 23.1379 4.46158 23.1517 4.45883C23.1653 4.45609 23.1791 4.45361 23.1928 4.45101C23.2065 4.4484 23.2201 4.44565 23.2339 4.44318L23.275 4.43613L23.3161 4.42939C23.3298 4.42718 23.3434 4.42485 23.3572 4.42278C23.3708 4.42071 23.3846 4.41898 23.3983 4.41705C23.4119 4.41515 23.4256 4.41316 23.4393 4.41136L23.4805 4.40624L23.5215 4.40157C23.5353 4.40004 23.5489 4.39828 23.5626 4.39689C23.5763 4.3955 23.59 4.39448 23.6037 4.39323L23.6448 4.38964C23.6585 4.38849 23.6722 4.38737 23.6859 4.38639C23.6996 4.3854 23.7133 4.38462 23.727 4.38378C23.7407 4.38293 23.7544 4.38195 23.7681 4.3812C23.7818 4.38046 23.7955 4.37995 23.8092 4.37934L23.8503 4.37778C23.864 4.3773 23.8777 4.37659 23.8914 4.37625C23.9051 4.37591 23.9188 4.37595 23.9325 4.37575C23.9462 4.37554 23.9599 4.3753 23.9736 4.37524L23.9918 4.375H24.0147H24.0558H24.0969H24.138H24.1791H24.2202H24.2613H24.3024H24.3435H24.3846H24.4257H24.4668H24.5079H24.549H24.5901H24.6312H24.6723H24.7134H24.7544H24.7955H24.8366H24.8777H24.9188H24.9599H25.001H25.0422H25.0832H25.1244H25.1654H25.2065H25.2476H25.2887H25.3298H25.3709H25.412H25.4531H25.4942H25.5353H25.5764H25.6175H25.6586H25.6997H25.7408H25.7819H25.823H25.8641H25.9052H25.9463H25.9874H26.0284H26.0696H26.1106H26.1518H26.1928H26.2339H26.275H26.3162H26.3572H26.3983H26.4394H26.4805H26.5216H26.5627H26.6038H26.6449H26.686H26.7271H26.7682H26.8093H26.8504H26.8915H26.9326H26.9737H27.0148H27.0559H27.097H27.1381H27.1792H27.2203H27.2614H27.3024H27.3436H27.3846H27.4258H27.4668H27.508H27.549H27.5901H27.6312H27.6723H27.7134H27.7545H27.7956H27.8367H27.8778H27.9189H27.96H28.0011H28.0422H28.0833H28.1244H28.1655H28.2066H28.2477H28.2888H28.3299H28.371H28.4121H28.4532H28.4943H28.5354H28.5765H28.6176H28.6587H28.6998H28.7408H28.7819H28.823H28.8641H28.9053H28.9463H28.9875H29.0285H29.0696H29.1107H29.1518H29.1929H29.234H29.2751H29.3162H29.3573H29.3984H29.4395H29.4806H29.5217H29.5628H29.6039H29.645H29.6861H29.7272H29.7683H29.8094H29.8505H29.8916H29.9327H29.9738H30.0149H30.0559H30.097H30.1381H30.1793H30.2203H30.2552V25.5542C30.2552 25.7384 30.2433 25.9197 30.2203 26.0977C30.2093 26.1834 30.1954 26.2682 30.1793 26.3522C30.167 26.4161 30.1533 26.4796 30.1381 26.5425C30.1254 26.5954 30.1118 26.6481 30.097 26.7002C30.0841 26.746 30.0704 26.7915 30.0559 26.8366C30.0429 26.8775 30.0291 26.918 30.0149 26.9583C30.0017 26.9956 29.9879 27.0327 29.9738 27.0696C29.9605 27.1039 29.9468 27.1381 29.9327 27.172C29.9193 27.204 29.9056 27.2358 29.8916 27.2674C29.8782 27.2973 29.8645 27.3271 29.8505 27.3566C29.8371 27.3849 29.8234 27.413 29.8094 27.4409C29.7959 27.4676 29.7822 27.4942 29.7683 27.5207C29.7548 27.5461 29.7411 27.5715 29.7272 27.5966C29.7136 27.621 29.7001 27.6452 29.6861 27.6692C29.6726 27.6924 29.6589 27.7154 29.645 27.7382C29.6315 27.7604 29.6178 27.7824 29.6039 27.8043C29.5904 27.8256 29.5767 27.8469 29.5628 27.8679C29.5492 27.8886 29.5356 27.9093 29.5217 27.9296C29.5082 27.9494 29.4944 27.969 29.4806 27.9885C29.4671 28.0076 29.4533 28.0265 29.4395 28.0453C29.4259 28.0639 29.4123 28.0824 29.3984 28.1007C29.3849 28.1185 29.3711 28.1362 29.3573 28.1539C29.3438 28.1712 29.33 28.1883 29.3162 28.2053C29.3026 28.2222 29.289 28.239 29.2751 28.2556C29.2616 28.2718 29.2478 28.2879 29.234 28.3039C29.2204 28.3197 29.2068 28.3353 29.1929 28.3509C29.1793 28.3663 29.1657 28.3817 29.1518 28.3969C29.1383 28.4118 29.1245 28.4264 29.1107 28.441C29.0971 28.4556 29.0835 28.4702 29.0696 28.4845C29.056 28.4986 29.0423 28.5124 29.0285 28.5263C29.0149 28.54 29.0013 28.5536 28.9875 28.5672C28.9738 28.5806 28.9602 28.5938 28.9463 28.6071C28.9328 28.62 28.919 28.6329 28.9053 28.6457C28.8916 28.6584 28.878 28.6712 28.8641 28.6837C28.8506 28.696 28.8368 28.7081 28.823 28.7202C28.8093 28.7323 28.7958 28.7445 28.7819 28.7564C28.7684 28.7681 28.7546 28.7795 28.7408 28.791C28.7272 28.8025 28.7136 28.814 28.6998 28.8253C28.6862 28.8364 28.6724 28.8472 28.6587 28.8582C28.645 28.8691 28.6314 28.8801 28.6176 28.8909C28.604 28.9014 28.5902 28.9117 28.5765 28.9221C28.5628 28.9325 28.5492 28.9429 28.5354 28.9532C28.5218 28.9632 28.508 28.9731 28.4943 28.983C28.4806 28.9928 28.467 29.0028 28.4532 29.0125C28.4396 29.0221 28.4258 29.0314 28.4121 29.0408C28.3984 29.0502 28.3848 29.0597 28.371 29.069C28.3574 29.0781 28.3436 29.0869 28.3299 29.0959C28.3162 29.1048 28.3026 29.1139 28.2888 29.1227C28.2752 29.1314 28.2614 29.1397 28.2477 29.1482C28.234 29.1567 28.2204 29.1653 28.2066 29.1737C28.193 29.1819 28.1792 29.1899 28.1655 29.198C28.1518 29.206 28.1382 29.2142 28.1244 29.2221C28.1108 29.2299 28.097 29.2376 28.0833 29.2453L28.0422 29.2681L28.0011 29.2902L27.96 29.3118C27.9463 29.3188 27.9327 29.3259 27.9189 29.3329C27.9053 29.3398 27.8916 29.3465 27.8778 29.3532C27.8641 29.3599 27.8505 29.3668 27.8367 29.3734C27.8231 29.3799 27.8093 29.3861 27.7956 29.3925C27.7819 29.3988 27.7683 29.4053 27.7545 29.4115C27.7409 29.4177 27.7271 29.4236 27.7134 29.4297L27.6723 29.4475L27.6312 29.4648L27.5901 29.4815C27.5764 29.487 27.5628 29.4927 27.549 29.4981C27.5354 29.5034 27.5216 29.5084 27.508 29.5135C27.4942 29.5187 27.4806 29.524 27.4668 29.5291C27.4532 29.5341 27.4395 29.5389 27.4258 29.5437L27.3846 29.5581L27.3436 29.5721C27.3299 29.5766 27.3162 29.5809 27.3024 29.5853C27.2887 29.5898 27.2751 29.5944 27.2614 29.5986C27.2477 29.6028 27.234 29.6067 27.2203 29.6108L27.1792 29.623L27.1381 29.6346C27.1244 29.6384 27.1107 29.642 27.097 29.6456C27.0833 29.6493 27.0697 29.6531 27.0559 29.6567C27.0422 29.6602 27.0285 29.6633 27.0148 29.6666C27.0011 29.67 26.9874 29.6734 26.9737 29.6766L26.9326 29.686L26.8915 29.6949C26.8778 29.6978 26.8642 29.701 26.8504 29.7038C26.8368 29.7066 26.823 29.709 26.8093 29.7116L26.7682 29.7194L26.7271 29.7268C26.7135 29.7292 26.6997 29.7313 26.686 29.7336C26.6723 29.7358 26.6587 29.7382 26.6449 29.7403C26.6313 29.7424 26.6175 29.7442 26.6038 29.7462L26.5627 29.7519C26.549 29.7537 26.5353 29.7556 26.5216 29.7573C26.508 29.759 26.4942 29.7604 26.4805 29.762C26.4668 29.7635 26.4532 29.7652 26.4394 29.7666C26.4258 29.7681 26.4121 29.7693 26.3983 29.7706L26.3572 29.7742C26.3435 29.7754 26.3299 29.7768 26.3162 29.7778C26.3025 29.7788 26.2888 29.7795 26.275 29.7804L26.2339 29.783L26.1928 29.7851C26.1792 29.7858 26.1654 29.7862 26.1518 29.7867C26.138 29.7872 26.1244 29.7878 26.1106 29.7882C26.097 29.7886 26.0833 29.7887 26.0696 29.789L26.0284 29.7895C26.0157 29.7896 26.0029 29.79 25.9901 29.79H25.9874H25.9463H25.9052H25.8641H25.823H25.7819H25.7408H25.6997H25.6586H25.6175H25.5764H25.5353H25.4942H25.4531H25.412H25.3709H25.3298H25.2887H25.2476H25.2065H25.1654H25.1244H25.0832H25.0422H25.001H24.9599H24.9188H24.8777H24.8366H24.7955H24.7544H24.7134H24.6723H24.6312H24.5901H24.549H24.5079H24.4668H24.4257H24.3846H24.3435H24.3024H24.2613H24.2202H24.1791H24.138H24.0969H24.0558H24.0147H23.9736H23.9325H23.8914H23.8503H23.8092H23.7681H23.727H23.6859H23.6448H23.6037H23.5626H23.5215H23.4805H23.4393H23.3983H23.3572H23.3161H23.275H23.2339H23.1928H23.1517H23.1106H23.0695H23.0284H22.9873H22.9462H22.9051H22.864H22.8229H22.7818H22.7407H22.6996H22.6585H22.6174H22.5763H22.5352H22.4941H22.453H22.4119H22.3708H22.3297H22.2887H22.2475H22.2065H22.1653H22.1243H22.0831H22.0421H22.0009H21.9599H21.9188H21.8777H21.8366H21.7955H21.7544H21.7133H21.6722H21.6311H21.59H21.5489H21.5078H21.4667H21.4256H21.3845H21.3434H21.3023H21.2612H21.2201H21.179H21.1379H21.0968H21.0557H21.0146H20.9735H20.9324H20.8913H20.8503H20.8092H20.7681H20.727H20.6859H20.6448H20.6037H20.5626H20.5215H20.4804H20.4393H20.3982H20.3571H20.316H20.2749H20.2338H20.1927H20.1516H20.1105H20.0694H20.0284H19.9872H19.9462H19.9051H19.8639H19.8229H19.7346V20.01C19.7634 20.0345 19.7929 20.0588 19.8229 20.0828C19.8364 20.0937 19.8502 20.1046 19.8639 20.1153C19.8776 20.126 19.8912 20.1366 19.9051 20.1471C19.9187 20.1575 19.9323 20.1679 19.9462 20.1782C19.9597 20.1882 19.9735 20.1982 19.9872 20.2081C20.0008 20.2179 20.0146 20.2277 20.0284 20.2375C20.042 20.2471 20.0556 20.2566 20.0694 20.2662L20.1105 20.2941C20.1241 20.3032 20.1379 20.3123 20.1516 20.3213L20.1927 20.3479C20.2063 20.3567 20.22 20.3654 20.2338 20.374C20.2474 20.3825 20.2612 20.3909 20.2749 20.3993L20.316 20.4241C20.3297 20.4323 20.3433 20.4404 20.3571 20.4484C20.3707 20.4564 20.3844 20.4642 20.3982 20.472L20.4393 20.4952L20.4804 20.5178L20.5215 20.5399C20.5352 20.5471 20.5488 20.5545 20.5626 20.5617C20.5762 20.5687 20.59 20.5757 20.6037 20.5827L20.6448 20.6034L20.6859 20.6237L20.727 20.6434C20.7407 20.6499 20.7543 20.6565 20.7681 20.6629L20.8092 20.6818L20.8503 20.7004L20.8913 20.7185L20.9324 20.7363L20.9735 20.7538L21.0146 20.7708L21.0557 20.7875L21.0968 20.8038L21.1379 20.8199L21.179 20.8354C21.1927 20.8406 21.2063 20.8458 21.2201 20.8509L21.2612 20.8657C21.2749 20.8707 21.2885 20.8757 21.3023 20.8806C21.3159 20.8854 21.3297 20.8901 21.3434 20.8948L21.3845 20.909L21.4256 20.9227C21.4393 20.9272 21.4529 20.9319 21.4667 20.9364C21.4803 20.9408 21.4941 20.9451 21.5078 20.9494L21.5489 20.9625L21.59 20.9751L21.6311 20.9876L21.6722 20.9996L21.7133 21.0115L21.7544 21.0231L21.7955 21.0345L21.8366 21.0456L21.8777 21.0565L21.9188 21.0672L21.9599 21.0776L22.0009 21.0879L22.0421 21.0978L22.0831 21.1077L22.1243 21.1171L22.1653 21.1264L22.2065 21.1355L22.2475 21.1444L22.2887 21.1532L22.3297 21.1616L22.3708 21.17L22.4119 21.178L22.453 21.186L22.4941 21.1937L22.5352 21.2012L22.5763 21.2087L22.6174 21.2158L22.6585 21.2228L22.6996 21.2296L22.7407 21.2363L22.7818 21.2429L22.8229 21.2491L22.864 21.2553L22.9051 21.2613L22.9462 21.267L22.9873 21.2728L23.0284 21.2782L23.0695 21.2836L23.1106 21.2888L23.1517 21.2938L23.1928 21.2988L23.2339 21.3035L23.275 21.3081L23.3161 21.3126L23.3572 21.3168L23.3983 21.321L23.4393 21.3251L23.4805 21.3289L23.5215 21.3328L23.5626 21.3363L23.6037 21.3398L23.6448 21.3433L23.6859 21.3464L23.727 21.3495L23.7681 21.3526L23.8092 21.3554L23.8503 21.3581L23.8914 21.3608L23.9325 21.3632L23.9736 21.3656L24.0147 21.3679L24.0558 21.3699L24.0969 21.3719L24.138 21.3739L24.1791 21.3756L24.2202 21.3773L24.2613 21.3789L24.3024 21.3803L24.3435 21.3816L24.3846 21.3829L24.4257 21.384L24.4668 21.385L24.5079 21.386L24.549 21.3867L24.5901 21.3874L24.6312 21.3881L24.6723 21.3885L24.7134 21.3889L24.7544 21.3892L24.7955 21.3894L24.8366 21.3895L24.8777 21.3895L24.9188 21.3894L24.9599 21.3892L25.001 21.389L25.0422 21.3886L25.0832 21.3881L25.1244 21.3875L25.1654 21.387L25.2065 21.3862L25.2476 21.3853L25.2887 21.3845L25.3298 21.3834L25.3709 21.3823L25.412 21.3812L25.4531 21.38L25.4942 21.3785L25.5353 21.3771L25.5764 21.3757L25.6175 21.374L25.6586 21.3723L25.6997 21.3706L25.7198 21.3698L25.7408 21.3688L25.7819 21.3668L25.823 21.3646L25.8641 21.3624L25.9052 21.3599L25.9463 21.3574L25.9874 21.3547L26.0284 21.3519L26.0696 21.3489L26.1106 21.3458L26.1518 21.3426L26.1928 21.3393L26.2339 21.3358L26.275 21.3322L26.3162 21.3285L26.3572 21.3246L26.3983 21.3207L26.4394 21.3166L26.4805 21.3125L26.5216 21.3082L26.5627 21.3038L26.6038 21.2993L26.6449 21.2947L26.686 21.29L26.7271 21.2852L26.7682 21.2803L26.8093 21.2753L26.8504 21.2701L26.8915 21.2649L26.9326 21.2597L26.9737 21.2542L27.0148 21.2487L27.0559 21.2431L27.097 21.2374L27.1381 21.2317L27.1792 21.2258L27.2203 21.2198L27.2614 21.2137L27.3024 21.2076L27.3436 21.2014L27.3846 21.1951L27.4258 21.1887L27.4668 21.1822L27.508 21.1756L27.549 21.169L27.5901 21.1622L27.6312 21.1554L27.6723 21.1485L27.7134 21.1415L27.7545 21.1344L27.7956 21.1273L27.8367 21.12L27.8778 21.1127L27.9189 21.1053L27.96 21.0979L28.0011 21.0903L28.0422 21.0826L28.0833 21.0749L28.1244 21.0671L28.1655 21.0593L28.2066 21.0513L28.2477 21.0433L28.2888 21.0352L28.3299 21.027L28.371 21.0187L28.4121 21.0103L28.4532 21.0019L28.4943 20.9934L28.5354 20.9848L28.5765 20.976L28.6176 20.9673L28.6587 20.9584L28.6998 20.9495L28.7408 20.9404L28.7819 20.9313L28.823 20.9221L28.8641 20.9127L28.9053 20.9033L28.9463 20.8937L28.9875 20.884L29.0285 20.8741L29.0694 20.8641V19.0723L29.0285 19.0925L28.9875 19.1127L28.9463 19.1326L28.9053 19.1524L28.8641 19.1721L28.823 19.1915L28.7819 19.2107L28.7408 19.2297L28.6998 19.2485L28.6587 19.2672L28.6176 19.2856L28.5765 19.3038L28.5354 19.3217L28.4943 19.3395L28.4532 19.3571L28.4121 19.3744L28.371 19.3916L28.3299 19.4085L28.2888 19.4252L28.2477 19.4417L28.2066 19.4579L28.1655 19.474L28.1244 19.4897L28.0833 19.5053L28.0422 19.5207L28.0011 19.5358L27.96 19.5506L27.9189 19.5653L27.8778 19.5797L27.8367 19.5939L27.7956 19.6079L27.7545 19.6216L27.7134 19.6351L27.6723 19.6484L27.6312 19.6614L27.5901 19.6742L27.549 19.6868L27.508 19.6991L27.4668 19.7112L27.4258 19.7231L27.3846 19.7347L27.3436 19.7461L27.3024 19.7573L27.2614 19.7682L27.2203 19.7789L27.1792 19.7894L27.1381 19.7996L27.097 19.8096L27.0559 19.8195L27.0148 19.829L26.9737 19.8383L26.9326 19.8474L26.8915 19.8563L26.8504 19.8649L26.8093 19.8733L26.7682 19.8815L26.7271 19.8895L26.686 19.8972L26.6449 19.9047L26.6038 19.912L26.5627 19.919L26.5216 19.9258L26.4805 19.9324L26.4394 19.9389L26.3983 19.945L26.3572 19.9509L26.3162 19.9567L26.275 19.9622L26.2339 19.9674L26.1928 19.9725L26.1518 19.9774L26.1106 19.982L26.0696 19.9864L26.0284 19.9906L25.9874 19.9946L25.9463 19.9984L25.9052 20.002L25.8641 20.0053L25.8391 20.0072L25.823 20.0083L25.7819 20.0111L25.7408 20.0138L25.6997 20.016L25.6586 20.0181L25.6175 20.02L25.5764 20.0213L25.5353 20.0226L25.4942 20.0235L25.4531 20.0241L25.412 20.0246C25.3982 20.0247 25.3846 20.0245 25.3709 20.0245L25.3298 20.0243L25.2887 20.0237L25.2476 20.0228L25.2065 20.0218C25.1927 20.0213 25.1791 20.0207 25.1654 20.0201C25.1518 20.0196 25.138 20.0191 25.1244 20.0185L25.0832 20.0162L25.0422 20.0138L25.001 20.0109L24.9599 20.0077C24.9462 20.0066 24.9325 20.0056 24.9188 20.0044C24.9051 20.0031 24.8914 20.0016 24.8777 20.0003L24.8366 19.9962L24.7955 19.9914L24.7544 19.9865L24.7134 19.9811L24.6723 19.9753C24.6585 19.9733 24.6448 19.9714 24.6312 19.9692C24.6174 19.9671 24.6037 19.9648 24.5901 19.9625C24.5764 19.9602 24.5626 19.9581 24.549 19.9557C24.5352 19.9533 24.5216 19.9506 24.5079 19.948C24.4942 19.9455 24.4804 19.9431 24.4668 19.9404C24.453 19.9377 24.4394 19.9347 24.4257 19.9319C24.412 19.929 24.3982 19.9263 24.3846 19.9233C24.3708 19.9203 24.3571 19.9171 24.3435 19.9139L24.3024 19.9043C24.2886 19.901 24.275 19.8975 24.2613 19.894C24.2476 19.8905 24.2338 19.8871 24.2202 19.8835C24.2064 19.8798 24.1928 19.876 24.1791 19.8722C24.1654 19.8684 24.1516 19.8645 24.138 19.8605C24.1242 19.8565 24.1106 19.8523 24.0969 19.8482C24.0832 19.844 24.0694 19.8398 24.0558 19.8354C24.042 19.831 24.0284 19.8265 24.0147 19.8219C24.001 19.8174 23.9872 19.8128 23.9736 19.8081C23.9598 19.8033 23.9462 19.7983 23.9325 19.7934C23.9188 19.7884 23.905 19.7835 23.8914 19.7784C23.8776 19.7731 23.864 19.7677 23.8503 19.7623C23.8366 19.7569 23.8228 19.7516 23.8092 19.7461C23.7954 19.7404 23.7818 19.7345 23.7681 19.7287C23.7544 19.7228 23.7406 19.717 23.727 19.711C23.7132 19.7049 23.6996 19.6985 23.6859 19.6922C23.6722 19.6858 23.6584 19.6794 23.6448 19.6729C23.6311 19.6663 23.6173 19.6595 23.6037 19.6527C23.5899 19.6458 23.5763 19.6388 23.5626 19.6317C23.5489 19.6246 23.5351 19.6175 23.5215 19.6101C23.5077 19.6027 23.4941 19.5949 23.4805 19.5872C23.4667 19.5795 23.4529 19.5718 23.4393 19.5638C23.4255 19.5557 23.4119 19.5474 23.3983 19.5392C23.3844 19.5307 23.3708 19.5221 23.3572 19.5135C23.3434 19.5048 23.3296 19.4962 23.3161 19.4872C23.3022 19.4781 23.2886 19.4686 23.275 19.4592C23.2612 19.4498 23.2474 19.4401 23.2339 19.4304C23.2201 19.4206 23.2063 19.4107 23.1928 19.4006C23.1789 19.3902 23.1653 19.3796 23.1517 19.369C23.1378 19.3582 23.1242 19.3474 23.1106 19.3364C23.0968 19.3252 23.083 19.314 23.0695 19.3025C23.0556 19.2907 23.042 19.2787 23.0284 19.2666C23.0145 19.2543 23.0009 19.2419 22.9873 19.2293C22.9735 19.2164 22.9597 19.2035 22.9462 19.1904C22.9324 19.1769 22.9186 19.1635 22.9051 19.1498C22.8912 19.1356 22.8775 19.1212 22.864 19.1067C22.8501 19.0918 22.8364 19.0767 22.8229 19.0615C22.809 19.0458 22.7953 19.03 22.7818 19.014C22.7679 18.9976 22.7542 18.9809 22.7407 18.9641C22.7268 18.9467 22.713 18.929 22.6996 18.9112C22.6857 18.8928 22.6719 18.8742 22.6585 18.8553C22.6446 18.8357 22.6308 18.8159 22.6174 18.7958C22.6034 18.7748 22.5897 18.7536 22.5763 18.7321C22.5623 18.7096 22.5486 18.6868 22.5352 18.6638C22.5211 18.6396 22.5075 18.615 22.4941 18.5901C22.48 18.5638 22.4663 18.5371 22.453 18.5101C22.4389 18.4814 22.4251 18.4523 22.4119 18.4228C22.3977 18.3911 22.3839 18.3592 22.3708 18.3266C22.3563 18.2907 22.3428 18.254 22.3297 18.217C22.3152 18.176 22.3015 18.1344 22.2887 18.0921C22.2738 18.0431 22.2601 17.9933 22.2475 17.9426C22.232 17.8795 22.2184 17.8151 22.2065 17.7495C22.1887 17.6522 22.175 17.5523 22.1653 17.4496C22.1543 17.331 22.1486 17.2089 22.1486 17.0832C22.1486 16.9574 22.1543 16.8352 22.1653 16.7165C22.175 16.6138 22.1887 16.5138 22.2065 16.4165C22.2184 16.3509 22.232 16.2864 22.2475 16.2233C22.2601 16.1726 22.2738 16.1228 22.2887 16.0737C22.3015 16.0314 22.3152 15.9898 22.3297 15.9487C22.3428 15.9117 22.3563 15.8751 22.3708 15.8391C22.3839 15.8065 22.3977 15.7745 22.4119 15.7428C22.4251 15.7133 22.4389 15.6842 22.453 15.6555C22.4663 15.6285 22.48 15.6017 22.4941 15.5754C22.5075 15.5506 22.5211 15.526 22.5352 15.5017C22.5486 15.4787 22.5623 15.4559 22.5763 15.4334C22.5897 15.4119 22.6034 15.3907 22.6174 15.3697C22.6308 15.3496 22.6446 15.3298 22.6585 15.3101C22.6719 15.2912 22.6857 15.2726 22.6996 15.2542C22.713 15.2363 22.7268 15.2188 22.7407 15.2013C22.7542 15.1845 22.7679 15.1678 22.7818 15.1514C22.7953 15.1353 22.809 15.1195 22.8229 15.1039C22.8364 15.0886 22.8501 15.0735 22.864 15.0586C22.8775 15.0441 22.8912 15.0296 22.9051 15.0155C22.9186 15.0018 22.9324 14.9883 22.9462 14.9749C22.9597 14.9618 22.9735 14.9488 22.9873 14.936C23.0009 14.9234 23.0145 14.9109 23.0284 14.8986C23.042 14.8865 23.0556 14.8745 23.0695 14.8627C23.083 14.8512 23.0968 14.8401 23.1106 14.8288C23.1242 14.8178 23.1378 14.8069 23.1517 14.7962C23.1653 14.7855 23.1789 14.7749 23.1928 14.7646C23.2063 14.7545 23.2201 14.7446 23.2339 14.7347C23.2474 14.725 23.2612 14.7154 23.275 14.7059C23.2886 14.6965 23.3022 14.6871 23.3161 14.6779C23.3296 14.669 23.3434 14.6603 23.3572 14.6516C23.3708 14.6429 23.3844 14.6344 23.3983 14.626C23.4119 14.6177 23.4255 14.6094 23.4393 14.6013C23.4529 14.5934 23.4667 14.5856 23.4805 14.5779C23.4941 14.5702 23.5077 14.5625 23.5215 14.555C23.5351 14.5476 23.5489 14.5405 23.5626 14.5334C23.5763 14.5263 23.5899 14.5193 23.6037 14.5123C23.6173 14.5055 23.6311 14.4988 23.6448 14.4921C23.6584 14.4856 23.6722 14.4792 23.6859 14.4729C23.6996 14.4666 23.7132 14.4602 23.727 14.4541C23.7406 14.448 23.7544 14.4422 23.7681 14.4364C23.7818 14.4305 23.7954 14.4246 23.8092 14.419C23.8228 14.4134 23.8366 14.4081 23.8503 14.4027C23.864 14.3973 23.8776 14.3919 23.8914 14.3867C23.905 14.3815 23.9188 14.3766 23.9325 14.3717C23.9462 14.3667 23.9598 14.3617 23.9736 14.3569C23.9872 14.3522 24.001 14.3476 24.0147 14.3431C24.0284 14.3385 24.042 14.334 24.0558 14.3296C24.0694 14.3252 24.0832 14.321 24.0969 14.3168C24.1106 14.3127 24.1242 14.3085 24.138 14.3045L24.1791 14.2928C24.1928 14.289 24.2064 14.2852 24.2202 14.2815C24.2338 14.2779 24.2476 14.2744 24.2613 14.2709C24.275 14.2675 24.2886 14.264 24.3024 14.2606L24.3435 14.2511C24.3571 14.2479 24.3708 14.2447 24.3846 14.2417C24.3982 14.2387 24.412 14.2359 24.4257 14.2331C24.4394 14.2302 24.453 14.2272 24.4668 14.2245C24.4804 14.2218 24.4942 14.2194 24.5079 14.2169C24.5216 14.2144 24.5352 14.2117 24.549 14.2092C24.5626 14.2068 24.5764 14.2047 24.5901 14.2025C24.6037 14.2002 24.6174 14.1979 24.6312 14.1957L24.6723 14.1897L24.7134 14.1838L24.7544 14.1784L24.7955 14.1735L24.8366 14.1687L24.8777 14.1646C24.8914 14.1633 24.9051 14.1618 24.9188 14.1605C24.9325 14.1593 24.9462 14.1583 24.9599 14.1572L25.001 14.154L25.0422 14.1512L25.0832 14.1487L25.1244 14.1464C25.138 14.1458 25.1518 14.1453 25.1654 14.1448C25.1791 14.1442 25.1927 14.1436 25.2065 14.1431L25.2476 14.1421L25.2887 14.1412L25.3298 14.1406L25.3709 14.1404C25.3846 14.1404 25.3982 14.1402 25.412 14.1403L25.4531 14.1408L25.4942 14.1414L25.5353 14.1423L25.5764 14.1436L25.6175 14.145L25.6586 14.1469L25.6997 14.1489L25.7408 14.1511L25.7819 14.1538L25.823 14.1566L25.8391 14.1577L25.8641 14.1596L25.9052 14.1629L25.9463 14.1664L25.9874 14.1701L26.0284 14.174L26.0696 14.1782L26.1106 14.1826L26.1518 14.1871L26.1928 14.1919L26.2339 14.1969L26.275 14.2021L26.3162 14.2075L26.3572 14.2132L26.3983 14.219L26.4394 14.2251L26.4805 14.2314L26.5216 14.238L26.5627 14.2447L26.6038 14.2517L26.6449 14.2589L26.686 14.2663L26.7271 14.274L26.7682 14.2819L26.8093 14.29L26.8504 14.2983L26.8915 14.3069L26.9326 14.3157L26.9737 14.3247L27.0148 14.3339L27.0559 14.3434L27.097 14.3532L27.1381 14.3631L27.1792 14.3733L27.2203 14.3837L27.2614 14.3944L27.3024 14.4053L27.3436 14.4164L27.3846 14.4278L27.4258 14.4394L27.4668 14.4513L27.508 14.4634L27.549 14.4757L27.5901 14.4883L27.6312 14.501L27.6723 14.5141L27.7134 14.5274L27.7545 14.5409L27.7956 14.5546L27.8367 14.5686L27.8778 14.5828L27.9189 14.5973L27.96 14.612L28.0011 14.6269L28.0422 14.6421L28.0833 14.6575L28.1244 14.6732L28.1655 14.689L28.2066 14.7051L28.2477 14.7215L28.2888 14.738L28.3299 14.7548L28.371 14.7719L28.4121 14.7891L28.4532 14.8066L28.4943 14.8243L28.5354 14.8422L28.5765 14.8603L28.6176 14.8787L28.6587 14.8973L28.6998 14.916L28.7408 14.935L28.7819 14.9542L28.823 14.9736L28.8641 14.9932L28.9053 15.013L28.9463 15.033L28.9875 15.0531L29.0285 15.0735L29.0694 15.0939V13.3008L29.0285 13.2908L28.9875 13.2809L28.9463 13.2712L28.9053 13.2617L28.8641 13.2522L28.823 13.2429L28.7819 13.2336L28.7408 13.2245L28.6998 13.2155L28.6587 13.2065L28.6176 13.1976L28.5765 13.1889L28.5354 13.1802L28.4943 13.1716L28.4532 13.1631L28.4121 13.1546L28.371 13.1463L28.3299 13.138L28.2888 13.1298L28.2477 13.1217L28.2066 13.1137L28.1655 13.1057L28.1244 13.0979L28.0833 13.0901L28.0422 13.0824L28.0011 13.0747L27.96 13.0672L27.9189 13.0597L27.8778 13.0523L27.8367 13.045L27.7956 13.0378L27.7545 13.0307L27.7134 13.0236L27.6723 13.0166L27.6312 13.0097L27.5901 13.0029L27.549 12.9962L27.508 12.9895L27.4668 12.983L27.4258 12.9765L27.3846 12.9701L27.3436 12.9638L27.3024 12.9576L27.2614 12.9514L27.2203 12.9454L27.1792 12.9394L27.1381 12.9336L27.097 12.9278L27.0559 12.9222L27.0148 12.9166L26.9737 12.9111L26.9326 12.9057L26.8915 12.9004L26.8504 12.8952L26.8093 12.8901L26.7682 12.8851L26.7271 12.8802L26.686 12.8754L26.6449 12.8707L26.6038 12.8661L26.5627 12.8616L26.5216 12.8573L26.4805 12.853L26.4394 12.8489L26.3983 12.8448L26.3572 12.8409L26.3162 12.837L26.275 12.8334L26.2339 12.8298L26.1928 12.8263L26.1518 12.823L26.1106 12.8198L26.0696 12.8168L26.0284 12.8138L25.9874 12.811L25.9463 12.8083L25.9052 12.8058L25.8641 12.8034L25.823 12.8011L25.7819 12.799L25.7408 12.797L25.7198 12.796L25.6997 12.7952L25.6586 12.7935L25.6175 12.7918L25.5764 12.7901L25.5353 12.7887L25.4942 12.7873L25.4531 12.7859L25.412 12.7846L25.3709 12.7835L25.3298 12.7824L25.2887 12.7813L25.2476 12.7805L25.2065 12.7797L25.1654 12.7788L25.1244 12.7783L25.0832 12.7777L25.0422 12.7772L25.001 12.7769L24.9599 12.7767L24.9188 12.7764L24.8777 12.7763L24.8366 12.7764L24.7955 12.7764L24.7544 12.7766L24.7134 12.777L24.6723 12.7774L24.6312 12.7778L24.5901 12.7785L24.549 12.7792L24.5079 12.7799L24.4668 12.7809L24.4257 12.7819L24.3846 12.7829L24.3435 12.7842L24.3024 12.7856L24.2613 12.787L24.2202 12.7886L24.1791 12.7903L24.138 12.792L24.0969 12.794L24.0558 12.796L24.0147 12.798L23.9736 12.8003L23.9325 12.8027L23.8914 12.8051L23.8503 12.8078L23.8092 12.8105L23.7681 12.8133L23.727 12.8164L23.6859 12.8195L23.6448 12.8227L23.6037 12.8261L23.5626 12.8295L23.5215 12.8332L23.4805 12.837L23.4393 12.8408L23.3983 12.8449L23.3572 12.8491L23.3161 12.8533L23.275 12.8579L23.2339 12.8625L23.1928 12.8672L23.1517 12.8722L23.1106 12.8772L23.0695 12.8824L23.0284 12.8878L22.9873 12.8932L22.9462 12.8989L22.9051 12.9047L22.864 12.9107L22.8229 12.9169L22.7818 12.9231L22.7407 12.9297L22.6996 12.9364L22.6585 12.9432L22.6174 12.9502L22.5763 12.9573L22.5352 12.9648L22.4941 12.9723L22.453 12.9801L22.4119 12.988L22.3708 12.996L22.3297 13.0045L22.2887 13.0129L22.2475 13.0216L22.2065 13.0306L22.1653 13.0396L22.1243 13.049L22.0831 13.0584L22.0421 13.0683L22.0009 13.0782L21.9599 13.0885L21.9188 13.0989L21.8777 13.1096L21.8366 13.1205L21.7955 13.1316L21.7544 13.1431L21.7133 13.1546L21.6722 13.1666L21.6311 13.1786L21.59 13.1911L21.5489 13.2037L21.5078 13.2168C21.4941 13.2212 21.4803 13.2254 21.4667 13.2299L21.4256 13.2435C21.4119 13.2481 21.3981 13.2525 21.3845 13.2572L21.3434 13.2714L21.3023 13.2856C21.2885 13.2905 21.2749 13.2956 21.2612 13.3005C21.2475 13.3055 21.2337 13.3104 21.2201 13.3154L21.179 13.3309C21.1653 13.3361 21.1515 13.3412 21.1379 13.3464L21.0968 13.3625L21.0557 13.3788L21.0146 13.3956L20.9735 13.4126L20.9324 13.43L20.8913 13.4478L20.8503 13.4659L20.8092 13.4846L20.7681 13.5034C20.7543 13.5099 20.7407 13.5164 20.727 13.523L20.6859 13.5427L20.6448 13.563L20.6037 13.5837C20.59 13.5908 20.5762 13.5977 20.5626 13.6048C20.5488 13.612 20.5352 13.6193 20.5215 13.6266L20.4804 13.6487L20.4393 13.6713C20.4255 13.679 20.4118 13.6867 20.3982 13.6945C20.3844 13.7023 20.3707 13.7101 20.3571 13.7181C20.3433 13.7261 20.3297 13.7342 20.316 13.7424C20.3022 13.7506 20.2885 13.7589 20.2749 13.7672C20.2612 13.7756 20.2474 13.784 20.2338 13.7925C20.22 13.8012 20.2063 13.8099 20.1927 13.8186L20.1516 13.8453C20.1379 13.8543 20.1241 13.8633 20.1105 13.8724L20.0694 13.9004C20.0556 13.91 20.042 13.9195 20.0284 13.9291C20.0146 13.9389 20.0008 13.9487 19.9872 13.9585C19.9735 13.9685 19.9597 13.9784 19.9462 13.9885C19.9323 13.9988 19.9187 14.0091 19.9051 14.0195C19.8912 14.0301 19.8776 14.0407 19.8639 14.0513C19.8502 14.0621 19.8364 14.0729 19.8229 14.0839V14.0838Z" fill="#E10238"/>
</svg>
