<svg width="52" height="35" viewBox="0 0 52 35" xmlns="http://www.w3.org/2000/svg">
<rect x="0.879272" y="0.5" width="49.6897" height="34" rx="3.5" fill="white" stroke="#F3F3F3"/>
<path fill-rule="evenodd" clip-rule="evenodd" d="M24.778 21.103V17.1558V17.155H26.9107C27.79 17.1556 28.529 16.8789 29.1277 16.3251C29.7327 15.7996 30.071 15.0439 30.0538 14.2563C30.0658 13.473 29.7281 12.7229 29.1277 12.199C28.5343 11.6422 27.7362 11.3384 26.9107 11.3551H23.4871V21.103H24.778ZM24.778 15.958V12.5553V12.5545H26.9428C27.4253 12.5413 27.8904 12.7297 28.2201 13.0717C28.5517 13.3845 28.7389 13.8141 28.7389 14.2629C28.7389 14.7116 28.5517 15.1412 28.2201 15.454C27.8864 15.7889 27.4227 15.9718 26.9428 15.958H24.778Z" fill="#5F6368"/>
<path fill-rule="evenodd" clip-rule="evenodd" d="M35.2879 14.9578C34.7358 14.4632 33.9826 14.2158 33.0285 14.2158C31.8028 14.2158 30.8773 14.6514 30.2518 15.5225L31.3888 16.217C31.8089 15.627 32.3796 15.3319 33.1006 15.3319C33.5604 15.3267 34.0053 15.4897 34.3466 15.7885C34.687 16.0615 34.8828 16.4684 34.8798 16.8968V17.183C34.3838 16.9108 33.7525 16.7747 32.986 16.7747C32.088 16.7757 31.3701 16.98 30.8324 17.3876C30.2946 17.7952 30.0257 18.344 30.0257 19.0342C30.014 19.6626 30.295 20.2626 30.7907 20.6675C31.3006 21.103 31.9343 21.3208 32.6917 21.3208C33.579 21.3208 34.29 20.9397 34.8245 20.1775H34.8806V21.103H36.1154V16.9925C36.1159 16.1307 35.8401 15.4525 35.2879 14.9578ZM31.7866 19.878C31.5161 19.689 31.3566 19.3847 31.3584 19.0614C31.3584 18.6982 31.534 18.3956 31.8876 18.1467C32.2377 17.9015 32.6749 17.7788 33.1993 17.7788C33.9193 17.7788 34.4806 17.9344 34.8831 18.2455C34.8831 18.7713 34.6693 19.2294 34.2417 19.6198C33.8565 19.9935 33.3343 20.2038 32.7896 20.2047C32.4264 20.2113 32.0721 20.0959 31.7866 19.878Z" fill="#5F6368"/>
<path fill-rule="evenodd" clip-rule="evenodd" d="M43.2033 14.4336L38.8928 24.043H37.5602L39.1598 20.6807L36.3254 14.4336H37.7286L39.7772 19.2247H39.8052L41.7977 14.4336H43.2033Z" fill="#5F6368"/>
<path fill-rule="evenodd" clip-rule="evenodd" d="M19.5615 16.3057C19.5619 15.924 19.5287 15.5431 19.462 15.167H14.0178V17.3238H17.136C17.0071 18.0198 16.5906 18.6346 15.983 19.0255V20.4255H17.844C18.9336 19.451 19.5615 18.0098 19.5615 16.3057Z" fill="#4285F4"/>
<path fill-rule="evenodd" clip-rule="evenodd" d="M14.0178 21.7782C15.5757 21.7782 16.8875 21.282 17.844 20.4264L15.983 19.0264C15.4651 19.3671 14.798 19.5616 14.0178 19.5616C12.5121 19.5616 11.234 18.5769 10.777 17.25H8.85986V18.6928C9.83978 20.5843 11.8355 21.7781 14.0178 21.7782Z" fill="#34A853"/>
<path fill-rule="evenodd" clip-rule="evenodd" d="M10.7771 17.2494C10.5354 16.5541 10.5354 15.8012 10.7771 15.1059V13.6631H8.85996C8.04033 15.2452 8.04033 17.1101 8.85996 18.6922L10.7771 17.2494Z" fill="#FBBC04"/>
<path fill-rule="evenodd" clip-rule="evenodd" d="M14.0178 12.7942C14.8411 12.7811 15.6366 13.0829 16.2324 13.6342L17.8801 12.0358C16.8353 11.0839 15.4511 10.5613 14.0178 10.5775C11.8355 10.5776 9.83978 11.7714 8.85986 13.663L10.777 15.1057C11.234 13.7789 12.5121 12.7942 14.0178 12.7942Z" fill="#EA4335"/>
</svg>
