<svg width="51" height="35" viewBox="0 0 51 35" xmlns="http://www.w3.org/2000/svg">
<rect x="0.5" y="0.5" width="49.6897" height="34" rx="3.5" fill="white" stroke="#F3F3F3"/>
<path fill-rule="evenodd" clip-rule="evenodd" d="M23.1063 17.724L23.327 16.3166L22.8354 16.3051H20.488L22.1194 5.91924C22.1244 5.88779 22.1409 5.85859 22.1649 5.83783C22.189 5.81706 22.2197 5.80566 22.2519 5.80566H26.21C27.5241 5.80566 28.4309 6.08017 28.9043 6.62205C29.1263 6.87625 29.2677 7.14197 29.3361 7.43428C29.4078 7.74106 29.409 8.10753 29.339 8.55459L29.334 8.58711V8.8736L29.5559 8.99987C29.7428 9.09944 29.8914 9.21337 30.0053 9.3438C30.1952 9.56122 30.318 9.8375 30.3699 10.1649C30.4235 10.5017 30.4058 10.9026 30.318 11.3565C30.2167 11.8784 30.053 12.333 29.8318 12.705C29.6285 13.0477 29.3694 13.3321 29.0618 13.5523C28.768 13.7617 28.4191 13.9206 28.0246 14.0223C27.6422 14.1222 27.2063 14.1727 26.7282 14.1727H26.4201C26.1999 14.1727 25.986 14.2523 25.818 14.3951C25.6496 14.5408 25.5383 14.7399 25.5041 14.9577L25.4808 15.0845L25.0909 17.5652L25.0733 17.6562C25.0685 17.6851 25.0605 17.6994 25.0487 17.7091C25.0382 17.718 25.023 17.724 25.0082 17.724H23.1063Z" fill="#28356A"/>
<path fill-rule="evenodd" clip-rule="evenodd" d="M29.7662 8.62012C29.7545 8.69595 29.7409 8.77345 29.7258 8.85308C29.2038 11.544 27.418 12.4736 25.1372 12.4736H23.9759C23.697 12.4736 23.4619 12.6769 23.4185 12.9532L22.6555 17.8124C22.6273 17.9939 22.7665 18.1573 22.9488 18.1573H25.0085C25.2523 18.1573 25.4595 17.9794 25.4979 17.7379L25.5182 17.6328L25.906 15.1619L25.9309 15.0263C25.9689 14.784 26.1765 14.606 26.4204 14.606H26.7284C28.7239 14.606 30.2862 13.7926 30.7428 11.4385C30.9334 10.4551 30.8347 9.63398 30.33 9.05649C30.1773 8.88239 29.9878 8.73785 29.7662 8.62012Z" fill="#298FC2"/>
<path fill-rule="evenodd" clip-rule="evenodd" d="M29.2202 8.40197C29.1405 8.37859 29.0582 8.35747 28.9738 8.33836C28.8889 8.31973 28.8021 8.30323 28.7126 8.28875C28.3995 8.23796 28.0563 8.21387 27.6889 8.21387H24.5865C24.51 8.21387 24.4374 8.23119 24.3726 8.26252C24.2294 8.3316 24.1232 8.4676 24.0974 8.6341L23.4374 12.8313L23.4185 12.9536C23.4618 12.6773 23.6969 12.474 23.9759 12.474H25.1372C27.4179 12.474 29.2038 11.544 29.7258 8.85354C29.7414 8.77391 29.7545 8.69641 29.7662 8.62058C29.6342 8.5502 29.4912 8.49003 29.3371 8.43876C29.2991 8.42606 29.2598 8.41384 29.2202 8.40197Z" fill="#22284F"/>
<path fill-rule="evenodd" clip-rule="evenodd" d="M24.0973 8.63404C24.1231 8.46754 24.2293 8.33153 24.3725 8.26294C24.4378 8.23149 24.5099 8.21416 24.5864 8.21416H27.6888C28.0562 8.21416 28.3994 8.23837 28.7125 8.28917C28.802 8.30352 28.8888 8.32014 28.9737 8.33877C29.0581 8.35776 29.1404 8.379 29.2202 8.40226C29.2597 8.41413 29.299 8.42647 29.3374 8.4387C29.4914 8.48997 29.6346 8.55061 29.7666 8.62051C29.9219 7.62611 29.7653 6.94906 29.2298 6.33597C28.6394 5.66093 27.574 5.37207 26.2106 5.37207H22.2523C21.9739 5.37207 21.7363 5.57537 21.6933 5.85212L20.0446 16.3448C20.0121 16.5523 20.1716 16.7396 20.3801 16.7396H22.8237L24.0973 8.63404Z" fill="#28356A"/>
<path fill-rule="evenodd" clip-rule="evenodd" d="M11.4442 20.5811H8.55825C8.36074 20.5811 8.19278 20.7251 8.16193 20.9209L6.99472 28.3511C6.97155 28.4978 7.08467 28.6299 7.23277 28.6299H8.61049C8.808 28.6299 8.97596 28.4859 9.00681 28.2898L9.32158 26.2856C9.35195 26.0895 9.52027 25.9454 9.71743 25.9454H10.631C12.532 25.9454 13.6291 25.0217 13.9157 23.1915C14.0448 22.3907 13.9212 21.7615 13.5477 21.3209C13.1375 20.837 12.41 20.5811 11.4442 20.5811ZM11.777 23.2949C11.6192 24.3346 10.8279 24.3346 10.063 24.3346H9.6274L9.93295 22.3928C9.95115 22.2754 10.0523 22.189 10.1705 22.189H10.3702C10.8913 22.189 11.3829 22.189 11.6369 22.4873C11.7884 22.6652 11.8348 22.9296 11.777 23.2949Z" fill="#28356A"/>
<path fill-rule="evenodd" clip-rule="evenodd" d="M20.1444 23.2048H18.7624C18.6447 23.2048 18.5429 23.2912 18.5248 23.4085L18.4636 23.7966L18.367 23.656C18.0679 23.22 17.4006 23.0742 16.7348 23.0742C15.2076 23.0742 13.9032 24.2356 13.6492 25.8647C13.5172 26.6773 13.7049 27.4544 14.1641 27.9963C14.5853 28.4945 15.1878 28.7021 15.9047 28.7021C17.1353 28.7021 17.8175 27.9077 17.8175 27.9077L17.7559 28.2933C17.7328 28.4407 17.8459 28.5729 17.9932 28.5729H19.2379C19.4359 28.5729 19.603 28.4288 19.6342 28.2327L20.3811 23.4835C20.4048 23.3373 20.292 23.2048 20.1444 23.2048ZM18.218 25.9054C18.0846 26.698 17.4581 27.2302 16.6588 27.2302C16.2575 27.2302 15.9368 27.1009 15.7308 26.8561C15.5266 26.6129 15.449 26.2668 15.5139 25.8812C15.6385 25.0953 16.2756 24.5457 17.0627 24.5457C17.4551 24.5457 17.7741 24.6767 17.9843 24.9236C18.1948 25.1732 18.2784 25.5215 18.218 25.9054Z" fill="#28356A"/>
<path fill-rule="evenodd" clip-rule="evenodd" d="M27.3983 23.3232H26.0095C25.877 23.3232 25.7525 23.3893 25.6775 23.5L23.7621 26.3327L22.9501 23.6104C22.8991 23.4401 22.7426 23.3232 22.5653 23.3232H21.2007C21.0347 23.3232 20.9196 23.4859 20.9723 23.6427L22.5021 28.1499L21.0639 30.1883C20.9508 30.3488 21.0648 30.5696 21.2601 30.5696H22.6472C22.7789 30.5696 22.902 30.5051 22.9767 30.3968L27.5957 23.7024C27.7063 23.5423 27.5928 23.3232 27.3983 23.3232Z" fill="#28356A"/>
<path fill-rule="evenodd" clip-rule="evenodd" d="M32.028 20.5811H29.1417C28.9447 20.5811 28.7767 20.7251 28.7459 20.9209L27.5786 28.3511C27.5555 28.4978 27.6686 28.6299 27.8159 28.6299H29.297C29.4345 28.6299 29.5522 28.5291 29.5737 28.3918L29.905 26.2856C29.9354 26.0895 30.1038 25.9454 30.3009 25.9454H31.2141C33.1154 25.9454 34.2122 25.0217 34.4992 23.1915C34.6287 22.3907 34.5043 21.7615 34.1308 21.3209C33.721 20.837 32.9939 20.5811 32.028 20.5811ZM32.361 23.2949C32.2036 24.3346 31.4123 24.3346 30.6469 24.3346H30.2119L30.5178 22.3928C30.5359 22.2754 30.6364 22.189 30.7549 22.189H30.9546C31.4752 22.189 31.9673 22.189 32.2213 22.4873C32.3728 22.6652 32.4188 22.9296 32.361 23.2949Z" fill="#298FC2"/>
<path fill-rule="evenodd" clip-rule="evenodd" d="M40.7265 23.2048H39.3453C39.2268 23.2048 39.126 23.2912 39.1082 23.4085L39.047 23.7966L38.95 23.656C38.6508 23.22 37.9841 23.0742 37.3181 23.0742C35.791 23.0742 34.4871 24.2356 34.2331 25.8647C34.1015 26.6773 34.2883 27.4544 34.7474 27.9963C35.1695 28.4945 35.7711 28.7021 36.4881 28.7021C37.7186 28.7021 38.4009 27.9077 38.4009 27.9077L38.3394 28.2933C38.3162 28.4407 38.4292 28.5729 38.5774 28.5729H39.8218C40.0188 28.5729 40.1868 28.4288 40.2177 28.2327L40.9649 23.4835C40.9877 23.3373 40.8746 23.2048 40.7265 23.2048ZM38.8001 25.9054C38.6676 26.698 38.0401 27.2302 37.2409 27.2302C36.8404 27.2302 36.5189 27.1009 36.3129 26.8561C36.1088 26.6129 36.0319 26.2668 36.096 25.8812C36.2214 25.0953 36.8577 24.5457 37.6447 24.5457C38.0372 24.5457 38.3562 24.6767 38.5663 24.9236C38.7777 25.1732 38.8612 25.5215 38.8001 25.9054Z" fill="#298FC2"/>
<path fill-rule="evenodd" clip-rule="evenodd" d="M42.2406 20.7853L41.0561 28.3515C41.033 28.4982 41.146 28.6302 41.2932 28.6302H42.4841C42.6821 28.6302 42.8499 28.4863 42.8803 28.2901L44.0483 20.8603C44.0716 20.7136 43.9585 20.5811 43.8112 20.5811H42.4778C42.3601 20.5814 42.2588 20.6679 42.2406 20.7853Z" fill="#298FC2"/>
</svg>
