<svg width="52" height="35" viewBox="0 0 52 35" xmlns="http://www.w3.org/2000/svg">
<rect x="1.32764" y="0.5" width="49.6897" height="34" rx="3.5" fill="white" stroke="#F3F3F3"/>
<path d="M23.3336 24.0045H19.9589L22.0697 11.7539H25.4443L23.3336 24.0045Z" fill="#15195A"/>
<path d="M35.5673 12.0528C34.9016 11.8049 33.8458 11.5312 32.5404 11.5312C29.2077 11.5312 26.8608 13.1993 26.8464 15.5842C26.8187 17.3437 28.5267 18.321 29.8041 18.9077C31.1098 19.5072 31.5536 19.8985 31.5536 20.4329C31.5403 21.2536 30.4985 21.6319 29.5269 21.6319C28.1795 21.6319 27.4576 21.4369 26.3605 20.9803L25.9161 20.7845L25.4438 23.5345C26.2354 23.873 27.6936 24.1733 29.2077 24.1865C32.7487 24.1865 35.054 22.5442 35.0814 20.0028C35.0948 18.6082 34.193 17.5396 32.2486 16.6665C31.0682 16.1059 30.3454 15.728 30.3454 15.1544C30.3592 14.6331 30.9568 14.099 32.2892 14.099C33.3863 14.0729 34.1924 14.3204 34.8031 14.5681L35.1083 14.6982L35.5673 12.0528Z" fill="#15195A"/>
<path fill-rule="evenodd" clip-rule="evenodd" d="M41.6082 11.7539H44.2186L46.9412 24.0044H43.8165C43.8165 24.0044 43.5107 22.5968 43.4138 22.1667H39.0809C38.9556 22.4923 38.3726 24.0044 38.3726 24.0044H34.8315L39.8444 12.7703C40.1917 11.9753 40.8032 11.7539 41.6082 11.7539ZM41.4003 16.2369C41.4003 16.2369 40.3309 18.9608 40.053 19.6646H42.858C42.7193 19.0521 42.0802 16.1197 42.0802 16.1197L41.8443 15.0641C41.745 15.3359 41.6014 15.7096 41.5045 15.9617C41.4388 16.1325 41.3947 16.2475 41.4003 16.2369Z" fill="#15195A"/>
<path fill-rule="evenodd" clip-rule="evenodd" d="M5.33643 11.7539H10.7661C11.5021 11.7797 12.0993 12.0013 12.2936 12.7837L13.4735 18.4118C13.4737 18.4123 13.4739 18.4129 13.474 18.4134L13.8352 20.1077L17.1402 11.7539H20.7088L15.4042 23.9915H11.8354L8.82751 13.3469C7.78967 12.7773 6.6052 12.3193 5.28088 12.0014L5.33643 11.7539Z" fill="#15195A"/>
</svg>
