<svg width="51" height="35" viewBox="0 0 51 35" xmlns="http://www.w3.org/2000/svg">
<rect x="0.5" y="0.5" width="49.6897" height="34" rx="3.5" fill="white" stroke="#F3F3F3"/>
<path d="M10.3216 13.2754C10.6216 13.7708 10.7569 14.2811 10.7569 14.9258C10.7569 16.9818 9.00142 19.6527 7.57665 21.5282H4.32236L3.01721 13.7255L5.86669 13.4551L6.55674 19.0072C7.20151 17.957 7.99716 16.3066 7.99716 15.1814C7.99716 14.5655 7.89164 14.146 7.7267 13.8006L10.3216 13.2754Z" fill="#008CFF"/>
<path d="M14.0147 16.7117C14.5391 16.7117 15.8592 16.4719 15.8592 15.7217C15.8592 15.3615 15.6045 15.1819 15.3043 15.1819C14.7791 15.1819 14.0898 15.8115 14.0147 16.7117ZM13.9547 18.1974C13.9547 19.1133 14.4641 19.4727 15.1394 19.4727C15.8748 19.4727 16.579 19.293 17.4942 18.828L17.1495 21.1683C16.5046 21.4833 15.4997 21.6935 14.5242 21.6935C12.0499 21.6935 11.1643 20.1932 11.1643 18.3177C11.1643 15.8867 12.6048 13.3055 15.5746 13.3055C17.2097 13.3055 18.124 14.2214 18.124 15.4967C18.1242 17.5527 15.4849 18.1825 13.9547 18.1974Z" fill="#008CFF"/>
<path d="M26.3474 15.0766C26.3474 15.3766 26.302 15.8118 26.2565 16.0963L25.4016 21.4983H22.627L23.4069 16.5463C23.4217 16.412 23.4672 16.1416 23.4672 15.9916C23.4672 15.6314 23.2421 15.5415 22.9715 15.5415C22.612 15.5415 22.2517 15.7064 22.0118 15.8268L21.1271 21.4984H18.3369L19.6116 13.4106H22.0266L22.0572 14.0561C22.6269 13.681 23.3771 13.2754 24.4415 13.2754C25.8518 13.2752 26.3474 13.9957 26.3474 15.0766Z" fill="#008CFF"/>
<path d="M34.5846 14.1909C35.3793 13.6213 36.1297 13.3055 37.1642 13.3055C38.5888 13.3055 39.0844 14.026 39.0844 15.1068C39.0844 15.4069 39.039 15.8421 38.9938 16.1266L38.1397 21.5286H35.3643L36.1593 16.472C36.1738 16.3368 36.2047 16.1719 36.2047 16.0673C36.2047 15.6617 35.9795 15.5718 35.7089 15.5718C35.3643 15.5718 35.0198 15.7218 34.764 15.8571L33.8795 21.5287H31.1049L31.8996 16.472C31.9142 16.3369 31.9442 16.172 31.9442 16.0674C31.9442 15.6618 31.7188 15.5719 31.4492 15.5719C31.0891 15.5719 30.7295 15.7368 30.4895 15.8571L29.6042 21.5288H26.8149L28.0895 13.4409H30.475L30.55 14.1161C31.1049 13.7115 31.8544 13.3058 32.8593 13.3058C33.7295 13.3055 34.299 13.6807 34.5846 14.1909Z" fill="#008CFF"/>
<path d="M44.6056 16.5467C44.6056 15.8864 44.4404 15.4363 43.9459 15.4363C42.851 15.4363 42.626 17.3718 42.626 18.3619C42.626 19.113 42.8362 19.5779 43.3308 19.5779C44.3657 19.5779 44.6056 17.5367 44.6056 16.5467ZM39.8063 18.2424C39.8063 15.6918 41.1559 13.3053 44.2611 13.3053C46.6009 13.3053 47.4562 14.6861 47.4562 16.592C47.4562 19.113 46.1211 21.7237 42.941 21.7237C40.5862 21.7237 39.8063 20.178 39.8063 18.2424Z" fill="#008CFF"/>
</svg>
