<svg width="52" height="35" viewBox="0 0 52 35" xmlns="http://www.w3.org/2000/svg">
<rect x="0.879272" y="0.5" width="49.6897" height="34" rx="3.5" fill="white" stroke="#F3F3F3"/>
<path fill-rule="evenodd" clip-rule="evenodd" d="M43.789 5.25735L34.129 5.25488C34.1278 5.25488 34.1265 5.25488 34.1265 5.25488C34.119 5.25488 34.1117 5.2562 34.1044 5.2562C32.7773 5.29641 31.1245 6.34915 30.8235 7.64726L26.2552 27.6401C25.9541 28.9503 26.7731 30.0165 28.0905 30.0361H38.2388C39.5362 29.9726 40.7969 28.932 41.0927 27.6486L45.6612 7.65564C45.9671 6.33208 45.1284 5.25735 43.789 5.25735Z" fill="#01798A"/>
<path fill-rule="evenodd" clip-rule="evenodd" d="M26.2554 27.6396L30.8237 7.6468C31.1248 6.34868 32.7776 5.29594 34.1047 5.25573L30.2638 5.25327L23.3439 5.25195C22.0131 5.27887 20.3387 6.339 20.0378 7.6468L15.4681 27.6396C15.166 28.9499 15.9861 30.016 17.3028 30.0356H28.0908C26.7733 30.016 25.9544 28.9499 26.2554 27.6396" fill="#024381"/>
<path fill-rule="evenodd" clip-rule="evenodd" d="M15.468 27.64L20.0377 7.64714C20.3386 6.33934 22.013 5.27922 23.3438 5.2523L14.4788 5.25C13.1406 5.25 11.4249 6.32227 11.1191 7.64714L6.54939 27.64C6.52158 27.762 6.50615 27.8815 6.49695 27.9986V28.3695C6.5864 29.3246 7.32389 30.0201 8.384 30.036H17.3026C15.986 30.0163 15.1659 28.9502 15.468 27.64Z" fill="#DD0228"/>
<path fill-rule="evenodd" clip-rule="evenodd" d="M23.5307 19.8206H23.6985C23.8526 19.8206 23.9563 19.7694 24.005 19.6681L24.4409 19.0228H25.6083L25.3649 19.4472H26.7646L26.5871 20.0975H24.9215C24.7296 20.383 24.4935 20.5172 24.2096 20.5013H23.342L23.5307 19.8206H23.5307ZM23.3391 20.7526H26.4058L26.2103 21.459H24.977L24.7888 22.1409H25.9889L25.7935 22.8472H24.5933L24.3145 23.8548C24.2455 24.0232 24.3363 24.0989 24.5854 24.0817H25.5635L25.3822 24.7381H23.5044C23.1484 24.7381 23.0263 24.5367 23.138 24.133L23.4944 22.8472H22.7273L22.9222 22.1409H23.6894L23.8774 21.459H23.1441L23.3391 20.7526H23.3391ZM28.2337 19.018L28.1854 19.4315C28.1854 19.4315 28.7639 19.002 29.2893 19.002H31.2307L30.4883 21.6601C30.4267 21.964 30.1627 22.1151 29.6964 22.1151H27.4959L26.9805 23.9817C26.9508 24.0817 26.9928 24.133 27.1038 24.133H27.5368L27.3776 24.7124H26.2769C25.8544 24.7124 25.6787 24.5867 25.7484 24.3343L27.2049 19.018H28.2337H28.2337ZM29.8779 19.7694H28.1451L27.9378 20.4867C27.9378 20.4867 28.2264 20.2806 28.7086 20.2732C29.1895 20.2658 29.7385 20.2732 29.7385 20.2732L29.8779 19.7694ZM29.2501 21.4333C29.3782 21.4505 29.4499 21.4003 29.4585 21.282L29.5645 20.9039H27.8291L27.6835 21.4333H29.2501ZM28.0794 22.2921H29.0797L29.0612 22.7202H29.3275C29.4621 22.7202 29.5288 22.6776 29.5288 22.5935L29.6076 22.3165H30.439L30.328 22.7202C30.2341 23.057 29.9851 23.2326 29.5806 23.2498H29.0477L29.0452 23.9817C29.0354 24.0989 29.1426 24.1586 29.3633 24.1586H29.8642L29.7025 24.7381H28.5013C28.1646 24.7539 27.9994 24.5953 28.0029 24.2587L28.0794 22.2921V22.2921Z" fill="white"/>
<path fill-rule="evenodd" clip-rule="evenodd" d="M15.9579 15.4759C15.8222 16.1334 15.5077 16.6385 15.0198 16.9971C14.5364 17.3497 13.9128 17.5265 13.1494 17.5265C12.431 17.5265 11.9043 17.346 11.5682 16.9837C11.3351 16.7262 11.2191 16.3993 11.2191 16.0041C11.2191 15.8406 11.2389 15.665 11.2784 15.4759L12.0918 11.5967H13.3202L12.5179 15.432C12.4932 15.5381 12.4834 15.6369 12.4847 15.726C12.4834 15.9224 12.5327 16.0834 12.6326 16.209C12.7781 16.3957 13.0143 16.4884 13.343 16.4884C13.721 16.4884 14.0325 16.397 14.2742 16.2127C14.516 16.0297 14.6739 15.7699 14.7448 15.432L15.5496 11.5967H16.7718L15.9579 15.4759Z" fill="white"/>
<path fill-rule="evenodd" clip-rule="evenodd" d="M21.1168 13.9498H22.079L21.3253 17.4119H20.3651L21.1168 13.9498ZM21.4196 12.6885H22.3903L22.209 13.5288H21.2384L21.4196 12.6885Z" fill="white"/>
<path fill-rule="evenodd" clip-rule="evenodd" d="M22.9307 17.1492C22.6791 16.9113 22.552 16.5905 22.5508 16.1831C22.5508 16.1135 22.5551 16.0343 22.5644 15.9476C22.5737 15.8597 22.5854 15.7743 22.602 15.6951C22.7161 15.1327 22.9591 14.6863 23.3334 14.3568C23.7071 14.0263 24.158 13.8604 24.6858 13.8604C25.1181 13.8604 25.461 13.9799 25.7121 14.219C25.963 14.4594 26.0888 14.7838 26.0888 15.1962C26.0888 15.2669 26.0833 15.3486 26.074 15.4365C26.0629 15.5255 26.0494 15.6109 26.0338 15.6951C25.9223 16.2489 25.68 16.6905 25.3057 17.0139C24.9313 17.3396 24.4817 17.5017 23.9575 17.5017C23.5234 17.5017 23.1817 17.3846 22.9307 17.1492M24.7642 16.4636C24.9338 16.2819 25.0553 16.0061 25.1293 15.639C25.1404 15.5817 25.1502 15.5219 25.1564 15.4621C25.1625 15.4035 25.165 15.3486 25.165 15.2986C25.165 15.0851 25.1101 14.9193 24.9997 14.8021C24.89 14.6838 24.734 14.6253 24.5324 14.6253C24.2659 14.6253 24.0488 14.7179 23.8787 14.9034C23.7071 15.0888 23.5857 15.3694 23.5092 15.7427C23.4987 15.8 23.4901 15.8574 23.4821 15.9135C23.476 15.9708 23.4742 16.0245 23.4753 16.0732C23.4753 16.2855 23.5302 16.449 23.6406 16.5649C23.7503 16.6808 23.9056 16.7381 24.1099 16.7381C24.3776 16.7381 24.5946 16.6466 24.7642 16.4636" fill="white"/>
<path fill-rule="evenodd" clip-rule="evenodd" d="M32.331 19.8497L32.563 19.0422H33.7359L33.6853 19.3385C33.6853 19.3385 34.2847 19.0422 34.7164 19.0422C35.1481 19.0422 36.1667 19.0422 36.1667 19.0422L35.9362 19.8497H35.708L34.614 23.6583H34.8421L34.6251 24.4146H34.3969L34.302 24.7427H33.1661L33.2608 24.4146H31.0199L31.2383 23.6583H31.4628L32.5579 19.8497H32.331H32.331ZM33.5965 19.8497L33.298 20.8805C33.298 20.8805 33.8087 20.6866 34.249 20.6317C34.3462 20.2718 34.4733 19.8497 34.4733 19.8497H33.5965L33.5965 19.8497ZM33.1597 21.3636L32.8602 22.4432C32.8602 22.4432 33.4262 22.1675 33.8147 22.1443C33.9269 21.7271 34.0392 21.3636 34.0392 21.3636H33.1597ZM33.3792 23.6583L33.6038 22.8751H32.7282L32.5025 23.6583H33.3792ZM36.2161 18.9922H37.3188L37.3656 19.3946C37.3583 19.4971 37.4198 19.546 37.5506 19.546H37.7454L37.5483 20.2279H36.7378C36.4283 20.2437 36.2692 20.1267 36.2544 19.8741L36.2161 18.9922ZM35.893 20.4548H39.4649L39.2553 21.1868H38.1181L37.9231 21.8674H39.0591L38.8482 22.5981H37.5829L37.2966 23.0264H37.9159L38.059 23.8839C38.0761 23.9693 38.1526 24.0108 38.2833 24.0108H38.4757L38.2735 24.717H37.5927C37.2399 24.7342 37.0575 24.6171 37.0426 24.3646L36.8784 23.5815L36.3149 24.4146C36.1816 24.65 35.9768 24.7599 35.7007 24.7427H34.6609L34.8632 24.0363H35.1876C35.3209 24.0363 35.4317 23.9778 35.5316 23.8595L36.4136 22.5981H35.2764L35.4871 21.8674H36.7206L36.9168 21.1868H35.6821L35.893 20.4548Z" fill="white"/>
<path fill-rule="evenodd" clip-rule="evenodd" d="M17.0895 13.9492H17.9571L17.8579 14.4493L17.9824 14.3066C18.2637 14.009 18.6053 13.8613 19.0086 13.8613C19.3737 13.8613 19.637 13.9663 19.8023 14.1773C19.9651 14.3884 20.0095 14.6799 19.9325 15.0544L19.4545 17.4137H18.5628L18.9944 15.2752C19.0389 15.0544 19.0266 14.8897 18.958 14.7835C18.8903 14.6774 18.7607 14.625 18.5738 14.625C18.3444 14.625 18.1514 14.6957 17.9941 14.8361C17.8362 14.9776 17.7321 15.174 17.6809 15.424L17.2831 17.4137H16.3895L17.0895 13.9492Z" fill="white"/>
<path fill-rule="evenodd" clip-rule="evenodd" d="M27.0395 13.9492H27.9079L27.8093 14.4493L27.9325 14.3066C28.2139 14.009 28.5568 13.8613 28.9589 13.8613C29.3239 13.8613 29.5878 13.9663 29.7517 14.1773C29.9135 14.3884 29.9603 14.6799 29.8813 15.0544L29.4052 17.4137H28.5123L28.9441 15.2752C28.9884 15.0544 28.9761 14.8897 28.9082 14.7835C28.8379 14.6774 28.7108 14.625 28.5247 14.625C28.2952 14.625 28.1029 14.6957 27.9438 14.8361C27.7858 14.9776 27.6811 15.174 27.6318 15.424L27.2322 17.4137H26.3397L27.0395 13.9492" fill="white"/>
<path fill-rule="evenodd" clip-rule="evenodd" d="M31.3319 11.8018H33.853C34.3377 11.8018 34.7126 11.9104 34.9703 12.1238C35.2268 12.3398 35.3553 12.6497 35.3553 13.0534V13.0656C35.3553 13.1424 35.3501 13.229 35.3428 13.3229C35.3304 13.4157 35.3143 13.5095 35.2936 13.6072C35.1825 14.1415 34.9247 14.571 34.5264 14.8967C34.1266 15.2211 33.6532 15.3846 33.108 15.3846H31.7561L31.3381 17.4133H30.1675L31.3319 11.8018M31.9621 14.4088H33.0834C33.3757 14.4088 33.6075 14.3416 33.7766 14.2087C33.9444 14.0745 34.0554 13.8696 34.1169 13.5915C34.1267 13.5401 34.1329 13.4938 34.1403 13.4511C34.1442 13.4109 34.149 13.3705 34.149 13.3316C34.149 13.1327 34.0776 12.9888 33.9344 12.8985C33.7913 12.8069 33.567 12.7631 33.256 12.7631H32.3038L31.9621 14.4088" fill="white"/>
<path fill-rule="evenodd" clip-rule="evenodd" d="M40.5946 18.0833C40.2245 18.8615 39.8719 19.3152 39.6648 19.5263C39.4574 19.735 39.0468 20.2205 38.0576 20.1839L38.1427 19.5898C38.9751 19.3361 39.4253 18.1929 39.6819 17.6867L39.3761 13.9587L40.0199 13.9502H40.5601L40.6182 16.2888L41.6306 13.9502H42.6557L40.5946 18.0833Z" fill="white"/>
<path fill-rule="evenodd" clip-rule="evenodd" d="M37.7283 14.232L37.321 14.509C36.8955 14.1796 36.5071 13.9759 35.7573 14.3199C34.7359 14.7883 33.8825 18.381 36.6946 17.1976L36.8549 17.3855L37.9612 17.4135L38.6878 14.1491L37.7283 14.232M37.0993 16.0168C36.9215 16.5352 36.5246 16.878 36.2138 16.7804C35.903 16.6853 35.7919 16.1851 35.972 15.6654C36.1496 15.1457 36.5492 14.8042 36.8575 14.9018C37.1683 14.9969 37.2805 15.497 37.0993 16.0168Z" fill="white"/>
<path fill-rule="evenodd" clip-rule="evenodd" d="M34.1267 5.26156L30.2638 5.25391L34.1046 5.2703C34.1119 5.2703 34.1192 5.26156 34.1267 5.26156" fill="#E02F41"/>
<path fill-rule="evenodd" clip-rule="evenodd" d="M30.2637 5.27406L23.3969 5.25C23.3796 5.25 23.3617 5.25765 23.3438 5.26531L30.2637 5.27406" fill="#2E4F7D"/>
</svg>
