<svg width="51" height="35" viewBox="0 0 51 35" fill="none" xmlns="http://www.w3.org/2000/svg">
<rect x="0.637939" y="0.5" width="49.6897" height="34" rx="3.5" fill="#006FCF" stroke="#F3F3F3"/>
<path fill-rule="evenodd" clip-rule="evenodd" d="M10.5058 25.2823V18.0771H18.6544L19.5286 19.1441L20.4318 18.0771H50.0088V24.7854C50.0088 24.7854 49.2353 25.2751 48.3407 25.2823H31.9633L30.9776 24.1465V25.2823H27.7476V23.3434C27.7476 23.3434 27.3064 23.6141 26.3525 23.6141H25.2531V25.2823H20.3626L19.4896 24.1924L18.6032 25.2823H10.5058ZM1.01184 12.6465L2.84519 8.63574H6.01579L7.05623 10.8824V8.63574H10.9976L11.617 10.2596L12.2174 8.63574H29.9099V9.4521C29.9099 9.4521 30.84 8.63574 32.3686 8.63574L38.1091 8.65457L39.1316 10.8718V8.63574H42.4299L43.3377 9.90939V8.63574H46.6663V15.8409H43.3377L42.4678 14.5632V15.8409H37.6218L37.1345 14.7052H35.8317L35.3523 15.8409H32.066C30.7507 15.8409 29.9099 15.0413 29.9099 15.0413V15.8409H24.9549L23.9715 14.7052V15.8409H5.54608L5.05909 14.7052H3.76048L3.27693 15.8409H1.01184V12.6465ZM1.0213 14.919L3.49409 9.52399H5.36878L7.83921 14.919H6.19383L5.73993 13.8387H3.08747L2.63121 14.919H1.0213ZM5.21748 12.6674L4.40897 10.7796L3.59811 12.6674H5.21748ZM8.00942 14.9181V9.52308L10.2972 9.53105L11.6278 13.0094L12.9266 9.52308H15.1961V14.9181H13.7588V10.9428L12.2352 14.9181H10.9746L9.44676 10.9428V14.9181H8.00942ZM16.1796 14.9181V9.52308H20.8698V10.7299H17.632V11.6527H20.7942V12.7885H17.632V13.7468H20.8698V14.9181H16.1796ZM21.702 14.919V9.52399H24.9005C25.9604 9.52399 26.91 10.139 26.91 11.2743C26.91 12.2448 26.1093 12.8699 25.3331 12.9314L27.2244 14.919H25.4679L23.7445 13.0024H23.1393V14.919H21.702ZM24.7823 10.7308H23.1393V11.8666H24.8036C25.0917 11.8666 25.4632 11.6571 25.4632 11.2987C25.4632 11.0201 25.1765 10.7308 24.7823 10.7308ZM28.9643 14.9181H27.4967V9.52308H28.9643V14.9181ZM32.4442 14.9181H32.1274C30.5947 14.9181 29.6641 13.785 29.6641 12.2428C29.6641 10.6625 30.5843 9.52308 32.5198 9.52308H34.1085V10.8009H32.4618C31.676 10.8009 31.1203 11.3763 31.1203 12.2561C31.1203 13.3009 31.7557 13.7397 32.6711 13.7397H33.0494L32.4442 14.9181ZM33.099 14.919L35.5718 9.52399H37.4465L39.9169 14.919H38.2716L37.8177 13.8387H35.1652L34.7089 14.919H33.099ZM37.2952 12.6674L36.4867 10.7796L35.6758 12.6674H37.2952ZM40.0848 14.9181V9.52308H41.9122L44.2455 12.9127V9.52308H45.6829V14.9181H43.9145L41.5221 11.4397V14.9181H40.0848ZM11.4893 24.3594V18.9644H16.1796V20.1712H12.9418V21.094H16.1039V22.2298H12.9418V23.1881H16.1796V24.3594H11.4893ZM34.4716 24.3594V18.9644H39.1619V20.1712H35.9241V21.094H39.0711V22.2298H35.9241V23.1881H39.1619V24.3594H34.4716ZM16.3616 24.3594L18.6453 21.6952L16.3072 18.9644H18.1181L19.5105 20.6526L20.9077 18.9644H22.6476L20.3403 21.6619L22.6282 24.3594H20.8176L19.4656 22.6979L18.1464 24.3594H16.3616ZM22.7989 24.3603V18.9653H25.9738C27.2765 18.9653 28.0376 19.7532 28.0376 20.7799C28.0376 22.0193 27.0672 22.6566 25.787 22.6566H24.2741V24.3603H22.7989ZM25.8674 20.1854H24.2741V21.4277H25.8627C26.2825 21.4277 26.5766 21.1666 26.5766 20.8065C26.5766 20.4233 26.281 20.1854 25.8674 20.1854ZM28.6617 24.3594V18.9644H31.8603C32.9201 18.9644 33.8697 19.5794 33.8697 20.7147C33.8697 21.6852 33.0691 22.3103 32.2929 22.3718L34.1841 24.3594H32.4276L30.7043 22.4428H30.0991V24.3594H28.6617ZM31.7421 20.1712H30.0991V21.307H31.7634C32.0514 21.307 32.4229 21.0975 32.4229 20.7391C32.4229 20.4605 32.1362 20.1712 31.7421 20.1712ZM39.8276 24.3594V23.1881H42.7042C43.1298 23.1881 43.3141 22.9723 43.3141 22.7356C43.3141 22.5088 43.1304 22.2795 42.7042 22.2795H41.4043C40.2744 22.2795 39.6451 21.6335 39.6451 20.6637C39.6451 19.7986 40.2213 18.9644 41.9004 18.9644H44.6994L44.0942 20.1783H41.6734C41.2107 20.1783 41.0682 20.4061 41.0682 20.6237C41.0682 20.8474 41.2443 21.094 41.5978 21.094H42.9595C44.219 21.094 44.7656 21.7645 44.7656 22.6424C44.7656 23.5863 44.1566 24.3594 42.8909 24.3594H39.8276ZM44.8923 24.3594V23.1881H47.7689C48.1945 23.1881 48.3788 22.9723 48.3788 22.7356C48.3788 22.5088 48.1951 22.2795 47.7689 22.2795H46.469C45.3391 22.2795 44.7098 21.6335 44.7098 20.6637C44.7098 19.7986 45.2861 18.9644 46.9651 18.9644H49.7642L49.159 20.1783H46.7382C46.2754 20.1783 46.133 20.4061 46.133 20.6237C46.133 20.8474 46.309 21.094 46.6625 21.094H48.0242C49.2838 21.094 49.8303 21.7645 49.8303 22.6424C49.8303 23.5863 49.2213 24.3594 47.9556 24.3594H44.8923Z" fill="white"/>
</svg>
