<svg width="52" height="35" viewBox="0 0 52 35"  xmlns="http://www.w3.org/2000/svg">
<rect x="1.25867" y="0.5" width="49.6897" height="34" rx="3.5" fill="#F4B6C7" stroke="#F3F3F3"/>
<path fill-rule="evenodd" clip-rule="evenodd" d="M7.23728 22.5717H5.12842V13.125H7.23728V22.5717ZM12.5044 13.125H10.4407C10.4407 14.8634 9.66302 16.4591 8.30711 17.503L7.48949 18.1323L10.6575 22.5721H13.2622L10.3472 18.4868C11.729 17.0727 12.5044 15.1701 12.5044 13.125ZM15.8685 22.5686H13.8769V13.1262H15.8685V22.5686ZM21.8881 16.0375V16.4553C21.3505 16.0785 20.7017 15.857 20.0019 15.857C18.1499 15.857 16.6485 17.4 16.6485 19.3035C16.6485 21.2069 18.1499 22.75 20.0019 22.75C20.7017 22.75 21.3505 22.5285 21.8881 22.1517V22.5692H23.7909V16.0375H21.8881ZM21.8818 19.3035C21.8818 20.2316 21.1098 20.984 20.1576 20.984C19.2055 20.984 18.4335 20.2316 18.4335 19.3035C18.4335 18.3754 19.2055 17.6231 20.1576 17.6231C21.1098 17.6231 21.8818 18.3754 21.8818 19.3035ZM41.9619 16.4553V16.0375H43.8646V22.5692H41.9619V22.1517C41.4243 22.5285 40.7755 22.75 40.0757 22.75C38.2236 22.75 36.7223 21.2069 36.7223 19.3035C36.7223 17.4 38.2236 15.857 40.0757 15.857C40.7755 15.857 41.4243 16.0785 41.9619 16.4553ZM40.2314 20.984C41.1836 20.984 41.9555 20.2316 41.9555 19.3035C41.9555 18.3754 41.1836 17.6231 40.2314 17.6231C39.2792 17.6231 38.5073 18.3754 38.5073 19.3035C38.5073 20.2316 39.2792 20.984 40.2314 20.984ZM44.6904 21.4797C44.6904 20.8019 45.225 20.2525 45.8844 20.2525C46.5438 20.2525 47.0785 20.8019 47.0785 21.4797C47.0785 22.1573 46.5438 22.7068 45.8844 22.7068C45.225 22.7068 44.6904 22.1573 44.6904 21.4797ZM33.3411 15.8618C32.581 15.8618 31.8617 16.1044 31.3808 16.7735V16.0379H29.4862V22.5692H31.404V19.1368C31.404 18.1435 32.0521 17.6571 32.8324 17.6571C33.6686 17.6571 34.1494 18.1706 34.1494 19.1232V22.5692H36.0499V18.4156C36.0499 16.8955 34.874 15.8618 33.3411 15.8618ZM26.7343 16.0376V16.8883C27.1157 16.378 27.8264 16.038 28.5991 16.038V17.9386L28.5924 17.9384C28.5871 17.9381 28.5819 17.9377 28.5765 17.9377C27.8237 17.9377 26.7387 18.4908 26.7387 19.5196V22.5692H24.7862V16.0376H26.7343Z" fill="#17120F"/>
</svg>