<svg width="52" height="35" viewBox="0 0 52 35" fill="none" xmlns="http://www.w3.org/2000/svg">
<rect x="1.1897" y="0.5" width="49.6897" height="34" rx="3.5" fill="white" stroke="#F3F3F3"/>
<path fill-rule="evenodd" clip-rule="evenodd" d="M22.7403 18.8144H21.196V18.2084C21.196 17.4202 21.6463 17.1946 22.0347 17.1946C22.4634 17.1946 22.7972 17.3849 22.7972 17.3849L23.323 16.1833C23.323 16.1833 22.79 15.835 21.8212 15.835C20.7321 15.835 19.4928 16.449 19.4928 18.3761V18.8144H16.9075V18.2084C16.9075 17.4202 17.3578 17.1946 17.7454 17.1946C17.9662 17.1946 18.2631 17.246 18.5088 17.3849L19.0345 16.1833C18.7207 15.9987 18.2166 15.835 17.5327 15.835C16.4436 15.835 15.2043 16.449 15.2043 18.3761V18.8144H14.2154V20.1291H15.2043V24.7739H16.9075V20.1291H19.4928V24.7739H21.196V20.1291H22.7403V18.8144ZM10.3052 23.7047C9.85736 23.7047 9.63423 23.4847 9.63423 23.1211C9.63423 22.4485 10.3871 22.2182 11.7612 22.0729C11.7612 22.9727 11.1528 23.7047 10.3052 23.7047ZM10.8976 18.6392C9.91595 18.6392 8.78584 19.1023 8.17262 19.5911L8.73287 20.7702C9.22488 20.3199 10.0203 19.9355 10.7379 19.9355C11.4193 19.9355 11.7957 20.1634 11.7957 20.6217C11.7957 20.9315 11.5461 21.0873 11.0742 21.1483C9.31317 21.3778 7.93103 21.8634 7.93103 23.2215C7.93103 24.2978 8.69755 24.9495 9.89508 24.9495C10.7491 24.9495 11.51 24.4744 11.872 23.8475V24.7738H13.4644V20.893C13.4644 19.2902 12.3504 18.6392 10.8976 18.6392ZM26.8894 18.8143V24.7739H28.5942V21.9029C28.5942 20.5376 29.4201 20.1371 29.9964 20.1371C30.2212 20.1371 30.5246 20.2021 30.7252 20.3522L31.0358 18.7766C30.7726 18.6643 30.4973 18.6394 30.2717 18.6394C29.3952 18.6394 28.8446 19.0278 28.481 19.816V18.8143H26.8894ZM37.0124 19.6862C37.3632 19.1725 38.0366 18.6395 38.938 18.6395C40.0271 18.6395 40.9285 19.3154 40.9285 20.655V24.7741H39.2253V21.1935C39.2253 20.4045 38.7501 20.0771 38.2999 20.0771C37.7364 20.0771 37.173 20.5923 37.173 21.7064V24.7741H35.4698V21.2056C35.4698 20.3925 35.0219 20.0771 34.5347 20.0771C33.9961 20.0771 33.4198 20.6044 33.4198 21.7064V24.7741H31.7142V18.8145H33.3572V19.7159C33.6454 19.1404 34.269 18.6395 35.1704 18.6395C35.9963 18.6395 36.6866 19.0224 37.0124 19.6862ZM25.4588 24.7742H23.7572V18.8146H25.4588V24.7742Z" fill="#060809"/>
<path fill-rule="evenodd" clip-rule="evenodd" d="M33.6844 10.502C29.0837 10.502 24.983 13.6956 23.8192 17.8019H25.4871C26.4591 14.7439 29.7587 12.0599 33.6844 12.0599C38.4561 12.0599 42.5801 15.6926 42.5801 21.348C42.5801 22.6178 42.4155 23.7623 42.1041 24.7737H43.7222L43.7383 24.7183C44.0031 23.6748 44.138 22.5415 44.138 21.348C44.138 15.0409 39.5421 10.502 33.6844 10.502Z" fill="#4A4AF4"/>
</svg>
