<svg width="52" height="35" viewBox="0 0 52 35"  xmlns="http://www.w3.org/2000/svg">
<rect x="1.32764" y="0.5" width="49.6897" height="34" rx="3.5" fill="white" stroke="#F3F3F3"/>
<path fill-rule="evenodd" clip-rule="evenodd" d="M29.2635 18.8472H28.4178C28.3344 18.8427 28.2687 18.7729 28.2676 18.6876V14.2393C28.2766 14.1548 28.3474 14.0915 28.4306 14.0936H29.2177C29.2894 14.0959 29.3508 14.1467 29.3679 14.2178V14.8981H29.3844C29.6217 14.2899 29.9544 14 30.5402 14C30.9203 14 31.2913 14.1404 31.5308 14.5238C31.7524 14.8797 31.7524 15.4787 31.7524 15.909V18.7076C31.74 18.7892 31.6703 18.8489 31.5894 18.8472H30.7363C30.6597 18.8438 30.5965 18.7851 30.586 18.7076V16.2924C30.586 16.2547 30.5864 16.2156 30.5867 16.1756V16.1755V16.1754V16.1753C30.5908 15.6998 30.596 15.0944 30.0551 15.0944C29.8373 15.1047 29.6454 15.2438 29.5639 15.4503C29.4452 15.7218 29.4295 15.9933 29.4295 16.294V18.6876C29.4262 18.7779 29.3527 18.8489 29.2642 18.8472H29.2635ZM25.6811 14.0061C26.9406 14.0061 27.6218 15.1106 27.6218 16.5141C27.6218 17.8708 26.8707 18.9469 25.6811 18.9469C24.4457 18.9469 23.7728 17.8425 23.7728 16.4673C23.7728 15.0921 24.4539 14.0061 25.6811 14.0061ZM25.6894 14.9142C25.0638 14.9142 25.024 15.7839 25.024 16.3269L25.024 16.3449C25.0239 16.8951 25.0237 18.0296 25.6811 18.0296C26.3458 18.0296 26.3705 17.0939 26.3705 16.5233C26.3705 16.149 26.3548 15.6996 26.2436 15.3445C26.1482 15.0377 25.9582 14.9142 25.6894 14.9142ZM10.0027 18.8564H9.15482C9.07617 18.8522 9.01231 18.7899 9.00462 18.7099V14.2615C9.00747 14.1724 9.07951 14.1019 9.16684 14.1028H9.95767C10.0387 14.1073 10.1034 14.1734 10.1079 14.2562V14.8367H10.1236C10.3294 14.2746 10.7177 14.013 11.2404 14.013C11.7631 14.013 12.1033 14.2746 12.3414 14.8367C12.5004 14.4041 12.8754 14.0926 13.3226 14.0219C13.7697 13.9512 14.2195 14.1322 14.4991 14.4955C14.7298 14.8157 14.7224 15.2617 14.7155 15.6807C14.7143 15.7514 14.7132 15.8214 14.7132 15.8898V18.6961C14.7124 18.7395 14.6946 18.7809 14.6639 18.811C14.6332 18.8411 14.592 18.8574 14.5494 18.8564H13.7015C13.6181 18.8519 13.5524 18.7821 13.5513 18.6968V16.3392C13.5513 16.3035 13.5519 16.2577 13.5525 16.2056V16.2055V16.2055V16.2055V16.2054V16.2054V16.2053V16.2053C13.5553 15.984 13.5595 15.6503 13.5273 15.5063C13.4642 15.2072 13.2742 15.1228 13.0286 15.1228C12.8035 15.1298 12.6041 15.2731 12.5217 15.4871C12.4408 15.6965 12.4415 16.0335 12.442 16.2832L12.4421 16.3392V18.6961C12.4413 18.7394 12.4236 18.7806 12.3931 18.8107C12.3625 18.8408 12.3215 18.8572 12.2791 18.8564H11.4289C11.3457 18.8516 11.2802 18.782 11.2787 18.6968V16.3392C11.2787 16.291 11.2794 16.2406 11.2802 16.1888V16.1887V16.1887V16.1887V16.1886V16.1886V16.1885V16.1885C11.2869 15.7076 11.2953 15.1121 10.753 15.1121C10.1664 15.1121 10.1668 15.7899 10.1672 16.3023L10.1672 16.3392V18.6961C10.1664 18.7395 10.1487 18.7809 10.118 18.811C10.0872 18.8411 10.046 18.8574 10.0035 18.8564H10.0027ZM7.47854 18.9108C7.54295 18.9479 7.62321 18.9396 7.67906 18.8901L7.68582 18.8916C7.8548 18.7375 8.16272 18.4645 8.33621 18.3164C8.4023 18.2589 8.39028 18.163 8.33621 18.0863C8.31971 18.0631 8.3031 18.0404 8.28659 18.0178L8.28657 18.0178C8.14753 17.8274 8.01552 17.6467 8.01552 17.2833V15.9343C8.01552 15.8907 8.01573 15.8475 8.01595 15.8045L8.01595 15.8044C8.01852 15.2834 8.02088 14.8067 7.64001 14.4425C7.31557 14.1235 6.77633 14.0115 6.36327 14.0115C5.55592 14.0115 4.65469 14.3191 4.46618 15.3376C4.45837 15.3788 4.46744 15.4215 4.49128 15.4557C4.51512 15.4899 4.55165 15.5126 4.59235 15.5186L5.40797 15.6098C5.48762 15.5975 5.54922 15.5321 5.55817 15.4503C5.62877 15.0998 5.91716 14.9303 6.24085 14.9303C6.41659 14.9303 6.61336 14.9955 6.717 15.155C6.82337 15.3152 6.82172 15.5278 6.82023 15.7187C6.82006 15.7408 6.81989 15.7626 6.81989 15.7839V15.8959C6.74276 15.9048 6.66193 15.9132 6.57867 15.9219L6.57866 15.9219C6.13087 15.9686 5.61291 16.0226 5.22472 16.1966C4.699 16.4313 4.32349 16.9091 4.32349 17.6124C4.32349 18.5128 4.87924 18.963 5.59347 18.963C6.19654 18.963 6.52624 18.818 6.99263 18.3333C7.01511 18.3667 7.0354 18.3976 7.05454 18.4268C7.16579 18.5963 7.23824 18.7067 7.47854 18.9108ZM6.82367 16.8199L6.82364 16.7779V16.5915C6.21006 16.5915 5.56192 16.7258 5.56192 17.4636C5.56192 17.8394 5.75193 18.0925 6.07713 18.0925C6.31595 18.0925 6.52999 17.9422 6.66518 17.6983C6.82422 17.4094 6.82397 17.1389 6.82367 16.8199ZM19.4559 18.0833C19.4393 18.06 19.4227 18.0373 19.4062 18.0146C19.2671 17.8243 19.1352 17.6436 19.1352 17.281V15.9312C19.1352 15.8848 19.1354 15.8388 19.1357 15.7931C19.1386 15.2748 19.1413 14.8017 18.7597 14.4395C18.4345 14.1204 17.8952 14.0084 17.4829 14.0084C16.6756 14.0084 15.7743 14.3152 15.5851 15.3345C15.5771 15.376 15.5861 15.419 15.6101 15.4534C15.6342 15.4878 15.671 15.5105 15.712 15.5163L16.5344 15.6068C16.6139 15.5942 16.6754 15.5289 16.6846 15.4472C16.7559 15.0967 17.0428 14.9272 17.3665 14.9272C17.5415 14.9272 17.742 14.9932 17.8427 15.1527C17.9498 15.3123 17.9481 15.525 17.9466 15.716V15.716V15.7161V15.7162V15.7163V15.7165V15.7166V15.7167V15.7168C17.9465 15.7385 17.9463 15.7599 17.9463 15.7809V15.8905C17.8708 15.8991 17.7916 15.9073 17.7101 15.9157C17.261 15.9621 16.7402 16.0158 16.3511 16.1904C15.8194 16.4251 15.4461 16.9029 15.4461 17.607C15.4461 18.5066 16.0019 18.9568 16.7161 18.9568C17.317 18.9568 17.6489 18.8119 18.1145 18.3272C18.1367 18.3601 18.1567 18.3905 18.1755 18.4192C18.2884 18.5909 18.3599 18.6996 18.6012 18.9047C18.6656 18.9415 18.7455 18.9335 18.8017 18.8847C18.9707 18.7314 19.2786 18.4576 19.4521 18.3095C19.525 18.2566 19.5129 18.163 19.4559 18.0833ZM17.7886 17.6944C17.6542 17.9376 17.4394 18.0879 17.2013 18.0879C16.8761 18.0879 16.6861 17.8348 16.6861 17.4597C16.6861 16.7212 17.3342 16.5877 17.9478 16.5877V16.7748L17.9478 16.8092C17.948 17.1322 17.9482 17.404 17.7886 17.6944ZM20.1738 14.8797V14.2462C20.1719 14.2028 20.188 14.1606 20.2182 14.1301C20.2484 14.0995 20.2899 14.0835 20.3323 14.0859H23.1209C23.1633 14.0844 23.2044 14.1007 23.2348 14.131C23.2651 14.1613 23.282 14.2029 23.2816 14.2462V14.7915C23.2816 14.8828 23.2065 15.0024 23.0721 15.1911L21.6271 17.2971C22.1633 17.2841 22.7303 17.3662 23.2178 17.6461C23.3078 17.6951 23.3651 17.7897 23.368 17.8938V18.5749C23.368 18.6685 23.2681 18.7766 23.1622 18.7206C22.2372 18.2351 21.1392 18.2371 20.2159 18.726C20.119 18.7789 20.0176 18.6723 20.0176 18.5787V17.9307C20.0088 17.7779 20.0449 17.6259 20.1213 17.4943L21.7953 15.04H20.3353C20.2928 15.0417 20.2515 15.0255 20.2209 14.9952C20.1904 14.9649 20.1734 14.9232 20.1738 14.8797ZM34.9127 14.6511C35.1258 14.4592 35.3694 14.3057 35.6329 14.1971C35.8819 14.0958 36.1475 14.0437 36.4155 14.0437C36.6819 14.0387 36.9462 14.0931 37.1898 14.2032C37.4194 14.3107 37.6205 14.4727 37.7763 14.6757C37.9461 14.9005 38.0715 15.1568 38.1459 15.4304C38.2359 15.7546 38.2794 16.0904 38.275 16.4274C38.2791 16.7716 38.2325 17.1144 38.1368 17.4444C38.0567 17.7244 37.9255 17.9865 37.7501 18.2167C37.5871 18.4261 37.3803 18.5954 37.1447 18.7122C36.8972 18.8295 36.6267 18.8875 36.3539 18.8817C35.844 18.8903 35.3505 18.698 34.9758 18.3448V20.4739C34.9829 20.524 34.9665 20.5746 34.9315 20.6104C34.8964 20.6462 34.8468 20.663 34.7978 20.6556H34.2721C34.223 20.663 34.1735 20.6462 34.1384 20.6104C34.1033 20.5746 34.0869 20.524 34.0941 20.4739V14.3605C34.0872 14.3104 34.1038 14.26 34.1388 14.2243C34.1737 14.1886 34.2231 14.1717 34.2721 14.1787H34.6634C34.7144 14.1738 34.7652 14.1905 34.8039 14.2248C34.8426 14.2591 34.8659 14.3082 34.8684 14.3605L34.9127 14.6511ZM36.1669 14.7693C35.7357 14.7727 35.3173 14.9195 34.975 15.1872V17.7182C35.3545 18.0096 35.7458 18.1551 36.1489 18.1546C36.967 18.1546 37.3761 17.5922 37.3761 16.4673C37.3761 15.3424 36.973 14.7762 36.1669 14.7685V14.7693ZM39.3858 14.9932L39.4526 14.9702C39.8757 14.8371 40.3153 14.7674 40.7579 14.7631C41.1139 14.7636 41.363 14.8304 41.5052 14.9633C41.6474 15.0962 41.7185 15.3263 41.7185 15.6536V16.2503C41.3522 16.1543 40.9761 16.1028 40.5979 16.0969C40.0762 16.0963 39.6612 16.228 39.3528 16.4918C39.0443 16.7557 38.8901 17.1085 38.8901 17.5502C38.8911 17.9618 39.0163 18.2904 39.2656 18.5358C39.515 18.7812 39.8529 18.9039 40.2795 18.9039C40.5433 18.9028 40.8045 18.8508 41.0493 18.7505C41.3075 18.6476 41.5465 18.5002 41.756 18.3149L41.8011 18.6148C41.8033 18.6646 41.8255 18.7113 41.8624 18.7439C41.8993 18.7765 41.9478 18.7922 41.9964 18.7873H42.3794C42.4284 18.7943 42.4777 18.7774 42.5127 18.7417C42.5477 18.706 42.5642 18.6556 42.5574 18.6056V15.5025C42.5569 15.0055 42.4232 14.6391 42.1563 14.4034C41.8895 14.1677 41.4744 14.0499 40.9111 14.0499C40.6308 14.0499 40.3511 14.0755 40.0752 14.1265C39.8345 14.1658 39.5989 14.233 39.373 14.3267C39.3184 14.3456 39.2695 14.3786 39.2311 14.4226C39.2019 14.4766 39.1893 14.5383 39.195 14.5998V14.8429C39.195 14.9526 39.2356 15.007 39.3107 15.007C39.3363 15.0066 39.3617 15.002 39.3858 14.9932ZM41.1071 18.1063C40.9108 18.1812 40.7032 18.2209 40.4936 18.2236C40.2622 18.2241 40.0843 18.1623 39.9596 18.038C39.8349 17.9138 39.7726 17.7366 39.7726 17.5065C39.7721 16.9794 40.1073 16.7158 40.7782 16.7158C40.9372 16.7161 41.096 16.7269 41.2536 16.748C41.4107 16.7682 41.5666 16.7969 41.7207 16.8339V17.7612C41.5344 17.9071 41.3275 18.0235 41.1071 18.1063ZM44.8953 20.4915C45.1056 20.3095 45.2911 20.0096 45.4518 19.5919L47.409 14.5054C47.4413 14.4365 47.4624 14.3627 47.4713 14.2868C47.4713 14.2147 47.43 14.1779 47.3466 14.1779H46.8487C46.7803 14.1712 46.7116 14.1871 46.6527 14.2232C46.6025 14.2805 46.5662 14.3491 46.5468 14.4234L45.3452 17.9475L44.0992 14.4234C44.0798 14.3491 44.0436 14.2805 43.9933 14.2232C43.9344 14.1871 43.8657 14.1712 43.7973 14.1779H43.2633C43.1807 14.1779 43.1394 14.2147 43.1394 14.2868C43.148 14.3627 43.1688 14.4365 43.201 14.5054L44.9148 18.8318L44.7459 19.292C44.6452 19.5829 44.5326 19.7829 44.4079 19.8918C44.2577 20.0093 44.071 20.0673 43.8822 20.0551C43.8019 20.0568 43.7217 20.0507 43.6426 20.0367C43.5986 20.0271 43.5539 20.0212 43.5089 20.0191C43.4195 20.0191 43.3752 20.0766 43.3752 20.1916V20.4279C43.3703 20.493 43.3858 20.558 43.4195 20.6135C43.4565 20.6576 43.5067 20.688 43.5622 20.7001C43.7276 20.7447 43.8982 20.7661 44.0692 20.7638C44.4096 20.7643 44.685 20.6735 44.8953 20.4915Z" fill="#232F3E"/>
<path fill-rule="evenodd" clip-rule="evenodd" d="M21.5685 21.6846C21.7615 21.1945 22.1911 20.0963 21.9868 19.8301H21.9883C21.7849 19.5634 20.6433 19.7034 20.1299 19.7663L20.1288 19.7665C19.9726 19.7857 19.9485 19.6468 20.089 19.5464C21.0007 18.8921 22.4945 19.0793 22.668 19.3002C22.8415 19.5211 22.6207 21.0504 21.7667 21.7805C21.6353 21.8925 21.5099 21.8327 21.5685 21.6846ZM15.4334 22.4409C17.4191 22.4409 19.7315 21.8004 21.3244 20.6002V20.6025C21.588 20.4 21.3619 20.1024 21.0931 20.219C19.3543 20.9679 17.4879 21.3589 15.6008 21.3694C12.9828 21.3694 10.4503 20.6362 8.40152 19.419C8.22203 19.3124 8.08835 19.5003 8.23855 19.6376C10.211 21.455 12.7768 22.4547 15.4334 22.4409Z" fill="#FF9900"/>
</svg>
