<svg width="52" height="35" viewBox="0 0 52 35"  xmlns="http://www.w3.org/2000/svg">
<rect x="0.948242" y="0.5" width="49.6897" height="34" rx="3.5" fill="white" stroke="#F3F3F3"/>
<path fill-rule="evenodd" clip-rule="evenodd" d="M15.8099 13.0607C15.4412 13.5024 14.8513 13.8507 14.2614 13.8009C14.1876 13.2038 14.4764 12.5693 14.8144 12.1774C15.1831 11.7233 15.8283 11.3999 16.3507 11.375C16.4121 11.997 16.1725 12.6066 15.8099 13.0607ZM16.3445 13.9191C15.8248 13.8889 15.3506 14.0774 14.9676 14.2296C14.7211 14.3276 14.5123 14.4105 14.3535 14.4105C14.1753 14.4105 13.958 14.3231 13.7139 14.225C13.3942 14.0964 13.0286 13.9494 12.6452 13.9565C11.7665 13.9689 10.9492 14.4727 10.5006 15.2752C9.57885 16.88 10.2609 19.2562 11.152 20.5625C11.5883 21.2094 12.1106 21.9185 12.7988 21.8937C13.1016 21.8821 13.3194 21.7885 13.5448 21.6917C13.8044 21.5803 14.0739 21.4645 14.4949 21.4645C14.9012 21.4645 15.159 21.5772 15.4065 21.6855C15.6418 21.7884 15.8677 21.8873 16.2032 21.8812C16.916 21.8688 17.3646 21.2343 17.8009 20.5874C18.2717 19.8931 18.4786 19.2154 18.51 19.1126L18.5137 19.1007C18.513 19.1 18.5072 19.0973 18.4969 19.0925C18.3395 19.0196 17.1365 18.4621 17.1249 16.9671C17.1134 15.7123 18.0791 15.0766 18.2312 14.9765L18.2312 14.9765L18.2312 14.9765L18.2314 14.9764L18.2314 14.9764C18.2405 14.9703 18.2467 14.9663 18.2495 14.9642C17.635 14.0435 16.6764 13.944 16.3445 13.9191ZM21.279 21.8128V12.1152H24.8738C26.7296 12.1152 28.0262 13.4091 28.0262 15.3001C28.0262 17.1911 26.705 18.4973 24.8247 18.4973H22.7661V21.8128H21.279ZM22.7661 13.3842H24.4805C25.771 13.3842 26.5084 14.0809 26.5084 15.3063C26.5084 16.5317 25.771 17.2346 24.4744 17.2346H22.7661V13.3842ZM32.9361 20.6496C32.5428 21.4085 31.6764 21.8874 30.7423 21.8874C29.3597 21.8874 28.3949 21.0539 28.3949 19.7974C28.3949 18.5533 29.329 17.838 31.0557 17.7322L32.9115 17.6203V17.0853C32.9115 16.2953 32.4015 15.8661 31.492 15.8661C30.7423 15.8661 30.1954 16.258 30.0848 16.8552H28.7452C28.7882 15.5986 29.9558 14.6842 31.535 14.6842C33.2372 14.6842 34.3433 15.5862 34.3433 16.9858V21.8128H32.9668V20.6496H32.9361ZM31.1418 20.7367C30.349 20.7367 29.8452 20.351 29.8452 19.7601C29.8452 19.1505 30.3306 18.7959 31.2585 18.7399L32.9115 18.6342V19.1816C32.9115 20.0898 32.1495 20.7367 31.1418 20.7367ZM38.9091 22.1922C38.313 23.8904 37.6309 24.4502 36.1807 24.4502C36.0701 24.4502 35.7014 24.4378 35.6153 24.4129V23.2497C35.7075 23.2621 35.9349 23.2746 36.0516 23.2746C36.7091 23.2746 37.0779 22.9947 37.3052 22.2669L37.4404 21.8377L34.9209 14.7775H36.4756L38.227 20.5065H38.2577L40.009 14.7775H41.5207L38.9091 22.1922Z" fill="black"/>
</svg>
