<svg width="52" height="35" viewBox="0 0 52 35" xmlns="http://www.w3.org/2000/svg">
<rect x="0.948242" y="0.5" width="49.6897" height="34" rx="3.5" fill="white" stroke="#F3F3F3"/>
<path fill-rule="evenodd" clip-rule="evenodd" d="M8.16722 21.1789C8.16722 20.4925 7.80905 20.5377 7.46643 20.5304V20.332C7.76352 20.3465 8.06814 20.3465 8.36601 20.3465C8.68602 20.3465 9.12049 20.332 9.68499 20.332C11.6591 20.332 12.7343 21.6518 12.7343 23.0033C12.7343 23.7596 12.2922 25.6597 9.59329 25.6597C9.20482 25.6597 8.84602 25.6446 8.48786 25.6446C8.14508 25.6446 7.80905 25.6516 7.46643 25.6597V25.4611C7.92336 25.4149 8.14508 25.4 8.16722 24.881V21.1789ZM8.91433 24.7586C8.91433 25.3465 9.33404 25.4149 9.70744 25.4149C11.3546 25.4149 11.8951 24.1711 11.8951 23.034C11.8951 21.6067 10.9804 20.5765 9.50928 20.5765C9.19602 20.5765 9.05188 20.5988 8.91433 20.607V24.7586Z" fill="#1A1919"/>
<path fill-rule="evenodd" clip-rule="evenodd" d="M13.0015 25.4617H13.1459C13.3593 25.4617 13.5119 25.4617 13.5119 25.2092V23.141C13.5119 22.8057 13.3978 22.7593 13.1153 22.6071V22.4853C13.4736 22.3774 13.9009 22.2334 13.931 22.2105C13.9847 22.1798 14.0298 22.1716 14.0686 22.1716C14.106 22.1716 14.1217 22.2176 14.1217 22.2792V25.2092C14.1217 25.4617 14.2897 25.4617 14.5034 25.4617H14.6324V25.6603C14.3732 25.6603 14.106 25.6452 13.8324 25.6452C13.5579 25.6452 13.2833 25.6522 13.0015 25.6603V25.4617ZM13.817 20.9967C13.6184 20.9967 13.4435 20.8135 13.4435 20.6151C13.4435 20.424 13.6267 20.248 13.817 20.248C14.0149 20.248 14.1907 20.4089 14.1907 20.6151C14.1907 20.8215 14.0226 20.9967 13.817 20.9967Z" fill="#1A1919"/>
<path fill-rule="evenodd" clip-rule="evenodd" d="M15.357 23.1862C15.357 22.9043 15.2728 22.828 14.9151 22.6828V22.5378C15.2424 22.4311 15.5547 22.3314 15.921 22.1709C15.9441 22.1709 15.9662 22.1861 15.9662 22.2471V22.7435C16.4015 22.4311 16.775 22.1709 17.2866 22.1709C17.9337 22.1709 18.1623 22.6443 18.1623 23.2396V25.2085C18.1623 25.461 18.3305 25.461 18.5437 25.461H18.6813V25.6595C18.4136 25.6595 18.1471 25.6444 17.8729 25.6444C17.5983 25.6444 17.3237 25.6515 17.0492 25.6595V25.461H17.1868C17.4003 25.461 17.5521 25.461 17.5521 25.2085V23.2325C17.5521 22.7969 17.2866 22.5834 16.8515 22.5834C16.6073 22.5834 16.2186 22.7815 15.9662 22.9502V25.2085C15.9662 25.461 16.1347 25.461 16.3483 25.461H16.4852V25.6595C16.2186 25.6595 15.9516 25.6444 15.6767 25.6444C15.4028 25.6444 15.128 25.6515 14.8539 25.6595V25.461H14.9914C15.2047 25.461 15.357 25.461 15.357 25.2085V23.1862Z" fill="#1A1919"/>
<path fill-rule="evenodd" clip-rule="evenodd" d="M19.2607 23.5531C19.2451 23.6218 19.2451 23.7361 19.2607 23.9958C19.3056 24.7207 19.7716 25.3157 20.3809 25.3157C20.8007 25.3157 21.1287 25.0866 21.4103 24.8048L21.5167 24.9117C21.166 25.3772 20.7316 25.7743 20.107 25.7743C18.8945 25.7743 18.6506 24.5982 18.6506 24.1101C18.6506 22.6139 19.6567 22.1709 20.1898 22.1709C20.808 22.1709 21.4717 22.5601 21.4787 23.3695C21.4787 23.4158 21.4787 23.4611 21.4717 23.507L21.4028 23.5531H19.2607ZM20.6106 23.3086C20.8007 23.3086 20.823 23.2093 20.823 23.1173C20.823 22.7287 20.5869 22.4157 20.1598 22.4157C19.6951 22.4157 19.3748 22.7585 19.2834 23.3086H20.6106Z" fill="#1A1919"/>
<path fill-rule="evenodd" clip-rule="evenodd" d="M21.6544 25.461H21.8604C22.073 25.461 22.2257 25.461 22.2257 25.2085V23.0642C22.2257 22.828 21.9438 22.7815 21.8293 22.7205V22.6064C22.3858 22.3696 22.6909 22.1709 22.7606 22.1709C22.8052 22.1709 22.8282 22.1939 22.8282 22.2706V22.9576H22.8442C23.0342 22.66 23.355 22.1709 23.8197 22.1709C24.0102 22.1709 24.2539 22.3006 24.2539 22.5756C24.2539 22.7815 24.1098 22.9656 23.8964 22.9656C23.6593 22.9656 23.6593 22.7815 23.3922 22.7815C23.2628 22.7815 22.8358 22.9576 22.8358 23.4158V25.2085C22.8358 25.461 22.9882 25.461 23.2017 25.461H23.6282V25.6595C23.2089 25.6515 22.8899 25.6444 22.5617 25.6444C22.2491 25.6444 21.9287 25.6515 21.6544 25.6595V25.461Z" fill="#1A1919"/>
<path fill-rule="evenodd" clip-rule="evenodd" d="M24.5891 24.599C24.6885 25.1027 24.9928 25.5308 25.5504 25.5308C25.9995 25.5308 26.167 25.2557 26.167 24.9887C26.167 24.0876 24.5056 24.378 24.5056 23.1492C24.5056 22.7213 24.8489 22.1719 25.6875 22.1719C25.931 22.1719 26.2587 22.241 26.5558 22.3939L26.6094 23.1717H26.4341C26.358 22.6911 26.0915 22.4165 25.603 22.4165C25.2981 22.4165 25.0087 22.5918 25.0087 22.92C25.0087 23.8136 26.7769 23.5383 26.7769 24.7367C26.7769 25.2401 26.3734 25.7751 25.4658 25.7751C25.1612 25.7751 24.8022 25.668 24.5362 25.5154L24.4519 24.6375L24.5891 24.599Z" fill="#1A1919"/>
<path fill-rule="evenodd" clip-rule="evenodd" d="M33.6609 21.713H33.4707C33.3256 20.8208 32.6928 20.4616 31.8396 20.4616C30.9618 20.4616 29.6892 21.0489 29.6892 22.8807C29.6892 24.4231 30.7874 25.53 31.9611 25.53C32.7151 25.53 33.3417 25.0107 33.4938 24.2088L33.6692 24.2544L33.4938 25.3691C33.1736 25.5679 32.3119 25.7743 31.8082 25.7743C30.025 25.7743 28.8969 24.6215 28.8969 22.9043C28.8969 21.3391 30.292 20.2168 31.7862 20.2168C32.4035 20.2168 32.9979 20.4158 33.585 20.6221L33.6609 21.713Z" fill="#1A1919"/>
<path fill-rule="evenodd" clip-rule="evenodd" d="M33.9362 25.4615H34.0805C34.2946 25.4615 34.4468 25.4615 34.4468 25.2091V20.9588C34.4468 20.4621 34.3326 20.4471 34.0426 20.3629V20.2406C34.3474 20.1416 34.6679 20.0045 34.8284 19.9122C34.9111 19.8671 34.9727 19.8281 34.9951 19.8281C35.0417 19.8281 35.0568 19.8745 35.0568 19.9358V25.2091C35.0568 25.4615 35.2247 25.4615 35.4379 25.4615H35.567V25.6601C35.3085 25.6601 35.0417 25.645 34.7671 25.645C34.4928 25.645 34.2186 25.6521 33.9362 25.6601V25.4615Z" fill="#1A1919"/>
<path fill-rule="evenodd" clip-rule="evenodd" d="M38.8311 25.2395C38.8311 25.3773 38.9144 25.3846 39.0437 25.3846C39.1357 25.3846 39.2495 25.3773 39.3494 25.3773V25.538C39.0214 25.5682 38.396 25.7285 38.2509 25.7744L38.2129 25.7512V25.1329C37.7559 25.5067 37.4048 25.7744 36.8628 25.7744C36.4512 25.7744 36.0246 25.5067 36.0246 24.8664V22.9118C36.0246 22.7131 35.9943 22.5223 35.568 22.4847V22.3393C35.8426 22.3317 36.4512 22.2861 36.5506 22.2861C36.6353 22.2861 36.6353 22.3393 36.6353 22.5075V24.4765C36.6353 24.7057 36.6353 25.3614 37.2984 25.3614C37.5571 25.3614 37.9002 25.1635 38.2202 24.8967V22.843C38.2202 22.6905 37.8545 22.6065 37.5805 22.5306V22.3933C38.2659 22.3468 38.6933 22.2861 38.7695 22.2861C38.8311 22.2861 38.8311 22.3393 38.8311 22.4235V25.2395Z" fill="#1A1919"/>
<path fill-rule="evenodd" clip-rule="evenodd" d="M40.3477 22.7211C40.6524 22.4622 41.0643 22.1715 41.4836 22.1715C42.3681 22.1715 42.9018 22.9432 42.9018 23.775C42.9018 24.7745 42.1696 25.7748 41.0789 25.7748C40.5154 25.7748 40.218 25.5911 40.0193 25.5071L39.7913 25.6827L39.6315 25.5991C39.6996 25.1488 39.7381 24.7061 39.7381 24.2403V20.9588C39.7381 20.4621 39.6233 20.4471 39.3336 20.3629V20.2406C39.6389 20.1416 39.9587 20.0045 40.1187 19.9122C40.2029 19.8671 40.2637 19.8281 40.2869 19.8281C40.3323 19.8281 40.3477 19.8747 40.3477 19.9358V22.7211ZM40.3477 24.7973C40.3477 25.0872 40.6223 25.5761 41.1329 25.5761C41.9485 25.5761 42.2914 24.7745 42.2914 24.0949C42.2914 23.2708 41.667 22.584 41.0725 22.584C40.7892 22.584 40.5534 22.7674 40.3477 22.9432V24.7973Z" fill="#1A1919"/>
<path fill-rule="evenodd" clip-rule="evenodd" d="M11.573 29.4037L11.5813 29.3956V27.8386C11.5813 27.4977 11.3445 27.4479 11.2201 27.4479H11.1288V27.3232C11.3241 27.3232 11.5149 27.3397 11.7096 27.3397C11.8796 27.3397 12.0505 27.3232 12.2199 27.3232V27.4479H12.1582C11.9834 27.4479 11.7884 27.4811 11.7884 27.9753V29.865C11.7884 30.0106 11.7925 30.1558 11.8129 30.2847H11.6553L9.51929 27.9004V29.6119C9.51929 29.9735 9.58948 30.0975 9.90886 30.0975H9.97952V30.2223C9.80115 30.2223 9.62293 30.2061 9.44455 30.2061C9.25832 30.2061 9.06723 30.2223 8.88037 30.2223V30.0975H8.93863C9.22472 30.0975 9.31187 29.9022 9.31187 29.571V27.8211C9.31187 27.5888 9.12046 27.4479 8.93454 27.4479H8.88037V27.3232C9.03771 27.3232 9.19975 27.3397 9.35709 27.3397C9.48192 27.3397 9.6022 27.3232 9.72656 27.3232L11.573 29.4037Z" fill="#1A1919"/>
<path fill-rule="evenodd" clip-rule="evenodd" d="M11.813 30.3027L11.6421 30.2969L9.53694 27.9477V29.6124C9.54196 29.9735 9.59676 30.0761 9.90908 30.0801H9.99795V30.2406H9.97958C9.80011 30.2406 9.62157 30.2239 9.44461 30.2239C9.25885 30.2239 9.06823 30.2406 8.88028 30.2406H8.86206V30.0801H8.93869C9.21285 30.0785 9.2912 29.9021 9.29418 29.5714V27.8223C9.2934 27.6011 9.1122 27.4665 8.93476 27.4665H8.86206V27.3057H8.88028C9.03887 27.3057 9.20123 27.3219 9.35684 27.3219C9.48057 27.3219 9.60038 27.3057 9.74028 27.3121L11.5633 29.3667V27.8391C11.5613 27.5092 11.3411 27.4692 11.2204 27.4665H11.1106V27.3057H11.129C11.3249 27.3057 11.5159 27.3219 11.7096 27.3219C11.8784 27.3219 12.0485 27.3057 12.22 27.3057H12.2382V27.4665H12.1583C11.9869 27.4709 11.8112 27.486 11.8062 27.9758V29.8655C11.8062 30.0109 11.8108 30.1559 11.8307 30.2819L11.8345 30.3027H11.813ZM11.6555 30.2665H11.7927C11.7742 30.1415 11.7709 30.0037 11.7709 29.8655V27.9758C11.7709 27.4773 11.9796 27.4303 12.1583 27.43H12.2019V27.3417C12.0384 27.3429 11.8747 27.358 11.7096 27.358C11.5196 27.358 11.335 27.3429 11.1475 27.3417L11.147 27.43H11.2204C11.3479 27.4303 11.5993 27.4871 11.5993 27.8391L11.5938 29.4091L11.5856 29.4171L11.5715 29.4305L9.72662 27.3417C9.60336 27.3417 9.48339 27.358 9.35683 27.358C9.20484 27.358 9.04907 27.3429 8.89864 27.3417L8.89786 27.43H8.93476C9.12931 27.4303 9.32951 27.579 9.32951 27.8222V29.5713C9.32951 29.9037 9.23702 30.1159 8.93868 30.117L8.89864 30.1159V30.2051C9.07828 30.2036 9.2634 30.1884 9.44461 30.1884C9.61765 30.1884 9.79037 30.2036 9.96152 30.2051V30.117H9.90908C9.58263 30.1159 9.50176 29.9735 9.50145 29.6124V27.8543L11.6555 30.2665ZM11.5732 29.4042L11.5862 29.3923L11.5732 29.4042ZM11.5633 29.3961V29.3945L11.56 29.3918L11.5633 29.3961Z" fill="#1A1919"/>
<path fill-rule="evenodd" clip-rule="evenodd" d="M12.8416 27.5317C12.5301 27.5317 12.518 27.6069 12.4558 27.9097H12.3313C12.3476 27.7933 12.3682 27.6772 12.3811 27.5567C12.3977 27.4399 12.406 27.3241 12.406 27.204H12.5054C12.5389 27.3286 12.6425 27.3241 12.7551 27.3241H14.8947C15.0073 27.3241 15.1107 27.32 15.1192 27.1953L15.2183 27.2123C15.2023 27.3241 15.1853 27.4363 15.1732 27.5487C15.1651 27.6608 15.1651 27.7726 15.1651 27.8847L15.0404 27.9309C15.0319 27.7775 15.0113 27.5317 14.7334 27.5317H14.053V29.7413C14.053 30.0617 14.1984 30.0983 14.3972 30.0983H14.4764V30.2231C14.3145 30.2231 14.024 30.2071 13.8004 30.2071C13.5512 30.2071 13.2606 30.2231 13.0987 30.2231V30.0983H13.1778C13.4064 30.0983 13.522 30.0779 13.522 29.7499V27.5317H12.8416Z" fill="#1A1919"/>
<path fill-rule="evenodd" clip-rule="evenodd" d="M14.4767 30.2405C14.3132 30.2405 14.023 30.224 13.8004 30.224C13.5515 30.224 13.2613 30.2405 13.0986 30.2405H13.0809V30.08H13.1778C13.4064 30.0746 13.4983 30.0717 13.5034 29.7495V27.5491H12.8416V27.5128H13.5394V29.7495C13.5394 30.083 13.4051 30.1166 13.1778 30.1169H13.1164V30.2046C13.28 30.2035 13.5595 30.1883 13.8004 30.1883C14.0163 30.1883 14.2934 30.2035 14.4578 30.2046V30.1169H14.3972C14.1965 30.1166 14.0351 30.0672 14.0351 29.7409V27.5128H14.7334C15.0116 27.5139 15.0485 27.7506 15.0572 27.9052L15.147 27.872C15.147 27.7635 15.1475 27.6549 15.1548 27.5458C15.1671 27.4384 15.1822 27.3329 15.1977 27.2265L15.1347 27.216C15.1154 27.3369 14.9984 27.3433 14.8945 27.3417H12.7334C12.6357 27.3419 12.5294 27.3372 12.4921 27.2213H12.4236C12.423 27.3361 12.4151 27.4475 12.3994 27.5582C12.387 27.6723 12.368 27.7819 12.3529 27.892H12.4415C12.496 27.6022 12.5315 27.5087 12.8416 27.5128V27.5491C12.5343 27.5552 12.5411 27.6066 12.4734 27.9135L12.4704 27.9276H12.3105L12.3127 27.9061C12.3297 27.7902 12.3507 27.6736 12.3628 27.553C12.3801 27.4378 12.388 27.3225 12.388 27.2035V27.1851H12.5197L12.5228 27.1982C12.5508 27.3029 12.6276 27.3037 12.7334 27.3056H14.8945C15.0101 27.3037 15.0942 27.3021 15.1013 27.1935L15.1027 27.1738L15.1215 27.1776L15.2388 27.1962L15.2359 27.2145C15.2194 27.326 15.2032 27.4378 15.1906 27.5491C15.1829 27.6604 15.1829 27.772 15.1829 27.8843V27.8968L15.1709 27.9017L15.024 27.9555L15.0231 27.9314C15.0116 27.7752 14.9956 27.5491 14.7334 27.5491H14.0712V29.7409C14.0753 30.054 14.1994 30.0761 14.3972 30.08H14.4942V30.2405H14.4767Z" fill="#1A1919"/>
<path fill-rule="evenodd" clip-rule="evenodd" d="M15.3508 30.0975H15.4092C15.5581 30.0975 15.7162 30.0771 15.7162 29.8609V27.6851C15.7162 27.4687 15.5581 27.4481 15.4092 27.4481H15.3508V27.3232C15.603 27.3232 16.0354 27.3397 16.3832 27.3397C16.7323 27.3397 17.1632 27.3232 17.4452 27.3232C17.438 27.5018 17.4419 27.7766 17.4541 27.959L17.3291 27.992C17.3092 27.7219 17.2594 27.5065 16.8237 27.5065H16.2477V28.594H16.7405C16.9893 28.594 17.0435 28.4533 17.0682 28.2288H17.1925C17.1842 28.391 17.1798 28.5529 17.1798 28.7147C17.1798 28.8728 17.1842 29.0305 17.1925 29.188L17.0682 29.2129C17.0435 28.964 17.0311 28.8021 16.7446 28.8021H16.2477V29.7692C16.2477 30.0396 16.4874 30.0396 16.753 30.0396C17.2509 30.0396 17.4706 30.0062 17.5951 29.5333L17.7109 29.5619C17.657 29.7825 17.6075 30.0019 17.5703 30.2223C17.3045 30.2223 16.8275 30.2063 16.4548 30.2063C16.0807 30.2063 15.5875 30.2223 15.3508 30.2223V30.0975Z" fill="#1A1919"/>
<path fill-rule="evenodd" clip-rule="evenodd" d="M17.57 30.2406C17.3039 30.2406 16.8265 30.2233 16.4544 30.2233C16.0807 30.2233 15.5876 30.2406 15.3507 30.2406H15.3333V30.0801H15.4091C15.5592 30.0776 15.6958 30.0644 15.6977 29.8614V27.6856C15.6958 27.4827 15.5592 27.4692 15.4091 27.4665H15.3333V27.3057H15.3507C15.6041 27.3057 16.0356 27.3219 16.3833 27.3219C16.732 27.3219 17.1627 27.3057 17.4452 27.3057H17.4636L17.4629 27.3248C17.4603 27.3869 17.4585 27.4608 17.4585 27.539C17.4585 27.6825 17.4629 27.8399 17.4711 27.9581L17.4719 27.9729L17.4579 27.9771L17.312 28.0153L17.3114 27.9939C17.2869 27.7245 17.2508 27.5284 16.8237 27.5243H16.2645L16.2642 28.5762H16.7403C16.9795 28.5737 17.0222 28.4514 17.0504 28.2274L17.0514 28.2107H17.2109L17.2106 28.2297C17.2026 28.392 17.1977 28.5534 17.1977 28.7152C17.1977 28.8722 17.2026 29.0299 17.2106 29.1878L17.2109 29.2029L17.1958 29.2063L17.0514 29.2351L17.0504 29.2156C17.0217 28.962 17.0198 28.823 16.7446 28.8201H16.2645V29.7697C16.2652 30.0222 16.4825 30.0208 16.7529 30.0222C17.2524 30.0192 17.4524 29.9947 17.5774 29.5289L17.5816 29.5121L17.5991 29.5149L17.7321 29.5495L17.7283 29.5666C17.6744 29.7864 17.625 30.006 17.5875 30.2258L17.5843 30.2406H17.57ZM17.5546 30.2047C17.5909 29.9947 17.6382 29.785 17.689 29.5759L17.6074 29.5553C17.4832 30.0199 17.2425 30.0614 16.7529 30.0582C16.4914 30.0582 16.2302 30.0582 16.2287 29.7697V28.7845H16.7446C17.0343 28.7815 17.0635 28.9564 17.0842 29.1926L17.1737 29.1742C17.1657 29.0211 17.1616 28.8674 17.1616 28.7152C17.1616 28.5592 17.1657 28.4036 17.1737 28.2469H17.0842C17.0608 28.4638 16.9931 28.6152 16.7403 28.6125H16.2287V27.4883H16.8237C17.255 27.4849 17.3265 27.7084 17.3453 27.9697L17.4347 27.9453C17.4274 27.8282 17.4226 27.6776 17.4226 27.539C17.4226 27.4679 17.4245 27.4005 17.4268 27.3417C17.145 27.3429 16.7243 27.358 16.3833 27.358C16.0424 27.358 15.6228 27.3429 15.3689 27.3417V27.43H15.4091C15.5567 27.4303 15.7332 27.456 15.7341 27.6856V29.8614C15.7332 30.0906 15.5567 30.1159 15.4091 30.117H15.3689V30.2047C15.6104 30.204 16.0899 30.1884 16.4544 30.1884C16.8206 30.1884 17.2872 30.204 17.5546 30.2047Z" fill="#1A1919"/>
<path fill-rule="evenodd" clip-rule="evenodd" d="M18.2712 27.7631C18.2712 27.4603 18.105 27.4479 17.9763 27.4479H17.9014V27.3232C18.0342 27.3232 18.2914 27.3397 18.5447 27.3397C18.7931 27.3397 18.9925 27.3232 19.2123 27.3232C19.7343 27.3232 20.1998 27.4643 20.1998 28.0544C20.1998 28.4279 19.9508 28.6561 19.6233 28.7856L20.3322 29.8482C20.4487 30.0239 20.531 30.0731 20.7348 30.0975V30.2223C20.5976 30.2223 20.4649 30.2063 20.3284 30.2063C20.1998 30.2063 20.0665 30.2223 19.9386 30.2223C19.6189 29.803 19.3449 29.3547 19.0754 28.8763H18.802V29.7656C18.802 30.0854 18.9511 30.0975 19.1412 30.0975H19.2164V30.2223C18.9795 30.2223 18.7399 30.2063 18.5029 30.2063C18.3038 30.2063 18.1088 30.2223 17.9014 30.2223V30.0975H17.9763C18.1303 30.0975 18.2712 30.0272 18.2712 29.8738V27.7631ZM18.802 28.7265H19.0048C19.4201 28.7265 19.6437 28.5691 19.6437 28.0788C19.6437 27.7095 19.4072 27.4727 19.0376 27.4727C18.9131 27.4727 18.86 27.4855 18.802 27.4896V28.7265Z" fill="#1A1919"/>
<path fill-rule="evenodd" clip-rule="evenodd" d="M20.7348 30.2406C20.5957 30.2406 20.4638 30.2239 20.3273 30.2239C20.2009 30.2239 20.0683 30.2406 19.9238 30.2337C19.6055 29.8155 19.3328 29.3697 19.0649 28.8955H18.8198V29.7653C18.8243 30.078 18.9495 30.0757 19.1412 30.0801H19.2343V30.2406H19.2159C18.9788 30.2406 18.7378 30.2239 18.5028 30.2239C18.3046 30.2239 18.1097 30.2406 17.9014 30.2406H17.8833V30.0801H17.9763C18.1254 30.079 18.2515 30.0139 18.2521 29.8743V27.7636C18.249 27.4692 18.105 27.4706 17.9763 27.4665H17.8833V27.3057H17.9014C18.0356 27.3057 18.2917 27.3219 18.5447 27.3219C18.7923 27.3219 18.9912 27.3057 19.2123 27.3057C19.7354 27.3068 20.2166 27.4509 20.2179 28.0543C20.2179 28.4291 19.9704 28.6633 19.6506 28.794L20.3471 29.8388C20.4632 30.0111 20.5354 30.0541 20.7372 30.0801L20.7522 30.0824V30.2406H20.7348ZM18.8019 28.8589H19.0853L19.0905 28.8682C19.3606 29.3453 19.6331 29.7938 19.9386 30.2051C20.0648 30.2051 20.1981 30.1884 20.3273 30.1884C20.4597 30.1884 20.5878 30.2029 20.7166 30.2047V30.1136C20.5222 30.0898 20.4308 30.031 20.3176 29.8589L19.5955 28.7778L19.6159 28.7694C19.9408 28.6413 20.1815 28.4195 20.1816 28.0543C20.1815 27.4781 19.7338 27.3445 19.2123 27.3417C18.9939 27.3417 18.7945 27.3585 18.5447 27.3585C18.301 27.3585 18.0548 27.3429 17.9191 27.3417V27.43H17.9763C18.105 27.4303 18.2883 27.4517 18.2883 27.7636V29.8743C18.2883 30.0409 18.1323 30.1167 17.9763 30.117H17.9191V30.2047C18.1185 30.204 18.3079 30.1884 18.5027 30.1884C18.7344 30.1884 18.9686 30.204 19.198 30.2047V30.117H19.1412C18.9523 30.1167 18.7835 30.0933 18.7835 29.7653V28.8589H18.8019ZM18.8019 28.7449H18.7835V27.4732L18.7994 27.472C18.8562 27.4674 18.9121 27.456 19.0376 27.456C19.4154 27.456 19.6614 27.7017 19.6617 28.0804C19.6606 28.5762 19.4232 28.7447 19.0047 28.7449H18.8019ZM19.0047 28.7095C19.4154 28.7054 19.6223 28.5629 19.6264 28.0804C19.6239 27.7175 19.3989 27.4924 19.0376 27.4909C18.9256 27.4909 18.8727 27.5012 18.8198 27.5064V28.7095H19.0047Z" fill="#1A1919"/>
<path fill-rule="evenodd" clip-rule="evenodd" d="M23.5511 29.4037L23.5583 29.3956V27.8386C23.5583 27.4977 23.3226 27.4479 23.1981 27.4479H23.1072V27.3232C23.3022 27.3232 23.4923 27.3397 23.6878 27.3397C23.8583 27.3397 24.0271 27.3232 24.1985 27.3232V27.4479H24.136C23.9617 27.4479 23.7668 27.4811 23.7668 27.9753V29.865C23.7668 30.0106 23.7709 30.1558 23.7913 30.2847H23.6343L21.4982 27.9004V29.6119C21.4982 29.9735 21.5682 30.0975 21.8876 30.0975H21.9582V30.2223C21.78 30.2223 21.6013 30.2061 21.4231 30.2061C21.2358 30.2061 21.0453 30.2223 20.8588 30.2223V30.0975H20.9164C21.2028 30.0975 21.2904 29.9022 21.2904 29.571V27.8211C21.2904 27.5888 21.0993 27.4479 20.9128 27.4479H20.8588V27.3232C21.0158 27.3232 21.1788 27.3397 21.3361 27.3397C21.4594 27.3397 21.5803 27.3232 21.705 27.3232L23.5511 29.4037Z" fill="#1A1919"/>
<path fill-rule="evenodd" clip-rule="evenodd" d="M23.7912 30.3027L23.6208 30.2969L21.5153 27.948V29.6122C21.5201 29.974 21.5748 30.0761 21.8876 30.0801H21.9755V30.2406H21.9575C21.7781 30.2406 21.6001 30.2233 21.4223 30.2233C21.2372 30.2233 21.0455 30.2406 20.8586 30.2406H20.8401V30.0801H20.9164C21.1904 30.079 21.2689 29.9021 21.2716 29.5704V27.8216C21.2711 27.6003 21.0902 27.4665 20.9128 27.4665H20.8401V27.3057H20.8586C21.0171 27.3057 21.1794 27.3219 21.336 27.3219C21.4578 27.3219 21.5779 27.3057 21.7171 27.311L23.5407 29.3667V27.8391C23.5396 27.5092 23.3187 27.4684 23.1981 27.4665H23.0886V27.3057H23.1067C23.3027 27.3057 23.4939 27.3219 23.6878 27.3219C23.8568 27.3219 24.0267 27.3057 24.1977 27.3057H24.2161V27.4665H24.136C23.9648 27.4706 23.7885 27.486 23.7844 27.9758V29.8655C23.7844 30.0109 23.788 30.1549 23.8092 30.2822L23.8112 30.3027H23.7912ZM23.6341 30.2665H23.7701C23.7519 30.1423 23.7483 30.0037 23.7483 29.8655V27.9758C23.7486 27.4773 23.9584 27.4311 24.136 27.43H24.1796V27.3417C24.0163 27.3429 23.8524 27.358 23.6878 27.358C23.4972 27.358 23.3124 27.3429 23.1248 27.3417V27.43H23.1981C23.3259 27.4311 23.5771 27.4871 23.5771 27.8391L23.5712 29.4091L23.5636 29.4171L23.5506 29.4308L21.705 27.3417C21.5815 27.3417 21.4613 27.358 21.336 27.358C21.1821 27.358 21.0271 27.3429 20.8764 27.3417V27.43H20.9128C21.108 27.4311 21.3075 27.5784 21.3075 27.8216V29.5704C21.3075 29.9037 21.2138 30.1159 20.9164 30.117L20.8764 30.1167V30.2049C21.0555 30.2036 21.2403 30.1884 21.4223 30.1884C21.5963 30.1884 21.7687 30.2036 21.9402 30.2049V30.117H21.8876C21.5611 30.1167 21.4798 29.974 21.4789 29.6122V27.8549L23.6341 30.2665ZM23.5506 29.4042L23.5641 29.3923L23.5506 29.4042ZM23.5407 29.3961V29.395L23.5377 29.3918L23.5407 29.3961Z" fill="#1A1919"/>
<path fill-rule="evenodd" clip-rule="evenodd" d="M24.8654 29.6291C24.8237 29.7698 24.7736 29.8789 24.7736 29.9526C24.7736 30.0776 24.9483 30.0982 25.0848 30.0982H25.1311V30.2229C24.9645 30.2139 24.7952 30.2068 24.6283 30.2068C24.479 30.2068 24.3305 30.2139 24.1807 30.2229V30.0982H24.2059C24.3674 30.0982 24.5048 30.0025 24.5663 29.828L25.23 27.9223C25.2842 27.7682 25.359 27.5607 25.3842 27.4066C25.5161 27.3612 25.6827 27.2787 25.7612 27.2282C25.7741 27.224 25.7818 27.2197 25.7944 27.2197C25.8069 27.2197 25.8146 27.2197 25.8237 27.2328C25.836 27.2656 25.8481 27.303 25.861 27.3362L26.6245 29.5087C26.6743 29.6536 26.7236 29.8072 26.7767 29.9325C26.8273 30.049 26.9144 30.0982 27.0518 30.0982H27.0766V30.2229C26.8898 30.2139 26.7026 30.2068 26.5044 30.2068C26.3011 30.2068 26.093 30.2139 25.8815 30.2229V30.0982H25.9272C26.0221 30.0982 26.1849 30.0817 26.1849 29.9778C26.1849 29.9242 26.1474 29.8119 26.101 29.6785L25.9395 29.1969H24.998L24.8654 29.6291ZM25.4711 27.7891H25.4624L25.0769 28.9646H25.852L25.4711 27.7891Z" fill="#1A1919"/>
<path fill-rule="evenodd" clip-rule="evenodd" d="M27.0753 30.2409C26.8889 30.2329 26.7019 30.2236 26.5044 30.2236C26.301 30.2236 26.0941 30.2329 25.8824 30.2409L25.8633 30.2419V30.0796H25.9272C26.0233 30.0796 26.1658 30.0581 26.1662 29.9781C26.1671 29.9307 26.1299 29.8169 26.0842 29.6849L25.9262 29.215H25.0113L24.8822 29.6347C24.8404 29.7759 24.79 29.8856 24.7908 29.9532C24.7922 30.0546 24.947 30.0796 25.0847 30.0796H25.1485V30.2419L25.1297 30.2409C24.9638 30.2329 24.7946 30.2236 24.6286 30.2236C24.4805 30.2236 24.3306 30.2329 24.182 30.2409L24.1627 30.2419V30.0796H24.2057C24.3599 30.0793 24.4887 29.9911 24.5487 29.8224L25.213 27.9161C25.2666 27.7624 25.342 27.5558 25.3778 27.3898C25.5079 27.3456 25.6748 27.2618 25.7544 27.2117C25.7661 27.2076 25.7775 27.2022 25.7942 27.2022C25.8044 27.2016 25.8267 27.2043 25.8402 27.226C25.852 27.2601 25.8651 27.2973 25.8777 27.3308L26.6415 29.503C26.6903 29.6484 26.7399 29.8018 26.7942 29.9249C26.8423 30.0356 26.9184 30.0793 27.0518 30.0796H27.0937V30.2419L27.0753 30.2409ZM25.8995 30.204C26.1048 30.1967 26.3062 30.1887 26.5044 30.1887C26.6967 30.1887 26.8776 30.1967 27.0579 30.204V30.117H27.0518C26.9095 30.118 26.8117 30.062 26.7608 29.9395C26.7068 29.8141 26.6564 29.6599 26.6074 29.5144L25.8436 27.3421C25.8311 27.309 25.8193 27.2719 25.8085 27.2423C25.8044 27.2382 25.8053 27.2382 25.802 27.2382H25.7942C25.7858 27.2382 25.7808 27.2407 25.7701 27.2434C25.6904 27.2953 25.5241 27.3772 25.4007 27.4096C25.3754 27.567 25.3007 27.7745 25.2468 27.9284L24.5831 29.8342C24.5199 30.0147 24.3741 30.1173 24.2057 30.117H24.1988V30.204C24.3411 30.1967 24.4846 30.1887 24.6286 30.1887C24.7891 30.1887 24.9527 30.1967 25.1114 30.204V30.117H25.0847C24.9492 30.1151 24.7605 30.1004 24.7558 29.9532C24.7561 29.8708 24.807 29.7646 24.8476 29.6242L24.8652 29.6294L24.8476 29.6237L24.9843 29.1799H25.9515L26.1176 29.6731C26.1643 29.8067 26.202 29.9174 26.202 29.9781C26.1958 30.1052 26.0212 30.1147 25.9272 30.117H25.8995V30.204ZM25.0516 28.9828L25.4487 27.771H25.471V27.7894L25.4666 27.7907L25.471 27.7894V27.771H25.4834L25.8777 28.9828H25.0516ZM25.1012 28.9465H25.8275L25.4665 27.8336L25.1012 28.9465ZM25.453 27.7947L25.4625 27.7918L25.453 27.7947Z" fill="#1A1919"/>
<path fill-rule="evenodd" clip-rule="evenodd" d="M27.2588 27.5317C26.9478 27.5317 26.9352 27.6069 26.8727 27.9097H26.748C26.7644 27.7933 26.7856 27.6772 26.7985 27.5567C26.8146 27.4399 26.8226 27.3241 26.8226 27.204H26.923C26.9555 27.3286 27.0594 27.3241 27.1714 27.3241H29.3122C29.4237 27.3241 29.5273 27.32 29.5355 27.1953L29.6347 27.2123C29.6193 27.3241 29.6029 27.4363 29.5898 27.5487C29.5807 27.6608 29.5807 27.7726 29.5807 27.8847L29.4568 27.9309C29.4494 27.7775 29.4286 27.5317 29.15 27.5317H28.4698V29.7413C28.4698 30.0617 28.6152 30.0983 28.814 30.0983H28.8933V30.2231C28.7312 30.2231 28.4414 30.2071 28.2168 30.2071C27.9684 30.2071 27.6773 30.2231 27.5156 30.2231V30.0983H27.5946C27.8232 30.0983 27.9389 30.0779 27.9389 29.7499V27.5317H27.2588Z" fill="#1A1919"/>
<path fill-rule="evenodd" clip-rule="evenodd" d="M28.8933 30.2405C28.7303 30.2405 28.4395 30.224 28.2165 30.224C27.9687 30.224 27.6783 30.2405 27.5157 30.2405H27.4974V30.08H27.5946C27.8233 30.0746 27.915 30.0717 27.9205 29.7495L27.9202 27.5491H27.2588V27.5128H27.9568V29.7495C27.9568 30.083 27.8224 30.1158 27.5946 30.1166H27.5335V30.205C27.6974 30.2035 27.9761 30.1883 28.2165 30.1883C28.4334 30.1883 28.711 30.2035 28.8748 30.205V30.1166H28.8138C28.6139 30.1158 28.4524 30.0677 28.4521 29.7409V27.5128H29.15C29.4287 27.5139 29.465 27.7506 29.473 27.9052L29.5631 27.872C29.5631 27.7635 29.5638 27.6549 29.5722 27.5463C29.5834 27.4392 29.5991 27.3329 29.6142 27.227L29.5515 27.216C29.5325 27.3369 29.4154 27.3436 29.3122 27.3417H27.1502C27.0524 27.3428 26.9465 27.3372 26.9088 27.221H26.841C26.8401 27.3359 26.8319 27.4475 26.8156 27.5582C26.8043 27.6728 26.7843 27.7827 26.7685 27.892H26.8577C26.9121 27.6022 26.9481 27.5082 27.2588 27.5128V27.5491C26.9512 27.5544 26.958 27.6066 26.8903 27.9135L26.8873 27.9276H26.7272L26.7297 27.907C26.7471 27.7902 26.7675 27.6736 26.7796 27.554C26.7966 27.4378 26.8043 27.3225 26.8043 27.2035V27.1851H26.936L26.9395 27.1982C26.9685 27.3029 27.044 27.3037 27.1502 27.3056H29.3122C29.427 27.3037 29.5107 27.3021 29.5181 27.1938L29.5187 27.1738L29.538 27.1776L29.6558 27.1962L29.653 27.2145C29.6358 27.326 29.6201 27.4378 29.6076 27.5491C29.5991 27.6604 29.5991 27.7722 29.5991 27.8843V27.8968L29.587 27.9017L29.4402 27.9555L29.4396 27.9314C29.4287 27.7752 29.4122 27.5491 29.15 27.5491H28.4877V29.7409C28.4919 30.054 28.6161 30.0761 28.8138 30.08H28.9106V30.2405H28.8933Z" fill="#1A1919"/>
<path fill-rule="evenodd" clip-rule="evenodd" d="M29.7883 30.0975H29.8464C29.9959 30.0975 30.1529 30.0771 30.1529 29.8609V27.6851C30.1529 27.4687 29.9959 27.4481 29.8464 27.4481H29.7883V27.3232C29.9502 27.3232 30.1986 27.3397 30.4017 27.3397C30.6096 27.3397 30.8586 27.3232 31.0539 27.3232V27.4481H30.9957C30.8457 27.4481 30.6881 27.4687 30.6881 27.6851V29.8609C30.6881 30.0771 30.8457 30.0975 30.9957 30.0975H31.0539V30.2223C30.8547 30.2223 30.6055 30.2063 30.3984 30.2063C30.1947 30.2063 29.9502 30.2223 29.7883 30.2223V30.0975Z" fill="#1A1919"/>
<path fill-rule="evenodd" clip-rule="evenodd" d="M31.0538 30.2406C30.8533 30.2406 30.6052 30.2233 30.3983 30.2233C30.1953 30.2233 29.9503 30.2406 29.7883 30.2406H29.7705V30.0801H29.8465C29.996 30.0776 30.1339 30.0644 30.1348 29.8614V27.6856C30.1339 27.4827 29.996 27.4692 29.8465 27.4665H29.7705V27.3057H29.7883C29.9503 27.3057 30.1998 27.3219 30.4016 27.3219C30.6084 27.3219 30.8573 27.3057 31.0538 27.3057H31.0711V27.4665H30.9957C30.8439 27.4692 30.7075 27.4827 30.706 27.6856V29.8614C30.7075 30.0644 30.8439 30.0776 30.9957 30.0801H31.0711V30.2406H31.0538ZM31.035 30.2047V30.1167H30.9957C30.8469 30.1167 30.6709 30.0906 30.6709 29.8614V27.6856C30.6709 27.456 30.8469 27.4303 30.9957 27.43H31.035V27.3417C30.8437 27.3429 30.6035 27.358 30.4016 27.358C30.2047 27.358 29.9673 27.3429 29.8063 27.3417V27.43H29.8465C29.9938 27.4303 30.1706 27.456 30.1711 27.6856V29.8614C30.1706 30.0906 29.9938 30.1167 29.8465 30.1167H29.8063V30.2047C29.9662 30.2029 30.2007 30.1884 30.3983 30.1884C30.5994 30.1884 30.8394 30.2036 31.035 30.2047Z" fill="#1A1919"/>
<path fill-rule="evenodd" clip-rule="evenodd" d="M32.708 27.2617C33.5924 27.2617 34.2972 27.8105 34.2972 28.6951C34.2972 29.6505 33.6126 30.2855 32.7294 30.2855C31.8496 30.2855 31.1779 29.6873 31.1779 28.7942C31.1779 27.9308 31.8455 27.2617 32.708 27.2617ZM32.7707 30.1026C33.5757 30.1026 33.7161 29.3919 33.7161 28.7863C33.7161 28.1793 33.3892 27.4446 32.7002 27.4446C31.9744 27.4446 31.7585 28.0926 31.7585 28.6486C31.7585 29.3919 32.0989 30.1026 32.7707 30.1026Z" fill="#1A1919"/>
<path fill-rule="evenodd" clip-rule="evenodd" d="M31.1593 28.7937C31.161 27.9203 31.8364 27.2446 32.7078 27.2432V27.2795C31.8551 27.2795 31.1954 27.9394 31.1945 28.7937C31.1962 29.6767 31.8582 30.266 32.7295 30.2663C33.6038 30.266 34.2785 29.6401 34.2796 28.694C34.2788 27.8204 33.5851 27.2803 32.7078 27.2795V27.2432C33.5985 27.2441 34.3134 27.7983 34.315 28.694C34.314 29.6593 33.6212 30.3009 32.7295 30.3024C31.8422 30.3009 31.161 29.6967 31.1593 28.7937ZM31.7403 28.6481C31.7415 28.0893 31.9593 27.4255 32.7 27.4255C33.4044 27.4271 33.7329 28.1756 33.7343 28.7858C33.7329 29.3914 33.5906 30.1191 32.7708 30.1191V30.0839C33.5595 30.0833 33.6966 29.3914 33.6979 28.7858C33.6979 28.1842 33.3742 27.4633 32.7 27.4622C31.9884 27.4629 31.7781 28.0949 31.7762 28.6481C31.7766 29.388 32.1138 30.0828 32.7708 30.0839V30.1191C32.0823 30.1185 31.7415 29.3958 31.7403 28.6481Z" fill="#1A1919"/>
<path fill-rule="evenodd" clip-rule="evenodd" d="M37.0924 29.4037L37.1011 29.3956V27.8386C37.1011 27.4977 36.8638 27.4479 36.7395 27.4479H36.6492V27.3232C36.8436 27.3232 37.0348 27.3397 37.2292 27.3397C37.3997 27.3397 37.5698 27.3232 37.74 27.3232V27.4479H37.6777C37.5038 27.4479 37.308 27.4811 37.308 27.9753V29.865C37.308 30.0106 37.3124 30.1558 37.3335 30.2847H37.1757L35.0389 27.9004V29.6119C35.0389 29.9735 35.1097 30.0975 35.4285 30.0975H35.4996V30.2223C35.3211 30.2223 35.143 30.2061 34.9646 30.2061C34.7778 30.2061 34.5868 30.2223 34.4001 30.2223V30.0975H34.4584C34.7451 30.0975 34.8316 29.9022 34.8316 29.571V27.8211C34.8316 27.5888 34.6415 27.4479 34.4538 27.4479H34.4001V27.3232C34.5578 27.3232 34.7194 27.3397 34.8773 27.3397C35.0015 27.3397 35.1212 27.3232 35.2462 27.3232L37.0924 29.4037Z" fill="#1A1919"/>
<path fill-rule="evenodd" clip-rule="evenodd" d="M37.3337 30.3027L37.1621 30.2969L35.0569 27.948V29.6124C35.0618 29.974 35.1166 30.0757 35.4281 30.0793H35.5175V30.2406H35.4999C35.3202 30.2406 35.1422 30.2239 34.9647 30.2239C34.7788 30.2239 34.5879 30.2406 34.3998 30.2406H34.3828V30.0793H34.4583C34.7317 30.0785 34.8105 29.9021 34.8138 29.5714V27.8216C34.8137 27.6003 34.6323 27.4665 34.4541 27.4665H34.3828V27.3057H34.3998C34.5588 27.3057 34.7206 27.3219 34.8773 27.3219C35.0004 27.3219 35.1196 27.3057 35.2602 27.3121L37.083 29.3667V27.8391C37.0815 27.5092 36.8606 27.4692 36.7395 27.4665H36.6303V27.3057H36.6493C36.8441 27.3057 37.0355 27.3219 37.2288 27.3219C37.3986 27.3219 37.5678 27.3057 37.7402 27.3057H37.7577V27.4665H37.6776C37.5066 27.4709 37.3301 27.4866 37.3267 27.9758V29.8655C37.3267 30.0109 37.33 30.1559 37.35 30.2822L37.3537 30.3027H37.3337ZM37.1758 30.2665H37.3117C37.2942 30.1415 37.2901 30.0037 37.2901 29.8655V27.9758C37.2901 27.4765 37.4995 27.4311 37.6776 27.43H37.7225V27.3417C37.5578 27.3429 37.3946 27.358 37.2288 27.358C37.0399 27.358 36.8545 27.3429 36.6667 27.3417V27.43H36.7396C36.8677 27.4311 37.1181 27.4879 37.1181 27.8391L37.1137 29.4091L37.1057 29.4171L37.0925 29.4308L35.2464 27.3417C35.1236 27.3417 35.0029 27.358 34.8773 27.358C34.7243 27.358 34.5686 27.3429 34.4177 27.3417V27.43H34.4541C34.6491 27.4311 34.8495 27.5784 34.8495 27.8216V29.5713C34.8495 29.9037 34.7568 30.1159 34.4583 30.117L34.4177 30.1167V30.2049C34.5978 30.2036 34.7824 30.1884 34.9647 30.1884C35.1378 30.1884 35.3097 30.2036 35.4817 30.2049V30.117H35.4281C35.1026 30.1167 35.021 29.974 35.021 29.6124V27.8543L37.1758 30.2665ZM37.0925 29.4042L37.1057 29.3923L37.0925 29.4042ZM37.083 29.3961V29.395L37.0797 29.3918L37.083 29.3961Z" fill="#1A1919"/>
<path fill-rule="evenodd" clip-rule="evenodd" d="M38.4065 29.6291C38.3658 29.7698 38.3157 29.8789 38.3157 29.9526C38.3157 30.0776 38.4905 30.0982 38.6265 30.0982H38.6728V30.2229C38.5067 30.2139 38.3365 30.2068 38.1703 30.2068C38.021 30.2068 37.8718 30.2139 37.7231 30.2229V30.0982H37.7467C37.9094 30.0982 38.0468 30.0025 38.1074 29.828L38.7725 27.9223C38.8261 27.7682 38.9011 27.5607 38.925 27.4066C39.0583 27.3612 39.2238 27.2787 39.3037 27.2282C39.3153 27.224 39.3237 27.2197 39.3365 27.2197C39.3486 27.2197 39.3565 27.2197 39.365 27.2328C39.3775 27.2656 39.3899 27.303 39.4025 27.3362L40.1658 29.5087C40.2152 29.6536 40.2653 29.8072 40.3195 29.9325C40.3693 30.049 40.4563 30.0982 40.593 30.0982H40.6186V30.2229C40.4316 30.2139 40.2448 30.2068 40.0455 30.2068C39.8426 30.2068 39.6349 30.2139 39.4231 30.2229V30.0982H39.4691C39.5639 30.0982 39.7266 30.0817 39.7266 29.9778C39.7266 29.9242 39.6894 29.8119 39.643 29.6785L39.4813 29.1969H38.5398L38.4065 29.6291ZM39.0131 27.7891H39.0048L38.618 28.9646H39.395L39.0131 27.7891Z" fill="#1A1919"/>
<path fill-rule="evenodd" clip-rule="evenodd" d="M40.6167 30.2407C40.4297 30.2333 40.2435 30.224 40.0456 30.224C39.8432 30.224 39.6353 30.2333 39.424 30.2407L39.4056 30.2416V30.0802H39.4687C39.5652 30.0802 39.708 30.0578 39.7082 29.9778C39.7093 29.9305 39.6718 29.8172 39.6251 29.6846L39.4678 29.2147H38.5521L38.4239 29.6345C38.3822 29.7768 38.3332 29.8854 38.3336 29.9527C38.3336 30.0544 38.4892 30.0802 38.6263 30.0802H38.6898V30.2416L38.6711 30.2407C38.5054 30.2333 38.3355 30.224 38.1703 30.224C38.0216 30.224 37.8728 30.2333 37.7231 30.2407L37.7051 30.2416V30.0802H37.7467C37.9014 30.0794 38.0307 29.9907 38.0915 29.8222L38.7549 27.9159C38.8082 27.7621 38.8831 27.5556 38.9195 27.3902C39.0498 27.3449 39.2164 27.2616 39.2971 27.2114C39.3078 27.2073 39.3194 27.2023 39.3364 27.2023C39.3471 27.2014 39.3689 27.204 39.3816 27.2267C39.3942 27.2594 39.4064 27.2971 39.4199 27.3306L40.1827 29.5027C40.2327 29.6482 40.2821 29.8016 40.336 29.9255C40.3848 30.0354 40.4599 30.0791 40.5925 30.0802H40.6354V30.2416L40.6167 30.2407ZM39.4408 30.204C39.646 30.1965 39.8478 30.1885 40.0456 30.1885C40.2385 30.1885 40.4189 30.1965 40.5999 30.2037L40.5995 30.1168H40.5926C40.452 30.1171 40.3542 30.0618 40.3024 29.9393C40.2477 29.8139 40.1984 29.6596 40.1487 29.5147L39.3854 27.3419C39.3731 27.3087 39.3599 27.2716 39.3502 27.2429C39.3467 27.238 39.3471 27.238 39.3445 27.238H39.3364C39.3274 27.238 39.3229 27.2408 39.313 27.2437C39.2318 27.2944 39.0658 27.3778 38.9434 27.4094C38.9176 27.5667 38.8422 27.7739 38.7888 27.9281L38.1245 29.834C38.0614 30.0145 37.9164 30.1171 37.7467 30.1168H37.7406V30.2037C37.8835 30.1965 38.026 30.1885 38.1703 30.1885C38.331 30.1885 38.4951 30.1965 38.6544 30.2037V30.1168H38.6263C38.4914 30.1149 38.3024 30.1006 38.2971 29.9527C38.2982 29.8706 38.3492 29.7646 38.3899 29.6239L38.4065 29.6291L38.3899 29.6235L38.5263 29.1797H39.4932L39.6598 29.6728C39.7055 29.8065 39.7434 29.9171 39.7434 29.9778C39.7374 30.105 39.563 30.1144 39.4687 30.1168H39.4408V30.204ZM38.5932 28.9824L38.9916 27.7708H39.0131V27.7892L39.0084 27.7904L39.0131 27.7892V27.7708H39.0256L39.4179 28.9824H38.5932ZM38.6433 28.9462H39.369L39.0082 27.834L38.6433 28.9462ZM38.9958 27.7945L39.004 27.7915L38.9958 27.7945Z" fill="#1A1919"/>
<path fill-rule="evenodd" clip-rule="evenodd" d="M41.6633 29.815C41.6633 29.9819 41.7786 30.0312 41.9117 30.0484C42.0815 30.0609 42.2683 30.0609 42.4597 30.0396C42.6337 30.0187 42.7831 29.9197 42.8575 29.815C42.9234 29.7238 42.9608 29.6075 42.9862 29.5163H43.1062C43.0605 29.7531 43.0026 29.9859 42.9528 30.2223C42.5885 30.2223 42.2223 30.2063 41.8579 30.2063C41.4925 30.2063 41.1277 30.2223 40.7628 30.2223V30.0975H40.8203C40.9699 30.0975 41.1323 30.0771 41.1323 29.8196V27.6851C41.1323 27.4687 40.9699 27.4479 40.8203 27.4479H40.7628V27.3232C40.9823 27.3232 41.1984 27.3397 41.4179 27.3397C41.6299 27.3397 41.8368 27.3232 42.049 27.3232V27.4479H41.9447C41.7871 27.4479 41.6633 27.4523 41.6633 27.6724V29.815Z" fill="#1A1919"/>
<path fill-rule="evenodd" clip-rule="evenodd" d="M42.953 30.2406C42.5871 30.2406 42.2217 30.2239 41.8579 30.2239C41.493 30.2239 41.1279 30.2406 40.7621 30.2406H40.7446V30.0801H40.8203C40.9703 30.0765 41.1127 30.0659 41.1144 29.8201V27.6849C41.1127 27.4827 40.9709 27.4692 40.8203 27.4665H40.7446V27.3057H40.7621C40.983 27.3057 41.1989 27.3219 41.4176 27.3219C41.6288 27.3219 41.8355 27.3057 42.049 27.3057H42.0657V27.4665H41.9447C41.7838 27.4706 41.6839 27.4633 41.6803 27.6729V29.8155C41.6814 29.9708 41.783 30.0123 41.9127 30.0309C41.9857 30.0359 42.063 30.0386 42.1427 30.0386C42.2442 30.0386 42.3495 30.0339 42.4568 30.0225C42.6257 30.0024 42.7711 29.9046 42.8429 29.8056C42.907 29.7168 42.9431 29.6029 42.9682 29.5126L42.9717 29.4989H43.1281L43.1244 29.5207C43.0775 29.7581 43.0203 29.9898 42.9701 30.2266L42.9668 30.2406H42.953ZM42.9377 30.2047C42.9858 29.9792 43.04 29.7586 43.0849 29.5346H42.9993C42.9739 29.625 42.9368 29.7364 42.8718 29.8268C42.7942 29.9343 42.6407 30.0359 42.4607 30.0582C42.3522 30.0692 42.2443 30.0749 42.1427 30.0749C42.0624 30.0749 41.9848 30.0713 41.9093 30.0659C41.7744 30.0512 41.6439 29.9931 41.644 29.8155V27.6729C41.644 27.442 41.7899 27.43 41.9447 27.43H42.0302V27.3417C41.8259 27.3429 41.6241 27.3585 41.4176 27.3585C41.2033 27.3585 40.993 27.3429 40.7807 27.3417V27.43H40.8203C40.9682 27.43 41.1493 27.456 41.1493 27.6848V29.8201C41.1493 30.0889 40.969 30.1167 40.8203 30.1167H40.7807V30.2047C41.1391 30.204 41.4977 30.1884 41.8579 30.1884C42.2186 30.1884 42.5786 30.204 42.9377 30.2047Z" fill="#1A1919"/>
<path fill-rule="evenodd" clip-rule="evenodd" d="M17.1462 12.6609C17.1462 8.77615 20.2917 5.62695 24.1717 5.62695C28.0519 5.62695 31.1973 8.77615 31.1973 12.6609C31.1973 16.5457 28.0519 19.6951 24.1717 19.6951C20.2917 19.6951 17.1462 16.5457 17.1462 12.6609Z" fill="#FFFFFE"/>
<path fill-rule="evenodd" clip-rule="evenodd" d="M28.4205 12.5228C28.4177 10.7215 27.2931 9.18524 25.7084 8.57685V16.4684C27.2931 15.8592 28.4177 14.3244 28.4205 12.5228ZM22.6855 16.4668V8.57763C21.1022 9.18791 19.9793 10.722 19.9751 12.5228C19.9793 14.3231 21.1022 15.857 22.6855 16.4668ZM24.1977 5.85258C20.5184 5.85399 17.5375 8.83907 17.5369 12.5228C17.5375 16.206 20.5184 19.1906 24.1977 19.1912C27.8771 19.1906 30.8586 16.206 30.8595 12.5228C30.8586 8.83907 27.8771 5.85399 24.1977 5.85258ZM24.1814 19.8207C20.1552 19.8399 16.8414 16.5742 16.8414 12.5989C16.8414 8.25425 20.1552 5.24921 24.1814 5.25H26.0682C30.0468 5.24921 33.6779 8.25284 33.6779 12.5989C33.6779 16.5728 30.0468 19.8207 26.0682 19.8207H24.1814Z" fill="#0069AA"/>
<path fill-rule="evenodd" clip-rule="evenodd" d="M7.45801 30.0975H7.51626C7.66543 30.0975 7.82308 30.0771 7.82308 29.8609V27.6851C7.82308 27.4687 7.66543 27.4481 7.51626 27.4481H7.45801V27.3232C7.61974 27.3232 7.86862 27.3397 8.07243 27.3397C8.2797 27.3397 8.52827 27.3232 8.72329 27.3232V27.4481H8.66472C8.51618 27.4481 8.35821 27.4687 8.35821 27.6851V29.8609C8.35821 30.0771 8.51618 30.0975 8.66472 30.0975H8.72329V30.2223C8.52434 30.2223 8.27483 30.2063 8.06819 30.2063C7.86454 30.2063 7.61974 30.2223 7.45801 30.2223V30.0975Z" fill="#1A1919"/>
<path fill-rule="evenodd" clip-rule="evenodd" d="M8.72328 30.2406C8.5226 30.2406 8.27435 30.2239 8.06787 30.2239C7.86484 30.2239 7.62083 30.2406 7.458 30.2406H7.43994V30.0801H7.51594C7.66652 30.0765 7.80345 30.0644 7.8047 29.8614V27.6856C7.80345 27.4824 7.66652 27.4692 7.51594 27.4665H7.43994V27.3057H7.458C7.62083 27.3057 7.86955 27.3219 8.07242 27.3219C8.27875 27.3219 8.52716 27.3057 8.72328 27.3057H8.74181V27.4665H8.66549C8.51475 27.4692 8.37705 27.4824 8.37626 27.6856V29.8614C8.37705 30.0644 8.51475 30.0765 8.66549 30.0801H8.74181V30.2406H8.72328ZM8.70538 30.2051L8.70554 30.1167H8.66549C8.51711 30.1167 8.34077 30.0906 8.33983 29.8614V27.6856C8.34077 27.456 8.51711 27.4303 8.66549 27.4303H8.70538V27.3417C8.51397 27.3418 8.27357 27.3585 8.07242 27.3585C7.87536 27.3585 7.63685 27.3429 7.47621 27.3417V27.4303H7.51594C7.66385 27.4303 7.8405 27.456 7.8405 27.6856V29.8614C7.8405 30.0906 7.66385 30.1167 7.51594 30.1167H7.47621V30.2051C7.63685 30.2036 7.87112 30.1884 8.06787 30.1884C8.26996 30.1884 8.50973 30.204 8.70538 30.2051Z" fill="#1A1919"/>
<path fill-rule="evenodd" clip-rule="evenodd" d="M43.0557 27.2061C43.306 27.2061 43.4927 27.3985 43.4927 27.6444C43.4927 27.8901 43.306 28.0804 43.0557 28.0804C42.806 28.0804 42.619 27.8901 42.619 27.6444C42.619 27.3985 42.806 27.2061 43.0557 27.2061ZM43.0557 27.9992C43.2517 27.9992 43.4013 27.8324 43.4013 27.6444C43.4013 27.456 43.2534 27.288 43.0557 27.288C42.8591 27.288 42.7096 27.456 42.7096 27.6444C42.7096 27.8324 42.8591 27.9992 43.0557 27.9992ZM42.8385 27.875V27.8538C42.8919 27.8461 42.902 27.8475 42.902 27.8148V27.4906C42.902 27.445 42.8974 27.4293 42.8403 27.4318V27.4095H43.0639C43.1406 27.4095 43.2115 27.4463 43.2115 27.5258C43.2115 27.5907 43.1687 27.639 43.1081 27.6577L43.1801 27.758C43.2135 27.8033 43.2517 27.8461 43.2761 27.8611V27.875H43.1912C43.1504 27.875 43.1143 27.7891 43.0342 27.6739H42.9858V27.8189C42.9858 27.8475 42.9959 27.8461 43.0496 27.8538V27.875H42.8385ZM42.9858 27.6444H43.0373C43.0937 27.6444 43.1198 27.6018 43.1198 27.5327C43.1198 27.4632 43.0796 27.4386 43.0345 27.4386H42.9858V27.6444Z" fill="#1A1919"/>
</svg>
