<svg width="51" height="35" viewBox="0 0 51 35"  xmlns="http://www.w3.org/2000/svg">
<rect x="0.5" y="0.5" width="49.6897" height="34" rx="3.5" fill="white" stroke="#F3F3F3"/>
<path fill-rule="evenodd" clip-rule="evenodd" d="M16.6655 17.7821C16.6655 19.9189 18.3414 21.5757 20.4981 21.5757C21.1077 21.5757 21.63 21.4558 22.2738 21.1522V19.483C21.7077 20.0504 21.2061 20.2793 20.564 20.2793C19.1375 20.2793 18.1251 19.2437 18.1251 17.7714C18.1251 16.3758 19.1695 15.2748 20.4981 15.2748C21.1736 15.2748 21.685 15.5161 22.2738 16.0927V14.4244C21.6522 14.1087 21.1411 13.9778 20.5315 13.9778C18.3857 13.9778 16.6655 15.6683 16.6655 17.7821ZM13.0308 16.0165C13.0308 16.4094 13.2802 16.617 14.1302 16.9318C15.7412 17.5219 16.2187 18.0446 16.2187 19.1998C16.2187 20.607 15.1861 21.5869 13.7144 21.5869C12.6366 21.5869 11.8528 21.1619 11.2003 20.2028L12.1154 19.3206C12.4414 19.952 12.9856 20.2904 13.6611 20.2904C14.2932 20.2904 14.7608 19.854 14.7608 19.265C14.7608 18.9597 14.6191 18.6976 14.3361 18.5125C14.1938 18.4249 13.9116 18.2946 13.357 18.0986C12.0267 17.6194 11.5706 17.1065 11.5706 16.105C11.5706 14.9152 12.5505 14.0221 13.8353 14.0221C14.6315 14.0221 15.36 14.2945 15.969 14.8279L15.2279 15.7994C14.859 15.3854 14.51 15.2107 14.0858 15.2107C13.4754 15.2107 13.0308 15.5587 13.0308 16.0165ZM9.25051 21.4121H10.6669V14.1422H9.25051V21.4121ZM6.35546 19.6033C5.91054 20.0058 5.33237 20.1814 4.41728 20.1814H4.03716V15.3738H4.41728C5.33237 15.3738 5.88782 15.5378 6.35546 15.9619C6.84527 16.3984 7.13983 17.0753 7.13983 17.7715C7.13983 18.4695 6.84527 19.1669 6.35546 19.6033ZM4.7009 14.1422H2.62189V21.4118H4.68996C5.78963 21.4118 6.58354 21.1523 7.28065 20.5726C8.10906 19.8865 8.59886 18.852 8.59886 17.7822C8.59886 15.6367 6.99788 14.1422 4.7009 14.1422ZM31.5677 14.1422L33.5039 19.0253L35.4654 14.1422H37.0007L33.8638 21.5986H33.1016L30.0203 14.1422H31.5677ZM37.6411 21.4119H41.6578V20.1812H39.0564V18.2188H41.5621V16.9875H39.0564V15.3739H41.6578V14.142H37.6411V21.4119ZM44.0105 17.489H44.4243C45.329 17.489 45.8084 17.0955 45.8084 16.3647C45.8084 15.6572 45.329 15.2873 44.4467 15.2873H44.0105V17.489ZM44.6961 14.142C46.3294 14.142 47.2658 14.9273 47.2658 16.2883C47.2658 17.4014 46.6783 18.1322 45.6115 18.3493L47.8975 21.4119H46.1557L44.1954 18.4914H44.0105V21.4119H42.5958V14.142H44.6961Z" fill="#1D1D1B"/>
<path fill-rule="evenodd" clip-rule="evenodd" d="M29.8531 19.886C31.0027 18.0863 30.4777 15.6954 28.6804 14.5446V14.5446C26.8831 13.3938 24.4946 13.9192 23.345 15.7189V15.7189C22.1957 17.5181 22.7209 19.9097 24.5182 21.0605V21.0605C26.3155 22.2113 28.7039 21.6852 29.8531 19.886Z" fill="#F6A000"/>
</svg>
