<svg width="52" height="35" viewBox="0 0 52 35" xmlns="http://www.w3.org/2000/svg">
<rect x="1.1897" y="0.5" width="49.6897" height="34" rx="3.5" fill="white" stroke="#F3F3F3"/>
<path fill-rule="evenodd" clip-rule="evenodd" d="M19.2604 27.0292V28.3215V29.6137H18.6947V29.2999C18.5153 29.5327 18.243 29.6787 17.8729 29.6787C17.1434 29.6787 16.5714 29.1112 16.5714 28.3215C16.5714 27.5324 17.1434 26.9642 17.8729 26.9642C18.243 26.9642 18.5153 27.1103 18.6947 27.343V27.0292H19.2604ZM17.9433 27.494C17.4536 27.494 17.154 27.8672 17.154 28.3215C17.154 28.7757 17.4536 29.1489 17.9433 29.1489C18.4112 29.1489 18.7271 28.7918 18.7271 28.3215C18.7271 27.8511 18.4112 27.494 17.9433 27.494ZM38.3773 28.3215C38.3773 27.8672 38.677 27.494 39.1667 27.494C39.6352 27.494 39.9504 27.8511 39.9504 28.3215C39.9504 28.7918 39.6352 29.1489 39.1667 29.1489C38.677 29.1489 38.3773 28.7757 38.3773 28.3215ZM40.4844 25.9913V28.3215V29.6137H39.9181V29.2999C39.7386 29.5327 39.4664 29.6787 39.0963 29.6787C38.3667 29.6787 37.7948 29.1112 37.7948 28.3215C37.7948 27.5324 38.3667 26.9642 39.0963 26.9642C39.4664 26.9642 39.7386 27.1103 39.9181 27.343V25.9913H40.4844ZM26.2825 27.4674C26.647 27.4674 26.8812 27.6945 26.9411 28.0943H25.591C25.6514 27.7211 25.8794 27.4674 26.2825 27.4674ZM24.9978 28.3215C24.9978 27.5157 25.5311 26.9642 26.2937 26.9642C27.0227 26.9642 27.5236 27.5157 27.5292 28.3215C27.5292 28.397 27.5236 28.4675 27.518 28.5375L25.586 28.5375C25.6676 29.0029 25.9997 29.1706 26.3641 29.1706C26.6252 29.1706 26.903 29.0728 27.1211 28.9001L27.3983 29.3167C27.0825 29.5815 26.7236 29.6787 26.3317 29.6787C25.5529 29.6787 24.9978 29.1434 24.9978 28.3215ZM33.1246 28.3215C33.1246 27.8672 33.4243 27.494 33.914 27.494C34.3818 27.494 34.6977 27.8511 34.6977 28.3215C34.6977 28.7918 34.3818 29.1489 33.914 29.1489C33.4243 29.1489 33.1246 28.7757 33.1246 28.3215ZM35.231 27.0292V28.3215V29.6137H34.6653V29.2999C34.4853 29.5327 34.2136 29.6787 33.8436 29.6787C33.114 29.6787 32.5421 29.1112 32.5421 28.3215C32.5421 27.5324 33.114 26.9642 33.8436 26.9642C34.2136 26.9642 34.4853 27.1103 34.6653 27.343V27.0292H35.231ZM29.9297 28.3215C29.9297 29.1056 30.4792 29.6787 31.3178 29.6787C31.7097 29.6787 31.9707 29.5921 32.2536 29.3705L31.9819 28.9162C31.7695 29.0679 31.5464 29.1489 31.301 29.1489C30.8493 29.1434 30.5172 28.8191 30.5172 28.3215C30.5172 27.8239 30.8493 27.4996 31.301 27.494C31.5464 27.494 31.7695 27.5751 31.9819 27.7267L32.2536 27.2724C31.9707 27.0509 31.7097 26.9642 31.3178 26.9642C30.4792 26.9642 29.9297 27.5373 29.9297 28.3215ZM36.5374 27.343C36.6844 27.1159 36.8969 26.9642 37.2234 26.9642C37.338 26.9642 37.5012 26.9859 37.6265 27.0348L37.452 27.5646C37.3324 27.5157 37.2128 27.4996 37.0981 27.4996C36.7281 27.4996 36.543 27.7372 36.543 28.1649V29.6137H35.9767V27.0292H36.5374V27.343ZM22.0584 27.2347C21.7861 27.0564 21.411 26.9642 20.9974 26.9642C20.3382 26.9642 19.9139 27.278 19.9139 27.7917C19.9139 28.2132 20.2298 28.4731 20.8117 28.5542L21.079 28.5919C21.3892 28.6352 21.5356 28.7163 21.5356 28.8624C21.5356 29.0623 21.3288 29.1762 20.9425 29.1762C20.5506 29.1762 20.2678 29.0518 20.0771 28.9057L19.8105 29.3433C20.1208 29.5704 20.5126 29.6787 20.9369 29.6787C21.6883 29.6787 22.1238 29.3272 22.1238 28.8352C22.1238 28.3809 21.7811 28.1432 21.2148 28.0621L20.9481 28.0238C20.7033 27.9916 20.507 27.9433 20.507 27.77C20.507 27.5806 20.6921 27.4674 21.0023 27.4674C21.3344 27.4674 21.6559 27.5918 21.8135 27.689L22.0584 27.2347ZM28.6724 27.343C28.8188 27.1159 29.0313 26.9642 29.3578 26.9642C29.4724 26.9642 29.6356 26.9859 29.7609 27.0348L29.5864 27.5646C29.4668 27.5157 29.3472 27.4996 29.2325 27.4996C28.8625 27.4996 28.6774 27.7372 28.6774 28.1649V29.6137H28.1117V27.0292L28.6724 27.0292V27.343ZM24.5299 27.0292H23.6047V26.2451H23.0327V27.0292H22.505V27.5429H23.0327V28.7219C23.0327 29.3216 23.267 29.6787 23.9361 29.6787C24.1816 29.6787 24.4644 29.6032 24.6439 29.4788L24.4806 28.9973C24.3118 29.0945 24.1268 29.1434 23.9797 29.1434C23.6969 29.1434 23.6047 28.9701 23.6047 28.7108V27.5429H24.5299V27.0292ZM16.0711 27.9916V29.6137H15.4992V28.1754C15.4992 27.7372 15.3141 27.494 14.9279 27.494C14.5522 27.494 14.2911 27.7323 14.2911 28.181V29.6137H13.7192V28.1754C13.7192 27.7372 13.5292 27.494 13.1535 27.494C12.7666 27.494 12.5161 27.7323 12.5161 28.181V29.6137H11.9448V27.0292H12.5112V27.3479C12.7236 27.0453 12.9952 26.9642 13.2731 26.9642C13.6706 26.9642 13.9535 27.1375 14.1329 27.4241C14.3727 27.0614 14.7154 26.9587 15.0475 26.9642C15.6792 26.9698 16.0711 27.3807 16.0711 27.9916Z" fill="#231F20"/>
<path d="M30.4449 22.6376H21.8708V7.33105H30.4449V22.6376Z" fill="#FF5F00"/>
<path d="M22.4148 14.9851C22.4148 11.8801 23.8783 9.11421 26.1573 7.33178C24.4907 6.02838 22.3874 5.25043 20.1015 5.25043C14.6899 5.25043 10.3032 9.60871 10.3032 14.9851C10.3032 20.3614 14.6899 24.7197 20.1015 24.7197C22.3874 24.7197 24.4907 23.9418 26.1573 22.6384C23.8783 20.8559 22.4148 18.0901 22.4148 14.9851Z" fill="#EB001B"/>
<path d="M42.0121 14.9851C42.0121 20.3614 37.6254 24.7197 32.2138 24.7197C29.9279 24.7197 27.8246 23.9418 26.1573 22.6384C28.437 20.8559 29.9005 18.0901 29.9005 14.9851C29.9005 11.8801 28.437 9.11421 26.1573 7.33178C27.8246 6.02838 29.9279 5.25043 32.2138 5.25043C37.6254 5.25043 42.0121 9.60871 42.0121 14.9851Z" fill="#F79E1B"/>
</svg>
