<svg width="52" height="35" viewBox="0 0 52 35" fill="none" xmlns="http://www.w3.org/2000/svg">
<rect x="1.25867" y="0.5" width="49.6897" height="34" rx="3.5" fill="white" stroke="#F3F3F3"/>
<path fill-rule="evenodd" clip-rule="evenodd" d="M27.5502 12.5131L25.1128 13.0486V11.0256L27.5502 10.5V12.5131ZM32.6192 13.6337C31.6676 13.6337 31.0558 14.0898 30.7159 14.4072L30.5897 13.7923H28.4533V25.3552L30.881 24.8296L30.8907 22.0232C31.2403 22.281 31.755 22.6479 32.6095 22.6479C34.3477 22.6479 35.9305 21.2199 35.9305 18.0763C35.9208 15.2005 34.3186 13.6337 32.6192 13.6337ZM32.0364 20.4662C31.4635 20.4662 31.1236 20.258 30.8906 20.0002L30.8809 16.3211C31.1334 16.0335 31.4829 15.8352 32.0364 15.8352C32.9201 15.8352 33.5319 16.8467 33.5319 18.1458C33.5319 19.4746 32.9298 20.4662 32.0364 20.4662ZM43.5826 18.1755C43.5826 15.6368 42.3784 13.6337 40.077 13.6337C37.7659 13.6337 36.3675 15.6368 36.3675 18.1557C36.3675 21.1406 38.0184 22.6479 40.3878 22.6479C41.5433 22.6479 42.4173 22.3802 43.0776 22.0033V20.02C42.4173 20.3572 41.6599 20.5654 40.6985 20.5654C39.7566 20.5654 38.9215 20.2282 38.8146 19.0581H43.5632C43.5632 19.0035 43.5666 18.8795 43.5707 18.7366L43.5707 18.7364V18.7362L43.5707 18.7355L43.5707 18.735C43.5762 18.5409 43.5826 18.3123 43.5826 18.1755ZM38.7855 17.2334C38.7855 16.1128 39.4555 15.6467 40.0673 15.6467C40.6596 15.6467 41.2908 16.1128 41.2908 17.2334H38.7855ZM25.1128 13.8022H27.5502V22.4793H25.1128V13.8022ZM22.3454 13.8022L22.5008 14.5361C23.0737 13.4651 24.2098 13.6832 24.5206 13.8022V16.0831C24.2195 15.974 23.2485 15.8352 22.6755 16.5987V22.4793H20.2479V13.8022H22.3454ZM17.6454 11.6503L15.276 12.166L15.2663 20.1092C15.2663 21.5769 16.3441 22.6578 17.7813 22.6578C18.5776 22.6578 19.1602 22.5091 19.4807 22.3306V20.3175C19.1699 20.4464 17.6357 20.9026 17.6357 19.4349V15.9145H19.4807V13.8022H17.6357L17.6454 11.6503ZM11.9065 15.7856C11.3918 15.7856 11.0811 15.9343 11.0811 16.3211C11.0811 16.7434 11.6159 16.9291 12.2793 17.1596C13.3609 17.5352 14.7845 18.0297 14.7905 19.8613C14.7905 21.6364 13.4019 22.6578 11.3821 22.6578C10.547 22.6578 9.63418 22.4892 8.73108 22.0926V19.7324C9.54678 20.1886 10.5761 20.5257 11.3821 20.5257C11.9259 20.5257 12.3143 20.377 12.3143 19.9208C12.3143 19.4531 11.7346 19.2393 11.0347 18.9812C9.96884 18.5881 8.62427 18.0922 8.62427 16.4401C8.62427 14.6848 9.93521 13.6337 11.9065 13.6337C12.7125 13.6337 13.5087 13.7626 14.3147 14.0898V16.4202C13.5767 16.0137 12.6445 15.7856 11.9065 15.7856Z" fill="#6772E5"/>
</svg>
