<svg width="51" height="35" viewBox="0 0 51 35" xmlns="http://www.w3.org/2000/svg">
<rect x="0.637939" y="0.5" width="49.6897" height="34" rx="3.5" fill="#C2FAE5" stroke="#F3F3F3"/>
<path d="M6.32634 17.6543C6.32634 16.8812 5.74743 16.3382 5.03613 16.3382C4.32482 16.3382 3.74592 16.8907 3.74592 17.6543C3.74592 18.4089 4.32482 18.97 5.03613 18.97C5.7483 18.97 6.32634 18.4273 6.32634 17.6543ZM6.33672 19.9546V19.3565C5.98583 19.7705 5.46317 20.0277 4.83797 20.0277C3.53824 20.0277 2.55176 19.0155 2.55176 17.6543C2.55176 16.3016 3.57588 15.2714 4.86695 15.2714C5.47442 15.2714 5.98626 15.5294 6.33715 15.9336V15.354H7.50406V19.9546H6.33672ZM13.1711 18.933C12.7627 18.933 12.6493 18.7859 12.6493 18.3998V16.3571H13.3991V15.3536H12.6493V14.2314H11.4534V15.3536H9.91314V15.0741C9.91314 14.6871 10.0654 14.5396 10.483 14.5396H10.7452V13.6475H10.1697C9.18323 13.6475 8.71855 13.9605 8.71855 14.9171V15.3531H8.05441V16.3571H8.71855V19.9541H9.91444V16.3571H11.4547V18.6114C11.4547 19.55 11.8242 19.955 12.7917 19.955H13.4087V18.9334H13.1707L13.1711 18.933ZM17.4593 17.2398C17.374 16.6421 16.8708 16.2831 16.2829 16.2831C15.6944 16.2831 15.2107 16.6327 15.0878 17.2398H17.4588H17.4593ZM15.0779 17.9578C15.1635 18.6385 15.6663 19.0254 16.3019 19.0254C16.8046 19.0254 17.194 18.795 17.4212 18.4269H18.6456C18.3605 19.4021 17.4593 20.0277 16.2733 20.0277C14.8412 20.0277 13.8357 19.0529 13.8357 17.6633C13.8357 16.2741 14.8983 15.271 16.3028 15.271C17.7163 15.271 18.7404 16.2831 18.7404 17.6633C18.7404 17.7648 18.7313 17.8654 18.7123 17.9578H15.0779ZM26.3428 17.6543C26.3428 16.9087 25.7639 16.3382 25.0526 16.3382C24.3413 16.3382 23.7624 16.8907 23.7624 17.6543C23.7624 18.4089 24.3413 18.97 25.0526 18.97C25.7639 18.97 26.3428 18.3998 26.3428 17.6543ZM22.5855 15.354H23.7524V15.9521C24.1029 15.5285 24.6247 15.2714 25.2512 15.2714C26.5319 15.2714 27.5369 16.293 27.5369 17.6448C27.5369 18.9979 26.5128 20.0285 25.2226 20.0285C24.6247 20.0285 24.1314 19.7981 23.7905 19.412V21.8477H22.5855V15.354ZM31.7425 17.6543C31.7425 16.8812 31.1644 16.3382 30.4522 16.3382C29.7409 16.3382 29.162 16.8907 29.162 17.6543C29.162 18.4089 29.7409 18.97 30.4522 18.97C31.1644 18.97 31.7425 18.4273 31.7425 17.6543ZM31.7528 19.9546V19.3565C31.4019 19.7705 30.8793 20.0277 30.2541 20.0277C28.9543 20.0277 27.9679 19.0155 27.9679 17.6543C27.9679 16.3016 28.992 15.2714 30.2826 15.2714C30.8897 15.2714 31.4019 15.5294 31.7528 15.9336V15.354H32.9193V19.9546H31.7528ZM20.4827 15.805C20.4827 15.805 20.7796 15.2719 21.5069 15.2719C21.818 15.2719 22.0191 15.3751 22.0191 15.3751V16.5488C22.0191 16.5488 21.5804 16.2861 21.1772 16.339C20.7739 16.3919 20.5191 16.7509 20.5204 17.2316V19.9554H19.3158V15.3548H20.4827V15.805ZM38.3683 15.354L35.4227 21.8331H34.1805L35.337 19.3281L33.3814 15.354H34.7893L35.9333 18.0094L37.1071 15.354H38.3683ZM47.7714 15.2495L44.8509 13.6152C43.9943 13.1354 42.9225 13.7347 42.9225 14.6953V14.863C42.9225 15.0143 43.006 15.1545 43.141 15.2297L43.6927 15.5384C43.8545 15.6296 44.0561 15.5161 44.0561 15.3351V14.918C44.0561 14.7095 44.2889 14.5788 44.4749 14.6832L47.0043 16.0995C47.1904 16.2036 47.1904 16.4641 47.0043 16.5682L44.4749 17.9841C44.2889 18.0881 44.0566 17.9583 44.0566 17.7493V17.5274C44.0566 16.5673 42.9848 15.9667 42.1269 16.4474L39.2064 18.0821C39.0117 18.1884 38.8493 18.3447 38.7361 18.5347C38.623 18.7247 38.5633 18.9414 38.5633 19.1622C38.5633 19.3829 38.623 19.5996 38.7361 19.7896C38.8493 19.9796 39.0117 20.1359 39.2064 20.2422L42.1269 21.8765C42.984 22.3563 44.0566 21.757 44.0566 20.7964V20.6287C44.0561 20.5538 44.0355 20.4804 43.9971 20.4159C43.9586 20.3515 43.9036 20.2984 43.8376 20.262L43.2864 19.9524C43.1246 19.8617 42.9225 19.9752 42.9225 20.1562V20.5733C42.9225 20.7818 42.6898 20.9121 42.5042 20.8076L39.9744 19.3917C39.9321 19.3686 39.897 19.3346 39.8724 19.2934C39.8479 19.2521 39.835 19.2051 39.835 19.1572C39.835 19.1093 39.8479 19.0623 39.8724 19.021C39.897 18.9798 39.9321 18.9458 39.9744 18.9227L42.5042 17.5064C42.6902 17.4019 42.9225 17.5322 42.9225 17.7411V17.963C42.9225 18.9231 43.9938 19.5237 44.8509 19.0431L47.7714 17.4083C47.966 17.3021 48.1282 17.1459 48.2412 16.9561C48.3542 16.7662 48.4138 16.5497 48.4138 16.3291C48.4138 16.1086 48.3542 15.892 48.2412 15.7022C48.1282 15.5124 47.966 15.3562 47.7714 15.2499V15.2495Z" fill="black"/>
</svg>
