<svg xmlns="http://www.w3.org/2000/svg" width="50" height="50" viewBox="0 0 50 50">
<path d="M25 2.34375C25 1.04492 26.0449 0 27.3438 0C39.8535 0 50 10.1465 50 22.6562C50 23.9551 48.9551 25 47.6562 25C46.3574 25 45.3125 23.9551 45.3125 22.6562C45.3125 12.7344 37.2656 4.6875 27.3438 4.6875C26.0449 4.6875 25 3.64258 25 2.34375ZM25 21.875C25 21.0462 25.3292 20.2513 25.9153 19.6653C26.5013 19.0792 27.2962 18.75 28.125 18.75C28.9538 18.75 29.7487 19.0792 30.3347 19.6653C30.9208 20.2513 31.25 21.0462 31.25 21.875C31.25 22.7038 30.9208 23.4987 30.3347 24.0847C29.7487 24.6708 28.9538 25 28.125 25C27.2962 25 26.5013 24.6708 25.9153 24.0847C25.3292 23.4987 25 22.7038 25 21.875ZM27.3438 9.375C34.6777 9.375 40.625 15.3223 40.625 22.6562C40.625 23.9551 39.5801 25 38.2812 25C36.9824 25 35.9375 23.9551 35.9375 22.6562C35.9375 17.9102 32.0898 14.0625 27.3438 14.0625C26.0449 14.0625 25 13.0176 25 11.7188C25 10.4199 26.0449 9.375 27.3438 9.375Z"/>
<path opacity="0.4" d="M16.1035 2.40064C15.3516 0.584233 13.3691 -0.382564 11.4746 0.135014L2.88086 2.47876C1.18164 2.94751 0 4.49048 0 6.2483C0 30.4085 19.5898 49.9983 43.75 49.9983C45.5078 49.9983 47.0508 48.8167 47.5195 47.1174L49.8633 38.5237C50.3809 36.6292 49.4141 34.6467 47.5977 33.8948L38.2227 29.9885C36.6309 29.3245 34.7852 29.7835 33.7012 31.1213L29.7559 35.9358C22.8809 32.6838 17.3145 27.1174 14.0625 20.2424L18.877 16.3069C20.2148 15.2131 20.6738 13.3772 20.0098 11.7854L16.1035 2.41041V2.40064Z" />
</svg>
