<svg width="28" height="28" viewBox="0 0 28 28" xmlns="http://www.w3.org/2000/svg">
<path fill-rule="evenodd" clip-rule="evenodd" d="M23.839 23.9596C21.3104 26.4578 17.8353 28 14 28C12.5535 28 11.1583 27.7806 9.84574 27.3734C10.4215 26.4379 11.2606 24.9346 11.5687 23.7251C11.7416 23.0683 12.4444 20.3951 12.4444 20.3951C12.8938 21.2708 14.2305 22.0082 15.6477 22.0082C19.865 22.0082 22.907 18.1251 22.907 13.2971C22.907 8.66502 19.1276 5.20823 14.2765 5.20823C8.22716 5.20823 5.02387 9.2642 5.02387 13.6774C5.02387 15.7399 6.11852 18.2864 7.86996 19.1045C8.13498 19.2313 8.28477 19.1737 8.34239 18.9202C8.36152 18.8388 8.41443 18.6264 8.47719 18.3744C8.56558 18.0195 8.67351 17.5861 8.73416 17.33C8.76872 17.1918 8.7572 17.065 8.64197 16.9267C8.06584 16.2239 7.60494 14.9333 7.60494 13.735C7.60494 10.6469 9.94403 7.66255 13.9309 7.66255C17.3761 7.66255 19.7844 10.0016 19.7844 13.3547C19.7844 17.1342 17.8716 19.7613 15.3827 19.7613C14.0115 19.7613 12.9745 18.6206 13.3086 17.2263C13.4522 16.6315 13.6411 16.0206 13.8248 15.4264C14.157 14.3516 14.4724 13.3314 14.4724 12.5597C14.4724 11.4881 13.8963 10.5893 12.6979 10.5893C11.2922 10.5893 10.163 12.0412 10.163 13.9885C10.163 15.2214 10.5778 16.0625 10.5778 16.0625C10.5778 16.0625 9.19506 21.9276 8.94156 23.0222C8.66531 24.2308 8.76851 25.9339 8.89507 27.0401C3.68765 25 0 19.9306 0 14C0 6.26831 6.26831 0 14 0C14.3625 0 14.7218 0.0137776 15.0774 0.0408375C22.3056 0.591044 27.9989 6.63189 27.977 14.023C27.977 17.9078 26.3945 21.4232 23.839 23.9596Z"/>
</svg>
