<svg width="20" height="20" viewBox="0 0 20 20" xmlns="http://www.w3.org/2000/svg">
<path d="M12.7617 15.7695C11.8984 16.082 10.9688 16.25 10 16.25C9.03125 16.25 8.09766 16.0781 7.23828 15.7695C7.22656 15.7656 7.21875 15.7617 7.20703 15.7578C6.03516 15.3281 4.98828 14.6367 4.13672 13.75C2.73438 12.2891 1.875 10.3086 1.875 8.125C1.875 3.63672 5.51172 0 10 0C14.4883 0 18.125 3.63672 18.125 8.125C18.125 10.3086 17.2656 12.2891 15.8633 13.75C15.8242 13.7891 15.7852 13.832 15.7461 13.8711C14.9102 14.707 13.8945 15.3594 12.7656 15.7695H12.7617ZM10 3.58984C9.56641 3.58984 9.21484 3.94141 9.21484 4.375V4.60938C8.99609 4.65625 8.78906 4.72266 8.59375 4.80859C8.00781 5.07422 7.50391 5.56641 7.37891 6.28125C7.30859 6.67969 7.34766 7.0625 7.51172 7.41406C7.67578 7.75781 7.92969 8 8.1875 8.17578C8.64062 8.48438 9.23828 8.66406 9.69531 8.80078L9.78125 8.82812C10.3242 8.99219 10.6953 9.11719 10.9258 9.28516C11.0234 9.35547 11.0586 9.41016 11.0703 9.44141C11.082 9.47266 11.1055 9.54297 11.0781 9.70312C11.0547 9.83984 10.9805 9.95312 10.7656 10.0469C10.5273 10.1484 10.1406 10.1992 9.64062 10.1211C9.40625 10.082 8.98828 9.94141 8.61719 9.8125C8.53125 9.78516 8.44922 9.75391 8.36719 9.73047C7.95703 9.59375 7.51562 9.81641 7.37891 10.2266C7.24219 10.6367 7.46484 11.0781 7.875 11.2148C7.92188 11.2305 7.98047 11.25 8.04688 11.2734C8.35547 11.3789 8.83984 11.543 9.21094 11.6289V11.875C9.21094 12.3086 9.5625 12.6602 9.99609 12.6602C10.4297 12.6602 10.7812 12.3086 10.7812 11.875V11.6602C10.9883 11.6211 11.1914 11.5625 11.3828 11.4805C11.9961 11.2188 12.4922 10.7109 12.6172 9.96875C12.6875 9.5625 12.6562 9.17578 12.5 8.82031C12.3477 8.46875 12.1016 8.21094 11.8398 8.01953C11.3633 7.67578 10.7344 7.48438 10.2617 7.33984L10.2305 7.33203C9.67578 7.16406 9.30078 7.04688 9.0625 6.88672C8.96094 6.81641 8.92969 6.76953 8.92188 6.75C8.91406 6.73828 8.89453 6.6875 8.91797 6.55469C8.92969 6.48047 8.99219 6.35156 9.23828 6.23828C9.48828 6.125 9.87891 6.0625 10.3555 6.13672C10.5234 6.16406 11.0547 6.26562 11.2031 6.30469C11.6211 6.41406 12.0469 6.16797 12.1602 5.75C12.2734 5.33203 12.0234 4.90625 11.6055 4.79297C11.4336 4.74609 11.043 4.66797 10.7852 4.62109V4.375C10.7852 3.94141 10.4336 3.58984 10 3.58984ZM1.875 13.75H2.5C3.26172 14.7617 4.21875 15.6133 5.32031 16.25H2.5V17.5H10H17.5V16.25H14.6797C15.7812 15.6133 16.7422 14.7617 17.5 13.75H18.125C19.1602 13.75 20 14.5898 20 15.625V18.125C20 19.1602 19.1602 20 18.125 20H1.875C0.839844 20 0 19.1602 0 18.125V15.625C0 14.5898 0.839844 13.75 1.875 13.75Z"/>
</svg>
