<svg width="50" height="31" viewBox="0 0 50 31" xmlns="http://www.w3.org/2000/svg">
<path d="M0 11.7188C0 5.24414 5.89756 0 13.1789 0H14.0575C16.0014 0 17.5719 1.39648 17.5719 3.125C17.5719 4.85352 16.0014 6.25 14.0575 6.25H13.1789C9.78534 6.25 7.02875 8.70117 7.02875 11.7188V12.5H14.0575C17.9343 12.5 21.0863 15.3027 21.0863 18.75V25C21.0863 28.4473 17.9343 31.25 14.0575 31.25H7.02875C3.15196 31.25 0 28.4473 0 25V21.875V18.75V11.7188ZM28.115 11.7188C28.115 5.24414 34.0126 0 41.2939 0H42.1725C44.1164 0 45.6869 1.39648 45.6869 3.125C45.6869 4.85352 44.1164 6.25 42.1725 6.25H41.2939C37.9003 6.25 35.1438 8.70117 35.1438 11.7188V12.5H42.1725C46.0493 12.5 49.2013 15.3027 49.2013 18.75V25C49.2013 28.4473 46.0493 31.25 42.1725 31.25H35.1438C31.267 31.25 28.115 28.4473 28.115 25V21.875V18.75V11.7188Z"/>
</svg>
