<svg width="14" height="16" viewBox="0 0 14 16" xmlns="http://www.w3.org/2000/svg">
<path d="M4.23516 0.553125L4.01098 1H1.02197C0.470873 1 0.0256348 1.44687 0.0256348 2C0.0256348 2.55312 0.470873 3 1.02197 3H12.978C13.5291 3 13.9743 2.55312 13.9743 2C13.9743 1.44687 13.5291 1 12.978 1H9.989L9.76483 0.553125C9.59669 0.2125 9.25109 0 8.87435 0H5.12563C4.74889 0 4.40329 0.2125 4.23516 0.553125ZM12.978 4H1.02197L1.68204 14.5938C1.73186 15.3844 2.38571 16 3.17344 16H10.8265C11.6143 16 12.2681 15.3844 12.3179 14.5938L12.978 4Z" />
</svg>
