<svg width="20" height="20" viewBox="0 0 20 20" xmlns="http://www.w3.org/2000/svg">
<path d="M2.85714 1.25C2.85714 0.558594 2.21875 0 1.42857 0C0.638393 0 0 0.558594 0 1.25V2.5V14.375V18.75C0 19.4414 0.638393 20 1.42857 20C2.21875 20 2.85714 19.4414 2.85714 18.75V13.75L5.72768 13.1211C7.5625 12.7188 9.50446 12.9062 11.1964 13.6445C13.1696 14.5078 15.4598 14.6133 17.5223 13.9336L19.0714 13.4258C19.6295 13.2422 20 12.7773 20 12.2539V2.58203C20 1.68359 18.9196 1.09766 18 1.5L17.5714 1.6875C15.5045 2.59375 13.0714 2.59375 11.0045 1.6875C9.4375 1 7.63839 0.828125 5.9375 1.19922L2.85714 1.875V1.25Z"/>
</svg>
