<svg width="31" height="30" viewBox="0 0 31 30" xmlns="http://www.w3.org/2000/svg">
<path d="M17.3391 1.05469C17.0324 0.410156 16.3843 0 15.6725 0C14.9607 0 14.3183 0.410156 14.0058 1.05469L10.2847 8.80664L1.97456 10.0488C1.28011 10.1543 0.701409 10.6465 0.487289 11.3203C0.273168 11.9941 0.446779 12.7383 0.944465 13.2363L6.97456 19.2773L5.55095 27.8145C5.43521 28.5176 5.72456 29.2324 6.29747 29.6484C6.87039 30.0645 7.62849 30.1172 8.25349 29.7832L15.6783 25.7695L23.103 29.7832C23.728 30.1172 24.4861 30.0703 25.059 29.6484C25.632 29.2266 25.9213 28.5176 25.8056 27.8145L24.3762 19.2773L30.4063 13.2363C30.904 12.7383 31.0834 11.9941 30.8634 11.3203C30.6435 10.6465 30.0706 10.1543 29.3762 10.0488L21.0602 8.80664L17.3391 1.05469Z" />
</svg>
