<svg width="28" height="20" viewBox="0 0 28 20" xmlns="http://www.w3.org/2000/svg">
<path fill-rule="evenodd" clip-rule="evenodd" d="M26.5098 1.50343C26.9443 1.94066 27.2562 2.48432 27.4145 3.08C28 5.27864 28 9.86364 28 9.86364C28 9.86364 28 14.4486 27.4145 16.6473C27.2562 17.243 26.9443 17.7866 26.5098 18.2238C26.0754 18.6611 25.5337 18.9765 24.9391 19.1386C22.75 19.7273 14 19.7273 14 19.7273C14 19.7273 5.25 19.7273 3.06091 19.1386C2.46625 18.9765 1.9246 18.6611 1.49017 18.2238C1.05574 17.7866 0.743756 17.243 0.585455 16.6473C0 14.4486 0 9.86364 0 9.86364C0 9.86364 0 5.27864 0.585455 3.08C0.743756 2.48432 1.05574 1.94066 1.49017 1.50343C1.9246 1.06621 2.46625 0.750751 3.06091 0.588636C5.25 0 14 0 14 0C14 0 22.75 0 24.9391 0.588636C25.5337 0.750751 26.0754 1.06621 26.5098 1.50343ZM18.4545 9.8636L11.1364 5.7002V14.027L18.4545 9.8636Z"/>
</svg>
